<?xml version="1.0" encoding="UTF-8"?><svg id="uuid-7b62fc19-d849-4d15-8b23-2600b15fa510" xmlns="http://www.w3.org/2000/svg" viewBox="0 0 40 40"><defs><style>.uuid-913fcdbd-9d9d-44dd-ba9f-be24c2c63268{stroke-width:0px;}</style></defs><rect class="uuid-913fcdbd-9d9d-44dd-ba9f-be24c2c63268" x="18.25" y="16.63" width="1" height="8.25" transform="translate(-4.47 5.17) rotate(-14.04)"/><rect class="uuid-913fcdbd-9d9d-44dd-ba9f-be24c2c63268" x="25.75" y="19.38" width="1" height="6.08" transform="translate(-3.33 4.62) rotate(-9.46)"/><path class="uuid-913fcdbd-9d9d-44dd-ba9f-be24c2c63268" d="m29.91,28.69c-.97,0-2.17-.31-3.36-1.44h-8.14l-.12-.32s-1.17-2.93-3.78-2.93h-6.38l-1.02-3.75h4.99l-1.71-6h-4.98l-1.33-4,9.81.02c.17.04,3.96,1.02,4.35,3.98h5.53c1.21,0,3.5.73,3.5,3.5,0,.3.11.54.36.76,1.32,1.17,5.56.93,7.08.74l1.87-.23-4.74,3.56,6.13,2.04-5.93,3.56s-.87.51-2.1.51Zm-10.84-2.44h7.88l.15.15c2.2,2.2,4.37.94,4.39.92l4.07-2.44-5.87-1.96,3.38-2.53c-1.91.09-4.82.01-6.11-1.13-.46-.4-.7-.93-.7-1.51,0-2.41-2.25-2.5-2.5-2.5h-6.5v-.5c0-2.39-3.11-3.37-3.57-3.5H5.44l.67,2h5.02l2.29,8h-5.01l.48,1.75h5.62c2.75,0,4.15,2.37,4.58,3.25Z"/><polygon class="uuid-913fcdbd-9d9d-44dd-ba9f-be24c2c63268" points="9 20.75 7.13 13.75 6.1 13.75 7.97 20.75 9 20.75"/><path class="uuid-913fcdbd-9d9d-44dd-ba9f-be24c2c63268" d="m6.33,10.75l-.81-3.03c-.09.01-.18.03-.28.03-.28,0-.54-.06-.79-.14l.84,3.14h1.03Z"/><path class="uuid-913fcdbd-9d9d-44dd-ba9f-be24c2c63268" d="m8.33,10.75l-1.07-4.03c-.22.3-.51.55-.84.72l.88,3.3h1.03Z"/><path class="uuid-913fcdbd-9d9d-44dd-ba9f-be24c2c63268" d="m10.7,23.5l3.4,12.75h-.97l-3.4-12.75h-1.03l3.57,13.38.1.37h3.03l-3.67-13.75h-1.03Z"/><polygon class="uuid-913fcdbd-9d9d-44dd-ba9f-be24c2c63268" points="9.13 13.75 8.1 13.75 9.97 20.75 11 20.75 9.13 13.75"/><path class="uuid-913fcdbd-9d9d-44dd-ba9f-be24c2c63268" d="m5.25,7.75c-1.38,0-2.5-1.12-2.5-2.5s1.12-2.5,2.5-2.5,2.5,1.12,2.5,2.5-1.12,2.5-2.5,2.5Zm0-4c-.83,0-1.5.67-1.5,1.5s.67,1.5,1.5,1.5,1.5-.67,1.5-1.5-.67-1.5-1.5-1.5Z"/></svg>