<?xml version="1.0" encoding="UTF-8"?><svg id="uuid-1468cac3-3e30-4b73-bb1c-c1dc88f38796" xmlns="http://www.w3.org/2000/svg" viewBox="0 0 40 40"><defs><style>.uuid-019f1049-8c58-47a8-90e2-8501c780d4b5{stroke-width:0px;}</style></defs><path class="uuid-019f1049-8c58-47a8-90e2-8501c780d4b5" d="m8.93,7.16c-.57-.55-.93-1.31-.93-2.16,0-1.65,1.35-3,3-3s3,1.35,3,3c0,.74-.28,1.41-.73,1.94.52-.05.95-.16,1.23-.44.09-.09.19-.17.28-.25.13-.4.22-.81.22-1.25,0-2.21-1.79-4-4-4s-4,1.79-4,4c0,1.05.41,1.99,1.07,2.71.23-.25.52-.43.86-.55Z"/><path class="uuid-019f1049-8c58-47a8-90e2-8501c780d4b5" d="m32.5,10H7v-.5c0-.97.27-1.73.8-2.24.96-.93,2.55-.87,3.94-.82,1,.04,2.04.07,2.41-.3,1.63-1.63,3.81-1.48,4.88-1.28.06-.52.26-1.25.81-1.85.62-.67,1.51-1.01,2.67-1.01,2.7,0,3.83,2.7,4.12,4.45,5.81.13,5.88,2.92,5.88,3.05v.5Zm-24.47-1h23.26c-.41-.61-1.61-1.55-5.11-1.55h-.45l-.04-.45c-.02-.16-.41-4-3.18-4-.86,0-1.51.23-1.92.68-.65.71-.58,1.76-.58,1.77l.06.75-.71-.23s-2.74-.87-4.49.88c-.68.68-1.88.63-3.15.59-1.26-.04-2.56-.09-3.21.54-.25.24-.4.57-.46,1.02Z"/><polygon class="uuid-019f1049-8c58-47a8-90e2-8501c780d4b5" points="22.62 15.52 25.27 16.52 38.5 16.52 38.5 30.02 29 30.02 29 30.52 11 30.52 11 30.02 1.5 30.02 1.5 16.52 14.73 16.52 17.38 15.52 .5 15.52 .5 31.02 39.5 31.02 39.5 15.52 22.62 15.52"/><path class="uuid-019f1049-8c58-47a8-90e2-8501c780d4b5" d="m29.5,31.02H10.5v-13.42l9.5-3.61,9.5,3.61v13.42Zm-18-1h17v-11.73l-8.5-3.23-8.5,3.23v11.73Z"/><rect class="uuid-019f1049-8c58-47a8-90e2-8501c780d4b5" x="10.75" y="18.02" width="18" height="1"/><rect class="uuid-019f1049-8c58-47a8-90e2-8501c780d4b5" x="11" y="25.52" width="18" height="1"/><path class="uuid-019f1049-8c58-47a8-90e2-8501c780d4b5" d="m20,17.5c-.83,0-1.5-.67-1.5-1.5s.67-1.5,1.5-1.5,1.5.67,1.5,1.5-.67,1.5-1.5,1.5Zm0-2c-.28,0-.5.22-.5.5s.22.5.5.5.5-.22.5-.5-.22-.5-.5-.5Z"/><path class="uuid-019f1049-8c58-47a8-90e2-8501c780d4b5" d="m13.37,20v4.88h-1.27v-4.88h1.27m1.03-1.03h-3.33v6.93h3.33v-6.93h0Z"/><path class="uuid-019f1049-8c58-47a8-90e2-8501c780d4b5" d="m15.5,20v4.88h-1.27v-4.88h1.27m1.03-1.03h-3.33v6.93h3.33v-6.93h0Z"/><path class="uuid-019f1049-8c58-47a8-90e2-8501c780d4b5" d="m20.63,20v4.88h-1.27v-4.88h1.27m1.03-1.03h-3.33v6.93h3.33v-6.93h0Z"/><path class="uuid-019f1049-8c58-47a8-90e2-8501c780d4b5" d="m25.77,20v4.88h-1.27v-4.88h1.27m1.03-1.03h-3.33v6.93h3.33v-6.93h0Z"/><path class="uuid-019f1049-8c58-47a8-90e2-8501c780d4b5" d="m27.9,20v4.88h-1.27v-4.88h1.27m1.03-1.03h-3.33v6.93h3.33v-6.93h0Z"/><path class="uuid-019f1049-8c58-47a8-90e2-8501c780d4b5" d="m21.28,30.52h-1v-1.41c0-.63-.22-.85-.28-.85s-.28.22-.28.85v1.41h-1v-1.41c0-1.27.66-1.85,1.28-1.85s1.28.58,1.28,1.85v1.41Z"/><path class="uuid-019f1049-8c58-47a8-90e2-8501c780d4b5" d="m18.51,30.52h-1v-1.41c0-.63-.22-.85-.28-.85s-.28.22-.28.85v1.41h-1v-1.41c0-1.27.66-1.85,1.28-1.85s1.28.58,1.28,1.85v1.41Z"/><path class="uuid-019f1049-8c58-47a8-90e2-8501c780d4b5" d="m24.05,30.54h-1v-1.41c0-.63-.22-.85-.28-.85s-.28.22-.28.85v1.41h-1v-1.41c0-1.27.66-1.85,1.28-1.85s1.28.58,1.28,1.85v1.41Z"/><polygon class="uuid-019f1049-8c58-47a8-90e2-8501c780d4b5" points="9 30.76 8 30.76 8 15.89 5.71 11.76 2 11.76 2 16.51 1 16.51 1 10.76 6.29 10.76 9 15.63 9 30.76"/><polygon class="uuid-019f1049-8c58-47a8-90e2-8501c780d4b5" points="32 30.76 31 30.76 31 15.63 33.71 10.76 39 10.76 39 16.51 38 16.51 38 11.76 34.29 11.76 32 15.89 32 30.76"/><rect class="uuid-019f1049-8c58-47a8-90e2-8501c780d4b5" x="1.13" y="34" width="11.27" height="1" transform="translate(-22.41 14.89) rotate(-45)"/><rect class="uuid-019f1049-8c58-47a8-90e2-8501c780d4b5" x="32.24" y="28.86" width="1" height="11.29" transform="translate(-14.81 33.26) rotate(-45)"/><path class="uuid-019f1049-8c58-47a8-90e2-8501c780d4b5" d="m7,23.02H3v-6h4v6Zm-3-1h2v-4h-2v4Z"/><path class="uuid-019f1049-8c58-47a8-90e2-8501c780d4b5" d="m7,29.52H3v-6h4v6Zm-3-1h2v-4h-2v4Z"/><path class="uuid-019f1049-8c58-47a8-90e2-8501c780d4b5" d="m37,23.02h-4v-6h4v6Zm-3-1h2v-4h-2v4Z"/><path class="uuid-019f1049-8c58-47a8-90e2-8501c780d4b5" d="m37,29.52h-4v-6h4v6Zm-3-1h2v-4h-2v4Z"/><rect class="uuid-019f1049-8c58-47a8-90e2-8501c780d4b5" x="3" y="12.8" width="1" height="2.72"/><rect class="uuid-019f1049-8c58-47a8-90e2-8501c780d4b5" x="36.53" y="12.79" width="1" height="2.72"/><rect class="uuid-019f1049-8c58-47a8-90e2-8501c780d4b5" x="11.45" y="13.12" width="1" height="2.72"/><rect class="uuid-019f1049-8c58-47a8-90e2-8501c780d4b5" x="27.99" y="13.1" width="1" height="2.72"/></svg>