<?xml version="1.0" encoding="UTF-8"?><svg id="uuid-ac0b3df8-ef96-4abd-bc32-21a38de20376" xmlns="http://www.w3.org/2000/svg" viewBox="0 0 40 40"><defs><style>.uuid-8649cd29-5928-4a81-9f44-845ac30ff7e1{stroke-width:0px;}</style></defs><rect class="uuid-8649cd29-5928-4a81-9f44-845ac30ff7e1" x="14.33" y="22.25" width="1" height="11.7" transform="translate(-2.72 1.61) rotate(-5.71)"/><rect class="uuid-8649cd29-5928-4a81-9f44-845ac30ff7e1" x="19.08" y="27.61" width="11.7" height="1" transform="translate(-5.52 50.11) rotate(-84.28)"/><path class="uuid-8649cd29-5928-4a81-9f44-845ac30ff7e1" d="m20.07,27.53c-2.19,0-4.23-.27-5.76-.77-2.39-.78-2.89-1.91-2.89-2.72h1c0,1.4,3.36,2.5,7.65,2.5s7.65-1.1,7.65-2.5h1c0,2.42-4.34,3.5-8.65,3.5Z"/><rect class="uuid-8649cd29-5928-4a81-9f44-845ac30ff7e1" x="19.57" y="23.45" width="1" height="11.64"/><path class="uuid-8649cd29-5928-4a81-9f44-845ac30ff7e1" d="m28.89,14.94l-.09.79c-.65,2.55-4.71,3.88-8.73,3.88s-8.08-1.33-8.73-3.88l-.09-.79-1,.06c0,.32.04.64.11.94l2.25,18.89.21.13c2.36,1.39,4.76,2.09,7.18,2.09s4.85-.7,7.29-2.09l.22-.12,2.25-18.89c.07-.3.11-.62.11-.95l-1-.06Zm-2.3,19.28c-4.46,2.47-8.73,2.47-13.04,0l-1.93-16.18c.48.46,1.09.87,1.83,1.23,1.76.85,4.11,1.33,6.62,1.33,3.22,0,6.62-.82,8.45-2.56l-1.93,16.17Z"/><path class="uuid-8649cd29-5928-4a81-9f44-845ac30ff7e1" d="m20.61,18.54c4.47,0,6.73-2.21,6.82-2.3.11-.11.16-.27.14-.43-.02-.16-.12-.29-.27-.37,0,0-.8-.42-.8-1.17,0-.36-.15-.65-.43-.82-.69-.42-1.95.12-2.45.37-.1.05-.17.13-.22.22l-.77,1.54-.59-.59c-.15-.15-.38-.19-.58-.09l-1.55.78c-.16-.7-.53-1.69-1.35-1.96-.78-.25-1.64.17-2.64,1.3q-.79.89-1.71.38c-.25-.14-.56-.31-.93-.49-.21-.1-.46-.05-.61.14-.15.18-.15.44,0,.63.09.12,2.37,2.88,7.94,2.88Z"/><path class="uuid-8649cd29-5928-4a81-9f44-845ac30ff7e1" d="m20.07,13.67c-5.01,0-8.94-1.84-8.94-4.19s3.93-4.19,8.94-4.19,8.94,1.84,8.94,4.19-3.93,4.19-8.94,4.19Zm0-7.38c-4.68,0-7.94,1.68-7.94,3.19s3.26,3.19,7.94,3.19,7.94-1.68,7.94-3.19-3.26-3.19-7.94-3.19Z"/><path class="uuid-8649cd29-5928-4a81-9f44-845ac30ff7e1" d="m18.46,9.48h-1c0-.9.54-2.61,2.61-2.61s2.61,1.71,2.61,2.61h-1c0-.27-.09-1.61-1.61-1.61s-1.61,1.34-1.61,1.61Z"/></svg>