<?xml version="1.0" encoding="UTF-8"?><svg id="uuid-73811be6-f196-49b3-b56d-72f4b0166e4f" xmlns="http://www.w3.org/2000/svg" viewBox="0 0 40 40"><defs><style>.uuid-4d472f94-f9ca-4340-99cb-36c3ba5a0694{stroke-width:0px;}</style></defs><path class="uuid-4d472f94-f9ca-4340-99cb-36c3ba5a0694" d="m7.26,25.27c-.38,0-.77-.15-1.06-.44-.58-.58-.58-1.54,0-2.12.59-.58,1.54-.58,2.12,0,.58.58.58,1.54,0,2.12h0c-.29.29-.68.44-1.06.44Zm0-2c-.13,0-.26.05-.35.15-.2.2-.2.51,0,.71.2.19.51.19.71,0,.2-.2.2-.51,0-.71-.1-.1-.23-.15-.35-.15Z"/><path class="uuid-4d472f94-f9ca-4340-99cb-36c3ba5a0694" d="m15.04,33.05h0c-.4,0-.78-.16-1.06-.44-.28-.28-.44-.66-.44-1.06s.16-.78.44-1.06c.28-.28.66-.44,1.06-.44h0c.4,0,.78.16,1.06.44s.44.66.44,1.06-.16.78-.44,1.06c-.28.28-.66.44-1.06.44Zm0-2h0c-.13,0-.26.05-.35.15s-.15.22-.15.35.05.26.15.35.22.15.35.15h0c.13,0,.26-.05.35-.15h0c.09-.09.15-.22.15-.35s-.05-.26-.15-.35-.22-.15-.35-.15Z"/><path class="uuid-4d472f94-f9ca-4340-99cb-36c3ba5a0694" d="m7.14,35.67H3.14v-4h4v4Zm-3-1h2v-2h-2v2Z"/><path class="uuid-4d472f94-f9ca-4340-99cb-36c3ba5a0694" d="m12.92,26.6l6.57-6.57c-.24-.24-.47-.47-.71-.7l-6.57,6.57.71.71Z"/><path class="uuid-4d472f94-f9ca-4340-99cb-36c3ba5a0694" d="m27.83,7.43l-.09.11c-.06.07-3.64,4.3-7.96,8.79.23.24.47.48.7.72,3.39-3.53,6.32-6.89,7.49-8.25v1.33l-7.21,7.21c.23.24.47.47.7.71l7.21-7.21h1.33c-1.35,1.17-4.71,4.14-8.24,7.53.24.24.48.47.71.71,4.47-4.31,8.71-7.94,8.78-8l.11-.09,1.77-5.32-5.32,1.78Zm2.88,2.4h-1.73v-1.73l2.6-.87-.87,2.6Z"/><path class="uuid-4d472f94-f9ca-4340-99cb-36c3ba5a0694" d="m24.7,32.56c-.38,0-.77-.15-1.06-.44-.58-.58-.58-1.54,0-2.12s1.54-.58,2.12,0,.58,1.54,0,2.12c-.29.29-.68.44-1.06.44Zm0-2c-.13,0-.26.05-.35.15-.2.2-.2.51,0,.71s.51.2.71,0,.2-.51,0-.71c-.1-.1-.23-.15-.35-.15Z"/><path class="uuid-4d472f94-f9ca-4340-99cb-36c3ba5a0694" d="m32.47,24.79c-.38,0-.77-.15-1.06-.44-.58-.58-.58-1.54,0-2.12s1.54-.58,2.12,0,.58,1.54,0,2.12c-.29.29-.68.44-1.06.44Zm0-2c-.13,0-.26.05-.35.15-.2.2-.2.51,0,.71s.51.2.71,0,.2-.51,0-.71c-.1-.1-.23-.15-.35-.15Z"/><path class="uuid-4d472f94-f9ca-4340-99cb-36c3ba5a0694" d="m10.44,23.42l-1.41,1.41-1.06-1.06-.71.71,1.06,1.06-.71.71,1.77,1.77-4.16,4.16h1.41v1.41l4.16-4.16,1.77,1.77.71-.71,1.06,1.06.71-.71-1.06-1.06,1.41-1.41-4.95-4.95Zm-.71,2.12l.71-.71,3.54,3.54-.71.71-3.54-3.54Z"/><path class="uuid-4d472f94-f9ca-4340-99cb-36c3ba5a0694" d="m30.35,27.53l1.77-1.77-.71-.71,1.06-1.06-.71-.71-1.06,1.06-1.41-1.41-4.95,4.95,1.41,1.41-1.06,1.06.71.71,1.06-1.06.71.71,1.77-1.77,4.16,4.16v-1.41h1.41l-4.16-4.16Zm-4.6.35l3.54-3.54.71.71-3.54,3.54-.71-.71Z"/><path class="uuid-4d472f94-f9ca-4340-99cb-36c3ba5a0694" d="m36.59,35.19h-4v-4h4v4Zm-3-1h2v-2h-2v2Z"/><path class="uuid-4d472f94-f9ca-4340-99cb-36c3ba5a0694" d="m14.23,27.92c1.59-2.07,3.87-4.51,6.26-6.88-.24-.24-.47-.48-.71-.72-2.36,2.36-4.63,4.79-6.26,6.89l.71.71Z"/><path class="uuid-4d472f94-f9ca-4340-99cb-36c3ba5a0694" d="m11.61,25.29c2.15-1.65,4.58-3.9,6.91-6.23-.24-.24-.48-.47-.72-.7-2.35,2.35-4.78,4.61-6.89,6.22l.71.71Z"/><path class="uuid-4d472f94-f9ca-4340-99cb-36c3ba5a0694" d="m26.21,26.72c-4.61-6.02-13.97-14.21-16.49-16.37h1.33l15.76,15.76.71-.71-15.76-15.76v-1.33c2.18,2.51,10.55,11.99,16.37,16.49l.71-.71C22.33,19.08,12.1,7.18,11.99,7.05l-.09-.11-5.32-1.77,1.78,5.32.11.09c.12.1,11.89,10.07,17.04,16.84l.71-.71ZM8.16,6.75l2.6.87v1.73h-1.73l-.87-2.6Z"/></svg>