<?xml version="1.0" encoding="utf-8"?>
<!-- Generator: Adobe Illustrator 27.8.1, SVG Export Plug-In . SVG Version: 6.00 Build 0)  -->
<svg version="1.1" id="uuid-7b62fc19-d849-4d15-8b23-2600b15fa510"
	 xmlns="http://www.w3.org/2000/svg" xmlns:xlink="http://www.w3.org/1999/xlink" x="0px" y="0px" viewBox="0 0 40 40"
	 style="enable-background:new 0 0 40 40;" xml:space="preserve">
<style type="text/css">
	.st0{fill:#F6F6ED;}
</style>
<path class="st0" d="M19.1,26.2H27l0.1,0.1c2.2,2.2,4.4,0.9,4.4,0.9l4.1-2.4l-5.9-2l3.4-2.5c-1.9,0.1-4.8,0-6.1-1.1
	c-0.5-0.4-0.7-0.9-0.7-1.5c0-2.4-2.2-2.5-2.5-2.5h-6.5v-0.5c0-2.4-3.1-3.4-3.6-3.5H5.4l0.7,2h5l2.3,8h-5L8.9,23h5.6
	C17.3,23,18.7,25.4,19.1,26.2L19.1,26.2z"/>
<rect x="18.3" y="16.6" transform="matrix(0.9701 -0.2426 0.2426 0.9701 -4.4752 5.17)" width="1" height="8.2"/>
<rect x="25.7" y="19.4" transform="matrix(0.9864 -0.1644 0.1644 0.9864 -3.3281 4.619)" width="1" height="6.1"/>
<path d="M29.9,28.7c-1,0-2.2-0.3-3.4-1.4h-8.1l-0.1-0.3c0,0-1.2-2.9-3.8-2.9H8.1l-1-3.8h5l-1.7-6h-5l-1.3-4l9.8,0c0.2,0,4,1,4.4,4
	h5.5c1.2,0,3.5,0.7,3.5,3.5c0,0.3,0.1,0.5,0.4,0.8c1.3,1.2,5.6,0.9,7.1,0.7l1.9-0.2l-4.7,3.6l6.1,2L32,28.2
	C32,28.2,31.2,28.7,29.9,28.7L29.9,28.7z M19.1,26.2H27l0.1,0.1c2.2,2.2,4.4,0.9,4.4,0.9l4.1-2.4l-5.9-2l3.4-2.5
	c-1.9,0.1-4.8,0-6.1-1.1c-0.5-0.4-0.7-0.9-0.7-1.5c0-2.4-2.2-2.5-2.5-2.5h-6.5v-0.5c0-2.4-3.1-3.4-3.6-3.5H5.4l0.7,2h5l2.3,8h-5
	L8.9,23h5.6C17.3,23,18.7,25.4,19.1,26.2L19.1,26.2z"/>
<polygon points="9,20.8 7.1,13.8 6.1,13.8 8,20.8 "/>
<path d="M6.3,10.8l-0.8-3c-0.1,0-0.2,0-0.3,0C5,7.8,4.7,7.7,4.4,7.6l0.8,3.1L6.3,10.8L6.3,10.8z"/>
<path d="M8.3,10.8l-1.1-4C7,7,6.8,7.3,6.4,7.4l0.9,3.3L8.3,10.8L8.3,10.8z"/>
<path d="M10.7,23.5l3.4,12.8h-1L9.7,23.5h-1l3.6,13.4l0.1,0.4h3l-3.7-13.8H10.7z"/>
<polygon points="9.1,13.8 8.1,13.8 10,20.8 11,20.8 "/>
<path d="M5.2,7.8c-1.4,0-2.5-1.1-2.5-2.5s1.1-2.5,2.5-2.5s2.5,1.1,2.5,2.5S6.6,7.8,5.2,7.8z M5.2,3.8c-0.8,0-1.5,0.7-1.5,1.5
	s0.7,1.5,1.5,1.5s1.5-0.7,1.5-1.5S6.1,3.8,5.2,3.8z"/>
<circle class="st0" cx="5.2" cy="5.2" r="1.5"/>
</svg>
