<?xml version="1.0" encoding="UTF-8"?><svg id="uuid-5702562a-4117-44ff-8f8d-38cd20ff51c4" xmlns="http://www.w3.org/2000/svg" viewBox="0 0 40 40"><defs><style>.uuid-b0c2dcb1-6a28-40fd-8307-3eb4158ad72a{stroke-width:0px;}</style></defs><path class="uuid-b0c2dcb1-6a28-40fd-8307-3eb4158ad72a" d="m38.66,33.72H1.91l2.78-.97c2.31-.81,3.62-1.94,4.01-3.45.61-2.4-1.1-5.88-5.23-10.63l-.99-1.11.52.45c.35.39.91-.36,1.23.01l6.7,7.54,8.73-6.16.69,2.77.68-2.73,9.68,6.11,6.28-8.54,1.26-.5c-4.38,6.34-6.09,10.75-5.23,13.47.41,1.28,1.38,2.19,2.99,2.78l2.63.97Zm-31.54-1h26.73c-.86-.64-1.45-1.46-1.76-2.44-.48-1.52-.31-3.4.54-5.71l-1.64,2.34-9.32-5.89-1.32,5.27-1.31-5.23-8.27,5.84-1.83-2.05c.83,1.82,1.05,3.37.71,4.71-.32,1.28-1.18,2.34-2.54,3.18Z"/><path class="uuid-b0c2dcb1-6a28-40fd-8307-3eb4158ad72a" d="m20.35,18.72c-1.93,0-3.5-1.57-3.5-3.5s1.57-3.5,3.5-3.5,3.5,1.57,3.5,3.5-1.57,3.5-3.5,3.5Zm0-6c-1.38,0-2.5,1.12-2.5,2.5s1.12,2.5,2.5,2.5,2.5-1.12,2.5-2.5-1.12-2.5-2.5-2.5Z"/><rect class="uuid-b0c2dcb1-6a28-40fd-8307-3eb4158ad72a" x="19.85" y="9.22" width="1" height="3"/><rect class="uuid-b0c2dcb1-6a28-40fd-8307-3eb4158ad72a" x="18.85" y="10.72" width="3" height="1"/><path class="uuid-b0c2dcb1-6a28-40fd-8307-3eb4158ad72a" d="m20.35,10.68l-2.54-4.4h5.08l-2.54,4.4Zm-.81-3.4l.81,1.4.81-1.4h-1.61Z"/><path class="uuid-b0c2dcb1-6a28-40fd-8307-3eb4158ad72a" d="m13.35,31.72h-3v-4h3v4Zm-2-1h1v-2h-1v2Z"/><path class="uuid-b0c2dcb1-6a28-40fd-8307-3eb4158ad72a" d="m31.35,31.72h-3v-4h3v4Zm-2-1h1v-2h-1v2Z"/><path class="uuid-b0c2dcb1-6a28-40fd-8307-3eb4158ad72a" d="m17.35,30.54l-2.83-2.83,2.83-2.83,2.83,2.83-2.83,2.83Zm-1.41-2.83l1.41,1.42,1.41-1.42-1.41-1.41-1.41,1.41Z"/><path class="uuid-b0c2dcb1-6a28-40fd-8307-3eb4158ad72a" d="m23.99,30.54l-2.83-2.83,2.83-2.83,2.83,2.83-2.83,2.83Zm-1.41-2.83l1.41,1.42,1.42-1.42-1.42-1.41-1.41,1.41Z"/><path class="uuid-b0c2dcb1-6a28-40fd-8307-3eb4158ad72a" d="m31.07,17.18c.18.44.28.94.28,1.54,0,2.1-1.12,4-2.95,5.43-.36-.02-.68-.05-.99-.1l1.75,1.11c1.44-.04,2.46-.51,3.16-1.05l1.61-2.31c.19-.55.3-1.14.3-1.73,0-1.16-.41-2.34-1.2-3.09l1.81-.17c-.29-.25-.51-.57-.62-.95l-2.61.24c-.13-.19-.27-.38-.44-.54-.87-.87-2.18-1.32-3.77-1.56.7-1.87.92-3.66-.11-4.69-.84-.84-1.6-.87-2.08-.74-1.75.47-2.66,3.6-2.75,3.96l-.13.46s.03.02.05.04l.91.25.13-.48c.21-.76,1.03-2.99,2.05-3.26.12-.03.5-.13,1.12.48.7.7.47,2.16-.21,3.85-1.06-.1-2.23-.14-3.46-.15.18.31.3.64.36,1,.94.01,1.84.04,2.67.11-.91,1.93-2.26,4.01-3.42,5.53l-.1.13v.17s0,.11.03.26l1.24.79c-.17-.38-.24-.71-.26-.9.58-.77,2.41-3.3,3.56-5.88,1.5.2,2.71.59,3.45,1.32.19.19.34.41.47.65m1.29.7c.68.55,1.01,1.52,1.01,2.45,0,1.04-.38,2.05-1.03,2.79-.57.64-1.33,1.05-2.24,1.22,1.49-1.5,2.38-3.35,2.38-5.35,0-.39-.05-.76-.11-1.1Z"/><path class="uuid-b0c2dcb1-6a28-40fd-8307-3eb4158ad72a" d="m7,22.39c.15.31.34.6.55.87-.17-.29-.36-.58-.55-.87Z"/><path class="uuid-b0c2dcb1-6a28-40fd-8307-3eb4158ad72a" d="m7.63,17.01c-.12.12-.24.25-.35.39-.53.7-.82,1.65-.82,2.67,0,.48.07.97.2,1.43l2.91,3.27c.64.25,1.36.4,2.19.4.08,0,.16,0,.24-.01.06.04.13.08.19.13l2.02-1.42c-.53.15-1.16.25-1.89.29-1.82-1.43-2.95-3.33-2.95-5.43,0-.59.1-1.1.28-1.54.04,0,.08-.01.11-.01v-.25c.14-.24.28-.46.48-.65.74-.74,1.94-1.13,3.45-1.33,1.16,2.58,2.99,5.12,3.57,5.88-.03.23-.12.68-.4,1.17l1.37-.97c.04-.22.04-.35.04-.36v-.17l-.1-.13c-1.16-1.52-2.51-3.6-3.42-5.53.83-.07,1.73-.09,2.67-.1.06-.36.19-.7.36-1-1.23.01-2.4.05-3.46.15-.68-1.69-.9-3.15-.2-3.85.61-.61,1-.51,1.12-.48.91.24,1.74,2.13,2.05,3.26l.13.48.91-.25s.03-.03.05-.04l-.13-.46c-.1-.36-1-3.5-2.75-3.96-.48-.13-1.24-.1-2.08.74-1.03,1.03-.81,2.81-.11,4.68-1.59.24-2.9.7-3.77,1.56-.17.17-.31.36-.44.55l-3.25-.25c.02.11.04.23.04.35,0,.23-.05.44-.12.65l1.89.14Zm.84.6c-.07.35-.12.72-.12,1.11,0,2.01.89,3.86,2.38,5.36-2.24-.43-3.27-2.28-3.27-4.01,0-.8.22-1.54.62-2.06.12-.15.25-.28.39-.4Z"/><path class="uuid-b0c2dcb1-6a28-40fd-8307-3eb4158ad72a" d="m3.85,18.72c-1.38,0-2.5-1.12-2.5-2.5s1.12-2.5,2.5-2.5,2.5,1.12,2.5,2.5-1.12,2.5-2.5,2.5Zm0-4c-.83,0-1.5.67-1.5,1.5s.67,1.5,1.5,1.5,1.5-.67,1.5-1.5-.67-1.5-1.5-1.5Z"/><path class="uuid-b0c2dcb1-6a28-40fd-8307-3eb4158ad72a" d="m36.15,17.79c-1.38,0-2.5-1.12-2.5-2.5s1.12-2.5,2.5-2.5,2.5,1.12,2.5,2.5-1.12,2.5-2.5,2.5Zm0-4c-.83,0-1.5.67-1.5,1.5s.67,1.5,1.5,1.5,1.5-.67,1.5-1.5-.67-1.5-1.5-1.5Z"/></svg>