<?xml version="1.0" encoding="UTF-8"?><svg id="uuid-f276486c-c288-4dbf-be5c-b3e52a0f7d6f" xmlns="http://www.w3.org/2000/svg" viewBox="0 0 139.44 36.58"><defs><style>.uuid-ff3b8bfd-7687-4d7b-b7d3-369d4f09693a{fill:#fec955;stroke-width:0px;}</style></defs><g id="uuid-7dff5d99-0663-4da4-a671-f4e6577757df"><path class="uuid-ff3b8bfd-7687-4d7b-b7d3-369d4f09693a" d="m80.38,10.94c.75,0-1.78.96-1.15,1.72,1.28-.89,2.51-1.17,3.55-1.17,1.28,0,2.25.42,2.61.61.76.41,1.26.59.58.59-.07,0-.15,0-.25,0-.02,0-.05,0-.07,0-1.37,0-2.7,1.64-3.54,3.3-.62,1.22-1.85,1.83-3.35,1.83-.56,0-1.16-.08-1.78-.25-.24-.07-.44-.11-.54-.11-.17,0-.04.12.64.42,1.29.57,1.55,2.11,1.28,2.11-.03,0-.07-.02-.11-.06-1.98-1.97-3.8-2.62-5.33-2.62-.82,0-1.55.18-2.18.44,3.25-3.15,8.4-1.23,10.06-3.46-1.73,1.54-7.21.59-9.61,2.42,1.05-2.38,5.44-5.66,9.18-5.77.01,0,.02,0,.03,0m0-1h-.06c-4.07.12-8.83,3.58-10.06,6.37l-.39.88-3.58,3.47,2.5-1.03-.11.24.56-.43,1.86-.76c.59-.24,1.2-.37,1.8-.37,1.52,0,3.08.78,4.62,2.32.3.29.61.36.82.36.52,0,.95-.36,1.06-.9.07-.35.01-.81-.18-1.29,1.71-.13,3.07-.98,3.77-2.36.82-1.62,1.91-2.75,2.65-2.75.14,0,.24,0,.32,0,.9,0,1.2-.44,1.29-.82.2-.82-.51-1.19-1.03-1.46-.11-.06-.24-.12-.37-.19-.32-.17-1.48-.74-3.09-.74-.45,0-.89.04-1.33.13-.13-.34-.47-.68-1.07-.68h0Z"/><path class="uuid-ff3b8bfd-7687-4d7b-b7d3-369d4f09693a" d="m69.76,1c1.52.05.15,2.32,1.89,2.81,2.69.77,1.67,3.33.22,6.65-1.55,3.56-1.97,6.53-2.08,7.53.09,0,.18.02.26.05.16-1.04,1.26-7.28,5.42-10.53.77-.6,1.64-.81,2.41-.81,1.54,0,2.65.85,1.63,1.05-2.07.42-1.9,2.65-1.9,2.65,0,0-5.97,1.89-7.53,7.66.29.13.49.42.49.76,0,.21-.08.39-.2.54.02.07.06.16.14.3.47,2.21,1.6,3.98,2.51,4.72.48.39,2.05,1.68,4.24,1.68.87,0,1.83-.2,2.87-.74-.01,0-.02,0-.03,0-.68,0-1.34-.35-1.71-.98-.54-.94-.21-2.14.73-2.68.31-.17.64-.26.97-.26.68,0,1.35.36,1.71.99.41.73.31,1.61-.19,2.22-.15.23-1.11,1.54-3.71,1.95-.09.01-.17.02-.26.03,1.09.25,2.19.37,3.23.37,1.61,0,3.08-.28,4.16-.74,2.54-1.11,3.64-3.33,2.95-4.9-.51-1.16-1.48-1.67-2.38-1.67-1.24,0-2.34.96-1.92,2.45.16-.3.44-.44.7-.44.39,0,.76.3.68.82-.1.62-.57.93-1.07.93-.74,0-1.53-.7-1.16-2.09.34-1.29,1.44-1.92,2.6-1.92,1.44,0,2.99.97,3.37,2.88.54,2.7-1.63,4.7-3.96,5.45-.86.28-1.81.42-2.8.42-1.41,0-2.92-.28-4.47-.86,1.02.67,1.81,1.41,2.09,2.15.77,2.13-.65,3.52-2.12,3.52-.48,0-.96-.15-1.37-.46-.53-.4-.68-1.17-.15-1.54.16-.11.36-.17.55-.17.33,0,.63.16.66.46.02.28-.21.43-.45.43-.16,0-.32-.07-.4-.22-.32.17.04.68.73.68.2,0,.44-.04.69-.16.73-.32,1.14-1.18.92-2.05-.31-1.23-2.09-2.76-3.99-3.74-3.12-1.62-3.98-4.48-4.37-6.56,0-.11,0-.18,0-.24-.12.14-.29.22-.47.25.41,2.05,2.07,5.86,2.67,6.68,1.13,1.52-.29,4.97-1.81,6.71-.49.56-.66,1.31-.88,2.22-.05.22-.09.33-.12.33s-.07-.11-.13-.33c-.22-.91-.38-1.65-.88-2.22-1.53-1.74-2.95-5.19-1.82-6.71.6-.81,2.26-4.62,2.67-6.67-.24-.04-.44-.18-.56-.38,0,.05,0,.15,0,.32-.39,2.08-1.25,4.94-4.38,6.57-1.9.99-3.69,2.52-4,3.75-.22.87.19,1.72.92,2.05.26.11.49.16.69.16.69,0,1.05-.51.73-.68-.08.15-.24.22-.4.22-.24,0-.47-.15-.45-.43.03-.3.33-.46.66-.46.19,0,.39.05.55.17.53.37.38,1.14-.15,1.54-.41.32-.9.46-1.38.46-1.47,0-2.9-1.39-2.13-3.52.27-.74,1.07-1.48,2.09-2.15-1.55.58-3.07.86-4.48.86-1,0-1.94-.14-2.81-.42-2.33-.75-4.51-2.75-3.97-5.46.38-1.92,1.94-2.89,3.38-2.89,1.17,0,2.27.64,2.61,1.93.38,1.4-.41,2.1-1.16,2.1-.5,0-.98-.31-1.07-.94-.08-.52.28-.82.68-.82.27,0,.55.14.7.44.42-1.49-.68-2.45-1.92-2.45-.9,0-1.87.5-2.38,1.67-.69,1.57.4,3.8,2.96,4.91,1.08.47,2.55.75,4.17.75,1.05,0,2.15-.12,3.24-.37-.09,0-.18-.02-.26-.03-2.61-.4-3.57-1.72-3.72-1.95-.5-.61-.61-1.49-.19-2.22.36-.64,1.03-.99,1.71-.99.33,0,.66.08.97.26.94.54,1.27,1.74.74,2.68-.36.64-1.03.99-1.71.99-.01,0-.02,0-.03,0,1.04.54,2,.74,2.87.74,2.2,0,3.77-1.29,4.25-1.69.91-.75,2.04-2.52,2.51-4.73.1-.17.14-.29.16-.35-.08-.13-.13-.27-.13-.43,0-.37.22-.67.54-.8-1.66-5.66-7.56-7.53-7.56-7.53,0,0,.17-2.24-1.92-2.67-1.03-.21.1-1.06,1.65-1.06.77,0,1.66.21,2.43.82,4.01,3.12,5.21,8.98,5.45,10.42.08-.03.16-.05.25-.05h0s0,0,.01,0c-.11-1.01-.53-3.97-2.08-7.51-1.45-3.32-2.47-5.88.22-6.65,1.74-.49.36-2.76,1.89-2.81h0m-.04,28.05s.02-.05.04-.14c.07-.39.12-.71.28-.96.49-.75.94-2.24.58-2.9-.2-.36-.74-2.05-.86-2.93,0-.07-.02-.11-.04-.11-.02,0-.04.03-.04.11-.12.87-.67,2.57-.86,2.93-.36.66.09,2.15.58,2.9.16.24.21.56.28.96.02.09.03.14.04.14m.06-29.05h-.02c-1.65.05-1.8,1.53-1.86,2.09-.07.69-.12.71-.31.76-1.03.29-1.74.84-2.12,1.63-.41.86-.36,1.85-.03,3.03-.26-.24-.53-.48-.81-.7-1.09-.85-2.26-1.03-3.05-1.03-1.43,0-2.93.57-3.04,1.66-.05.51.23,1.18,1.19,1.37,1.14.23,1.13,1.39,1.12,1.62l-.04.77.74.24s4.98,1.65,6.7,6.24c-.24.32-.38.71-.38,1.14,0,.13.02.25.05.38l-.02.03-.03.15c-.42,1.99-1.42,3.55-2.17,4.16-.44.36-1.78,1.46-3.62,1.46-.13,0-.26,0-.4-.02.05-.07.09-.14.14-.22.81-1.42.31-3.24-1.11-4.05-.45-.25-.95-.39-1.47-.39-.66,0-1.28.22-1.79.6-.45-1.59-1.84-2.61-3.56-2.61-1.74,0-3.85,1.15-4.36,3.69-.66,3.3,1.95,5.74,4.65,6.61.96.31,2.01.47,3.11.47.48,0,.97-.03,1.47-.09,0,.01,0,.02-.01.03-.46,1.28-.35,2.5.32,3.45.62.88,1.65,1.41,2.74,1.41.73,0,1.41-.23,1.98-.67.56-.42.89-1.07.87-1.73-.01-.58-.29-1.09-.76-1.42-.32-.22-.72-.35-1.12-.35-.48,0-.9.17-1.21.45,0-.02,0-.04.01-.05.19-.73,1.54-2.1,3.49-3.11.18-.1.36-.19.53-.3-.55,2.15.87,5.28,2.34,6.95.32.36.45.93.64,1.72l.02.07c.06.27.26,1.09,1.1,1.09s1.03-.82,1.1-1.1l.02-.07c.19-.79.32-1.36.64-1.72,1.44-1.64,2.83-4.69,2.36-6.84.13.08.27.15.41.22,1.94,1.01,3.3,2.37,3.48,3.1,0,.02,0,.03.01.05-.3-.28-.72-.45-1.2-.45-.4,0-.8.12-1.12.35-.47.33-.74.84-.76,1.42-.01.66.31,1.31.88,1.74.57.43,1.25.67,1.98.67,1.09,0,2.12-.53,2.74-1.41.67-.95.78-2.18.33-3.45,0-.01,0-.03-.01-.04.49.06.98.09,1.46.09,1.1,0,2.14-.16,3.11-.47,2.69-.86,5.29-3.3,4.63-6.6-.51-2.53-2.61-3.69-4.35-3.69s-3.1,1.02-3.55,2.6c-.51-.38-1.13-.6-1.78-.6-.51,0-1.02.13-1.46.39-1.42.81-1.91,2.62-1.11,4.04.04.07.09.15.14.22-.13.01-.26.02-.39.02-1.83,0-3.17-1.1-3.61-1.46-.75-.61-1.74-2.18-2.16-4.16v-.05c.05-.19.08-.38.08-.58,0-.39-.13-.76-.35-1.07,1.63-4.71,6.64-6.38,6.7-6.39l.75-.24-.06-.78c-.01-.22-.02-1.37,1.1-1.6.96-.19,1.24-.86,1.19-1.37-.11-1.09-1.6-1.66-3.02-1.66-.78,0-1.94.18-3.02,1.02-.25.2-.5.41-.73.63.29-1.11.31-2.04-.08-2.86-.37-.79-1.08-1.34-2.12-1.63-.19-.05-.24-.07-.31-.76-.06-.56-.21-2.03-1.82-2.09h-.02Zm-12.2,25.89c-1.1-.08-2.1-.29-2.87-.63-1.17-.51-2.05-1.32-2.4-2.23-.2-.5-.21-.97-.04-1.36.43-.97,1.17-1.07,1.47-1.07.21,0,.41.05.58.13-.25.1-.48.26-.66.47-.32.38-.45.87-.37,1.39.16,1.04,1.01,1.78,2.06,1.78.37,0,.73-.09,1.04-.26.1.38.28.74.54,1.06.11.16.32.43.65.73h0Zm27.43-5.11c.16-.08.36-.13.57-.13.3,0,1.03.1,1.46,1.07.17.39.16.86-.04,1.36-.35.91-1.23,1.72-2.39,2.23-.77.34-1.77.55-2.86.63.33-.3.54-.56.65-.72.25-.32.43-.68.53-1.06.32.17.67.26,1.04.26,1.05,0,1.9-.73,2.06-1.78.08-.51-.05-1.01-.37-1.38-.18-.21-.4-.37-.65-.47h0Zm-15.29,5.25c-.04-.23-.05-.42-.02-.52,0,0,0-.02.02-.03,0,.02.02.03.03.05.03.09.02.27-.02.5h0Z"/><path class="uuid-ff3b8bfd-7687-4d7b-b7d3-369d4f09693a" d="m75.57,19.12c1.09,0,2.1,1.09,2.2,1.61.17.54.09,1.07-.12,1.54-.32.69-.97,1.16-1.72,1.37-.28.06-.57.1-.86.1-1.32,0-2.64-.66-3.36-2.02-.33-.57-.58-1.51-.6-1.82.68,1.82,1.8,2.36,2.35,2.46.08.01.17.02.26.02.84,0,1.75-.68.98-1.92-.14-.18-.52-.53-.36-.75.39-.41.82-.57,1.24-.57m-6.12-6.5l.66,7.35c.04.47.34,1.55.73,2.23.83,1.57,2.41,2.52,4.23,2.52.36,0,.73-.04,1.08-.12,1.13-.31,1.99-1.01,2.41-1.93.33-.73.39-1.49.18-2.21-.23-.98-1.62-2.35-3.16-2.35-.73,0-1.41.31-1.96.88l-.05.05-.04.06c-.39.55-.28,1.18.33,1.88l.03.03c.11.2.11.29.11.29,0,0,0,0,0,0-.02,0-.13.05-.27.05-.03,0-.06,0-.09,0-.08-.02-.98-.23-1.58-1.83l-2.6-6.91h0Z"/><path class="uuid-ff3b8bfd-7687-4d7b-b7d3-369d4f09693a" d="m58.95,10.88s.02,0,.03,0c3.75.11,8.15,3.39,9.2,5.78-2.41-1.83-7.9-.88-9.64-2.42,1.67,2.23,6.83.31,10.09,3.46-.64-.26-1.37-.44-2.19-.44-1.54,0-3.36.64-5.35,2.62-.04.04-.08.06-.11.06-.27,0,0-1.54,1.28-2.11.68-.3.81-.42.64-.42-.1,0-.3.04-.54.11-.62.17-1.22.25-1.79.25-1.51,0-2.74-.61-3.36-1.83-.84-1.66-2.17-3.3-3.55-3.3-.02,0-.05,0-.07,0-.1,0-.18,0-.25,0-.68,0-.18-.18.58-.6.36-.2,1.34-.61,2.62-.61,1.04,0,2.28.28,3.56,1.17.63-.76-1.9-1.72-1.15-1.72m0-1h0c-.6,0-.94.34-1.07.68-.44-.09-.88-.13-1.33-.13-1.61,0-2.78.56-3.09.74-.13.07-.26.14-.37.19-.52.27-1.23.64-1.03,1.46.09.37.39.82,1.29.82.08,0,.18,0,.29,0h0c.77,0,1.86,1.13,2.69,2.75.7,1.39,2.06,2.23,3.78,2.36-.19.48-.25.94-.18,1.29.11.54.54.9,1.07.9.21,0,.52-.06.82-.36,1.55-1.54,3.11-2.33,4.64-2.33.61,0,1.21.12,1.81.37l1.86.76.55.42-.11-.24,2.5,1.03-3.59-3.47-.39-.88c-1.24-2.79-6.01-6.25-10.09-6.37h-.01s-.04,0-.04,0h0Z"/><path class="uuid-ff3b8bfd-7687-4d7b-b7d3-369d4f09693a" d="m63.77,19.07c.42,0,.85.16,1.24.57.16.22-.23.58-.36.75-.77,1.24.14,1.92.99,1.92.09,0,.17,0,.26-.02.55-.11,1.67-.65,2.35-2.46-.03.31-.27,1.25-.6,1.83-.72,1.36-2.05,2.02-3.37,2.02-.29,0-.58-.03-.86-.1-.75-.21-1.41-.68-1.73-1.37-.21-.46-.29-1-.12-1.54.09-.52,1.11-1.61,2.2-1.61m6.14-6.49l-2.59,6.9c-.6,1.6-1.51,1.82-1.61,1.84,0,0-.04,0-.07,0-.14,0-.25-.05-.28-.08,0,0,.02-.1.12-.26l.03-.03c.61-.7.73-1.34.33-1.89l-.04-.06-.05-.05c-.55-.58-1.23-.88-1.97-.88-1.55,0-2.93,1.38-3.17,2.35-.22.72-.15,1.48.18,2.21.42.92,1.29,1.62,2.37,1.92.4.09.76.13,1.13.13,1.82,0,3.41-.96,4.25-2.56.37-.65.67-1.73.72-2.2l.66-7.34h0Z"/><path class="uuid-ff3b8bfd-7687-4d7b-b7d3-369d4f09693a" d="m109.8,14.7c1.75,0,3.25.89,4.16,2.44,1.9,3.25-.12,6.8-2.91,8.79-2.36,1.69-5.57,2.63-9.27,2.63-2.08,0-4.31-.3-6.62-.92-1.26-.31-2.49-.72-3.57-1.2-.48-.19-.96-.4-1.44-.62.21.08.42.15.63.22-.24-.13-.47-.26-.69-.39-1.05,1.22-2.09,1.86-3.15,1.91.21-.28,2.84-1.3,2.44-4.4,1.62,2.44,4.93,4.74,12.07,4.74.61,0,1.25-.02,1.91-.05,3.4-.43,5.95-1.75,7.67-3.45,2.93-2.89,3.02-6.42,1.39-8.14-.72-.76-1.68-1.24-2.76-1.24-.24,0-.49.02-.74.07-1.23.25-2.63,1.15-1.8,2.12.14.17.42.25.71.25.18,0,.38-.03.55-.1.52-.19.92-.28,1.28-.28.2,0,.39.03.59.08.86.24,1.47,1.18,1.14,1.83-.06.12-.14.17-.21.17-.16,0-.27-.24-.05-.33.02-.42-.44-.62-.79-.62-.02,0-.04,0-.06,0-.56.04-.92.47-1.31.96-.39.5-.9.72-1.41.72s-1.06-.24-1.45-.68c-1.52-1.72.46-4.04,2.72-4.45.32-.06.64-.09.95-.09m0-1c-.37,0-.75.03-1.13.1-1.78.32-3.38,1.58-3.9,3.07-.38,1.08-.16,2.15.61,3.02.57.65,1.37,1.02,2.2,1.02s1.64-.39,2.2-1.11c.09-.12.21-.27.32-.39.17.44.6.75,1.09.75s.88-.27,1.11-.72c.09-.17.14-.35.17-.53.08,1.43-.56,3.2-2.14,4.76-1.72,1.7-4.16,2.79-7.06,3.16-.62.03-1.24.05-1.82.05-5.56,0-9.34-1.44-11.23-4.29l-2.38-3.57.55,4.26c.25,1.94-1.02,2.77-1.7,3.22-.24.16-.42.27-.56.47l-1.21,1.68,2.07-.09c1.13-.05,2.2-.58,3.25-1.6.32.14.65.28.98.41,1.06.48,2.32.91,3.7,1.25,2.33.63,4.65.95,6.86.95,3.88,0,7.28-.98,9.85-2.82,3.09-2.21,5.4-6.31,3.19-10.11-1.09-1.87-2.92-2.94-5.02-2.94h0Zm-1.4,2.61c.2-.1.45-.18.72-.24.18-.04.36-.05.54-.05.58,0,1.06.18,1.43.42-.18-.1-.37-.18-.57-.23-.29-.08-.57-.12-.86-.12-.38,0-.79.07-1.27.22h0Z"/><path class="uuid-ff3b8bfd-7687-4d7b-b7d3-369d4f09693a" d="m122.64,14.74h0,0m0,0h0s0,0,0,0c0,0,0,0,0,0m.02-1l-.08,2h.03s.03,0,.03,0l.16-1.99h-.07s-.07-.01-.07-.01h0Z"/><path class="uuid-ff3b8bfd-7687-4d7b-b7d3-369d4f09693a" d="m109.56,11.98c3.48,0,6.75,1.56,8.84,3.53,1.7-1.32,3.59-1.47,4.58-1.47.03,0,.06,0,.08,0,0,0,.02,0,.02,0,.95,0,1.77-.5,3.02-.5.22,0,.46.02.72.05,2.54.38,2.96,3.9,2.75,5.91-1.2-1.78-3.97-.87-5.28-2.62-.47-.61-.84-1.27-1.31-1.8.21.02.43.07.64.12.94.23,1.93.62,2.54,1.4,0,0,0,0,0,0,0,0,0,0,0,0-.53-.86-1.53-1.43-2.5-1.69-.34-.09-.69-.15-1.04-.19.22,0,.43,0,.64.03,1.69.16,3.4.81,4.44,2.21,0,0,0,0,0,0,0,0,0,0,0-.01-.97-1.52-2.55-2.3-4.43-2.47-.11,0-.36-.04-.71-.04-.91,0-2.48.18-3.92,1.31,1.45,1.47,2.25,3.12,2,4.52-.24.19-.83.5-1.18.5-.13,0-.22-.04-.26-.14-.21-1.58-.73-2.91-1.47-4-1.28,1.63-2.47,5.38.32,7.79.45.4,1.15.62,1.76.62.65,0,1.19-.25,1.24-.8-1.61-.7-.71-2.42.82-2.42.39,0,.82.11,1.26.38.99.65,1.58,2.59.22,4.18-.67.78-1.64,1.07-2.57,1.07-.46,0-.91-.07-1.32-.18,1.01.51,2.26.86,3.58.86,2.02,0,4.25-.8,6.16-3.05,1.35-1.58.39-2.95-.62-3.21-.11-.35.44-1,1.28-1,.43,0,.94.17,1.48.62.01.02.02.03.03.04.09,1.85-1.11,3.59-1.91,4.2-.12.08-.25.17-.37.22.1-.03.23-.11.37-.22,1.15-.78,2.23-2.86,2.17-4.24.25-.13.5-.18.74-.18.93,0,1.67.84,1.62,1.24-1.06,1.51-2.47,2.34-3.12,2.74.69-.28,2.03-.98,3.39-2.68.08-.03.17-.07.31-.11.33-.11.64-.17.94-.17,1.41,0,2.41,1.14,2.32,2.03,0,0,0,0,0,0,.34.34.54.78.57,1.26.03.44-.32,1.29-1.05,1.46-.1.02-.2.04-.29.04-.55,0-.89-.39-.89-.73,0-.49.38-.77.67-.77.21,0,.37.14.32.45.03.01.07.02.1.02.3,0,.58-.53.51-.89-.16-.99-1.09-1.31-1.81-1.31-.03,0-.06,0-.09,0-.08,0-.16.01-.25.02-.05,0-.09.02-.14.03h0c-.55.08-1.22.29-2.06.7-2.16,1.06-4.42,3.64-10.24,3.9-.05,0-.09,0-.14,0-1.1,0-3.49-.49-5.22-2.18-.07-.06-.13-.12-.2-.18-.03-.04-.07-.07-.11-.11-2.37-2.38-2.83-6.67-.07-9.73.02-.02.04-.03.05-.05-1.89-2.53-5.01-3.68-8.06-3.68-2.75,0-5.45.94-7.11,2.63,0,0-1.67,2.04-.32,4.96.58,1.26,1.4,1.28,2.18,1.6.27.08.55.13.84.13.02,0,.04,0,.06,0,.58,0,1.13-.18,1.44-.51.16-.17.26-.37.26-.58,0-.07,0-.15-.02-.22-.06.16-.22.29-.44.34-.06.01-.12.02-.18.02-.35,0-.65-.21-.72-.45-.09-.32.17-.55.49-.61.05,0,.1-.01.14-.01.29,0,.54.14.65.32.02,0,.04.02.04.03.06.12.13.26.15.4.02.15.02.3-.03.45-.09.29-.34.54-.68.71-.32.16-.7.24-1.09.24-.01,0-.03,0-.04,0,.36.07.74.11,1.11.11h0c-.72.47-1.52.68-2.29.68-1.73,0-3.34-1.02-3.7-2.3-1.1,2.21-2.85,3.16-4.34,3.16-.71,0-1.35-.22-1.83-.61.13.01.26.02.38.02,2.03,0,3.23-1.53,4.18-3.43.59-1.18,1.37-2.71,2.52-3.94.09-.11.19-.22.31-.34,2.52-2.48,5.39-3.44,8.12-3.44m0-1c-3.29,0-6.34,1.29-8.82,3.73-.15.15-.27.28-.38.41-1.24,1.33-2.09,3.02-2.65,4.14-1.01,2.02-1.99,2.88-3.29,2.88-.1,0-.19,0-.29-.01l-3.23-.29,2.51,2.06c.66.54,1.54.84,2.47.84,1.32,0,3.02-.63,4.34-2.31.9.88,2.26,1.45,3.69,1.45,1.02,0,2-.29,2.84-.84l2.81-1.84h-1.64c.04-.21.04-.42,0-.65-.04-.27-.15-.5-.22-.65h0s-.02-.06-.02-.06c-.06-.12-.14-.22-.23-.31-.32-.37-.82-.59-1.35-.59-.1,0-.2,0-.3.02-.5.09-.91.35-1.15.73-.21.34-.27.75-.15,1.15,0,.01,0,.03.01.04-.15-.06-.29-.11-.44-.16-.56-.19-.84-.28-1.13-.9-.98-2.13,0-3.64.17-3.89,1.44-1.43,3.81-2.29,6.36-2.29,2.75,0,5.16.97,6.75,2.67-2.66,3.52-1.86,7.99.6,10.48.03.03.06.06.08.08l.02.02.04.04c.07.07.14.13.21.19,1.99,1.93,4.64,2.45,5.9,2.45.07,0,.13,0,.19,0,4.71-.21,7.27-1.88,9.14-3.1.56-.36,1.04-.68,1.5-.91.39-.19.76-.34,1.09-.45l.75-.17h.06s.09-.02.15-.02h.04s0,0,0,0c-.44.29-.78.8-.79,1.48.02.86.74,1.75,1.89,1.75.17,0,.35-.02.52-.06,1.28-.3,1.88-1.65,1.82-2.5-.03-.56-.23-1.1-.57-1.56-.06-.51-.31-1.06-.73-1.52-.65-.72-1.59-1.14-2.59-1.14-.3,0-.61.04-.91.11-.04-.06-.09-.12-.14-.17-.54-.6-1.32-.96-2.08-.96-.27,0-.53.04-.78.12-.4-.27-.77-.41-1.1-.49l.04-.35c.33-3.07-.66-6.57-3.6-7.01-.29-.04-.58-.06-.87-.06-.8,0-1.42.16-1.97.31-.39.1-.73.19-1.05.19h-.11c-1.67,0-3.21.41-4.5,1.21-2.47-2.06-5.74-3.27-8.92-3.27h0Zm10.62,5.01c.64-.31,1.27-.45,1.82-.5l.23.27c.23.27.46.59.69.94.18.27.37.54.57.81.87,1.16,2.18,1.44,3.24,1.66,1.01.21,1.65.37,2,.91l.05.07c-.34.16-.64.4-.86.7-.31.42-.41.92-.27,1.35l.17.52.53.14c.19.05.42.22.51.49.12.39-.15.82-.4,1.11-1.47,1.72-3.05,2.39-4.34,2.61,0,0,0,0,0,0,.81-.94,1.17-2.1,1-3.25-.14-1.02-.68-1.92-1.43-2.41-.6-.36-1.21-.54-1.81-.54-.11,0-.23,0-.34.02h.02s.07-.39.07-.39c.24-1.39-.28-2.97-1.46-4.48h0Zm-.77,8.02c-.26-.06-.51-.18-.67-.32-1.68-1.45-1.56-3.45-1.01-4.93.24.63.41,1.3.5,2.02v.1s.04.09.04.09c.17.51.63.83,1.2.83.1,0,.2,0,.3-.03-.25.29-.43.64-.51,1.02-.09.43-.04.85.14,1.23h0Z"/><path class="uuid-ff3b8bfd-7687-4d7b-b7d3-369d4f09693a" d="m88.21,15.63s.06.08.12.29c.2.73,1.29,1.16,2.3,1.32,1.01.17,1.61,1.12,1.66,2.38,0,.19.03.33.06.33.02,0,.06-.12.09-.42.07-.65.63-1.02.82-1.02.05,0,.08.03.04.1-.57,1.19-.37,3.25.35,4.21.07.09.09.13.06.13-.03,0-.13-.06-.28-.14-2.16-1.17-2.03-4.11-3.45-4.61,1.08.64,1.25,3.13,2.41,4.06-1.18-.23-3.38-1.4-4.06-3.3-.02-.07-.02-.1,0-.1.1,0,.57.5.88.5.08,0,.14-.03.19-.1-1.5-1.14-1.38-2.68-1.31-3.07.06-.31.08-.55.13-.55m0-1c-.88,0-1.03.87-1.07,1.15l-.04.21c-.13.66-.07,1.54.33,2.39-.1.19-.2.5-.05.9.79,2.23,3.29,3.65,4.81,3.95l.11.02c.2.16.41.3.65.43l.09.05c.19.1.38.21.66.21h.62l.14-.26,1.74.34-1.49-1.19c-.02-.2-.11-.41-.27-.62-.47-.63-.67-2.29-.24-3.18.16-.34.15-.73-.05-1.04-.19-.31-.53-.49-.9-.49-.16,0-.34.04-.51.11-.44-.73-1.11-1.22-1.95-1.36-.93-.15-1.43-.48-1.5-.62-.07-.24-.28-1.01-1.08-1.01h0Z"/><path class="uuid-ff3b8bfd-7687-4d7b-b7d3-369d4f09693a" d="m112.83,19.78c-1.08,2.16-2.49,3.98-3.94,5.08-1.07.81-2.92,1.55-4.76,1.55-1.73,0-3.47-.65-4.58-2.5,0,0,0-.01-.01-.02-.03-.05-.03-.12,0-.17,0-.01.01-.03.03-.03,0,0,.01,0,.02,0,1.37.72,2.67,1.16,4.13,1.16s3.16-.47,5.21-1.61c1.47-.82,2.81-2.02,3.92-3.47m-.79-.61c-1.05,1.37-2.3,2.48-3.61,3.21-1.82,1.01-3.32,1.49-4.72,1.49-1.15,0-2.28-.32-3.67-1.05l-.22-.11h-.26s-.6,0-.6,0l-.31.55c-.19.34-.18.77,0,1.12l.03.06.02.03c1.15,1.9,3.08,2.95,5.42,2.95s4.3-.95,5.37-1.76c1.57-1.19,3.07-3.12,4.23-5.43l-1.69-1.06h0Z"/><path class="uuid-ff3b8bfd-7687-4d7b-b7d3-369d4f09693a" d="m29.6,14.71c.31,0,.63.03.95.09,2.25.4,4.24,2.73,2.72,4.44-.39.44-.92.68-1.45.68s-1.02-.23-1.41-.72c-.39-.49-.74-.92-1.3-.96-.02,0-.04,0-.06,0-.35,0-.81.19-.79.62.23.09.11.33-.05.33-.07,0-.15-.05-.21-.17-.33-.65.28-1.59,1.14-1.83.2-.05.39-.08.59-.08.36,0,.75.09,1.27.28.17.06.36.1.55.1.29,0,.57-.08.71-.25.83-.98-.57-1.88-1.8-2.12-.25-.05-.5-.07-.73-.07-1.08,0-2.04.48-2.76,1.24-1.62,1.72-1.53,5.24,1.39,8.13,1.72,1.7,4.27,3.02,7.66,3.45.67.03,1.3.05,1.91.05,7.13,0,10.43-2.3,12.05-4.74-.4,3.1,2.23,4.12,2.44,4.4-1.06-.05-2.1-.69-3.15-1.91-.22.14-.45.27-.69.39.21-.07.42-.15.63-.22-.48.22-.96.43-1.44.62-1.08.49-2.3.89-3.56,1.2-2.31.63-4.54.92-6.62.92-3.69,0-6.9-.94-9.26-2.63-2.78-1.99-4.8-5.53-2.9-8.79.9-1.55,2.4-2.44,4.15-2.44m0-1c-2.1,0-3.93,1.07-5.01,2.94-2.21,3.79.1,7.9,3.18,10.1,2.57,1.84,5.97,2.82,9.84,2.82,2.22,0,4.53-.32,6.88-.96,1.36-.34,2.61-.76,3.71-1.26.31-.12.62-.26.94-.4,1.05,1.02,2.12,1.55,3.25,1.6l2.06.09-1.21-1.68c-.14-.2-.32-.31-.56-.47-.68-.45-1.94-1.28-1.69-3.22l.55-4.26-2.38,3.58c-1.89,2.85-5.67,4.29-11.22,4.29-.58,0-1.2-.02-1.82-.05-2.89-.37-5.33-1.46-7.05-3.16-1.58-1.56-2.21-3.32-2.14-4.75.03.18.09.36.17.52.23.45.64.72,1.1.72.49,0,.92-.3,1.09-.74.11.12.23.27.32.38.56.71,1.34,1.11,2.2,1.11s1.62-.37,2.19-1.02c.77-.87.98-1.94.61-3.02-.52-1.49-2.12-2.75-3.9-3.07-.38-.07-.76-.1-1.13-.1h0Zm-1.27,2.73c.37-.23.84-.41,1.41-.41.18,0,.36.02.54.05.27.05.51.14.71.24-.48-.15-.88-.22-1.26-.22-.29,0-.57.04-.86.12-.19.05-.37.13-.55.22h0Z"/><path class="uuid-ff3b8bfd-7687-4d7b-b7d3-369d4f09693a" d="m29.84,12c2.73,0,5.59.96,8.11,3.44.12.12.22.23.31.34,1.14,1.23,1.92,2.76,2.51,3.94.95,1.9,2.15,3.43,4.18,3.43.12,0,.25,0,.38-.02-.48.4-1.13.61-1.83.61-1.48,0-3.23-.95-4.33-3.16-.36,1.28-1.97,2.3-3.7,2.3-.77,0-1.57-.2-2.29-.68h0c.38,0,.75-.04,1.11-.11-.01,0-.03,0-.04,0-.39,0-.77-.07-1.09-.24-.33-.17-.58-.42-.68-.71-.06-.15-.06-.3-.03-.45.02-.14.09-.28.15-.4,0-.02.02-.03.04-.03.11-.19.36-.32.65-.32.05,0,.09,0,.14.01.32.06.58.29.49.61-.07.23-.37.45-.72.45-.06,0-.12,0-.18-.02-.22-.04-.37-.18-.44-.34-.02.07-.02.15-.02.22,0,.21.1.41.26.58.31.33.86.51,1.44.51.02,0,.04,0,.06,0,.28,0,.56-.05.83-.13.78-.32,1.6-.33,2.18-1.59,1.34-2.92-.32-4.96-.32-4.96-1.66-1.69-4.35-2.63-7.1-2.63-3.04,0-6.16,1.14-8.05,3.67.02.02.04.03.05.05,2.76,3.06,2.3,7.34-.07,9.72-.03.04-.07.07-.11.11-.06.06-.13.12-.2.18-1.73,1.69-4.11,2.18-5.21,2.18-.05,0-.1,0-.14,0-5.82-.26-8.07-2.84-10.23-3.9-.84-.41-1.51-.62-2.06-.71h0s-.09-.01-.14-.02c-.09-.01-.17-.02-.25-.02-.03,0-.06,0-.09,0-.72,0-1.66.31-1.81,1.31-.06.36.21.89.51.89.03,0,.06,0,.1-.02-.05-.31.11-.45.32-.45.29,0,.66.27.66.77,0,.34-.34.73-.89.73-.09,0-.19-.01-.29-.04-.73-.17-1.08-1.03-1.05-1.46.03-.48.24-.92.57-1.25,0,0,0,0,0,0-.09-.88.91-2.02,2.32-2.02.3,0,.61.05.94.17.13.05.23.08.3.11,1.36,1.7,2.7,2.4,3.38,2.68-.65-.41-2.06-1.24-3.12-2.74-.05-.4.69-1.24,1.62-1.24.24,0,.49.05.74.18-.05,1.38,1.02,3.46,2.17,4.24.14.1.26.18.37.22-.12-.05-.25-.13-.37-.22-.8-.61-1.99-2.35-1.9-4.2.01-.01.02-.02.03-.04.54-.46,1.04-.62,1.47-.62.85,0,1.39.64,1.28,1-1.01.26-1.96,1.63-.61,3.21,1.91,2.25,4.14,3.05,6.16,3.05,1.33,0,2.57-.35,3.58-.86-.41.11-.86.18-1.32.18-.94,0-1.9-.29-2.57-1.07-1.36-1.59-.77-3.53.22-4.18.44-.27.87-.38,1.26-.38,1.53,0,2.43,1.72.82,2.42.05.55.59.8,1.24.8s1.31-.22,1.76-.62c2.79-2.41,1.6-6.16.32-7.79-.73,1.09-1.26,2.41-1.47,4-.03.1-.13.14-.26.14-.35,0-.94-.31-1.18-.5-.24-1.4.55-3.05,2-4.52-1.44-1.13-3.01-1.31-3.92-1.31-.35,0-.6.03-.71.04-1.88.17-3.45.95-4.43,2.47,0,0,0,.01,0,.01,0,0,0,0,0,0,1.04-1.39,2.74-2.05,4.43-2.21.21-.02.43-.03.65-.03h0c-.35.04-.7.1-1.04.19-.96.26-1.96.83-2.49,1.69,0,0,0,0,0,0,0,0,0,0,0,0,.61-.79,1.59-1.17,2.53-1.4.21-.05.42-.09.64-.12-.46.53-.84,1.19-1.3,1.8-1.31,1.74-4.08.84-5.27,2.62-.21-2.01.2-5.53,2.74-5.91.26-.04.49-.05.72-.05,1.25,0,2.07.5,3.02.5,0,0,.02,0,.02,0,.03,0,.05,0,.08,0,.98,0,2.88.16,4.57,1.47,2.08-1.97,5.35-3.53,8.83-3.53m0-1s0,0,0,0c-3.17,0-6.44,1.21-8.9,3.26-1.29-.79-2.83-1.2-4.5-1.2h-.09s0,0,0,0c-.33,0-.67-.09-1.06-.19-.52-.14-1.17-.31-1.97-.31-.28,0-.57.02-.86.06-2.93.44-3.92,3.94-3.59,7l.04.35c-.33.08-.7.22-1.1.49-.25-.08-.51-.12-.78-.12-.77,0-1.54.36-2.08.96-.05.06-.1.11-.14.17-.3-.07-.61-.11-.91-.11-.99,0-1.93.41-2.58,1.14-.41.45-.66.98-.72,1.51-.34.46-.55,1.01-.58,1.57-.06.85.54,2.2,1.82,2.5.17.04.35.06.52.06,1.15,0,1.88-.89,1.89-1.71-.01-.7-.35-1.22-.8-1.51h.06s.1,0,.16.02h.03s.76.18.76.18c.33.11.69.26,1.08.45.46.23.94.54,1.5.91,1.87,1.22,4.42,2.89,9.13,3.1.06,0,.12,0,.19,0,1.26,0,3.9-.52,5.89-2.45.07-.06.14-.13.21-.19l.02-.02.02-.02s.07-.07.1-.1c2.45-2.48,3.25-6.95.6-10.47,1.59-1.71,4-2.67,6.74-2.67,2.54,0,4.91.85,6.35,2.29.16.22,1.15,1.74.17,3.88-.29.62-.57.71-1.13.9-.15.05-.29.1-.44.15,0-.01,0-.02,0-.03.12-.4.06-.81-.15-1.15-.23-.38-.64-.64-1.13-.73-.12-.02-.22-.03-.32-.03-.54,0-1.04.23-1.36.6-.09.09-.17.19-.23.3h0s-.02.05-.02.05c-.07.15-.18.37-.22.66-.03.22-.03.44,0,.64h-1.63l2.8,1.84c.84.55,1.82.84,2.84.84,1.43,0,2.79-.57,3.69-1.45,1.32,1.67,3.02,2.31,4.34,2.31.93,0,1.81-.3,2.47-.84l2.51-2.06-3.23.29c-.1,0-.2.01-.29.01-1.29,0-2.27-.86-3.28-2.88-.56-1.12-1.4-2.8-2.67-4.17-.07-.09-.19-.22-.34-.37-2.48-2.44-5.52-3.72-8.81-3.72h0Zm-19.2,9.15l.05-.07c.36-.53.99-.69,2-.91,1.06-.22,2.37-.5,3.24-1.67.2-.26.39-.53.57-.8.23-.35.46-.67.69-.94l.23-.27c.54.05,1.18.19,1.81.5-1.17,1.5-1.7,3.09-1.46,4.47l.07.38h.02c-.11,0-.22,0-.34,0-.61,0-1.21.18-1.78.52-.78.52-1.32,1.42-1.46,2.43-.16,1.16.19,2.31,1,3.25,0,0,0,0,0,0-1.29-.22-2.87-.89-4.34-2.61-.25-.29-.52-.72-.4-1.11.08-.26.32-.44.5-.48l.53-.14.17-.52c.14-.44.04-.93-.27-1.35-.22-.29-.51-.53-.86-.7h0Zm9.3,1.65c.57,0,1.03-.32,1.2-.83l.03-.09v-.1c.11-.71.27-1.39.51-2.01.55,1.48.66,3.48-1,4.92-.16.14-.41.26-.67.32.18-.38.23-.8.14-1.22-.08-.38-.26-.73-.51-1.02.1.02.2.03.3.03h0Z"/><path class="uuid-ff3b8bfd-7687-4d7b-b7d3-369d4f09693a" d="m51.17,15.64s.07.23.13.55c.07.39.19,1.93-1.31,3.07.05.07.11.1.19.1.31,0,.78-.5.88-.5.02,0,.03.03,0,.1-.68,1.9-2.88,3.07-4.06,3.3,1.16-.92,1.33-3.41,2.41-4.06-1.42.5-1.29,3.44-3.45,4.61-.15.08-.25.14-.28.14-.02,0,0-.04.06-.13.72-.96.91-3.02.34-4.21-.03-.07,0-.1.04-.1.18,0,.75.37.81,1.02.03.31.06.42.09.42.03,0,.05-.14.06-.33.06-1.27.66-2.21,1.66-2.38,1.01-.17,2.09-.6,2.29-1.32.06-.2.09-.29.12-.28m0-1c-.8,0-1.01.76-1.08,1.02-.06.13-.57.45-1.5.61-.84.14-1.52.62-1.95,1.36-.17-.07-.34-.11-.5-.11-.37,0-.71.18-.9.49-.19.31-.21.7-.05,1.04.43.9.23,2.55-.24,3.18-.15.21-.24.41-.27.62l-1.49,1.19,1.74-.34.13.26h.63c.28,0,.47-.1.66-.2l.09-.05c.24-.13.46-.27.65-.43l.11-.02c1.52-.3,4.01-1.72,4.81-3.95.14-.4.05-.71-.05-.9.4-.86.46-1.73.33-2.39l-.04-.21c-.05-.28-.2-1.15-1.07-1.15h0Z"/><path class="uuid-ff3b8bfd-7687-4d7b-b7d3-369d4f09693a" d="m26.58,19.79c1.11,1.45,2.44,2.65,3.92,3.47,2.04,1.14,3.7,1.61,5.2,1.61s2.76-.44,4.12-1.16c0,0,.01,0,.02,0,.01,0,.02.01.03.03.02.05.02.12,0,.17,0,0,0,.01-.01.02-1.11,1.85-2.85,2.5-4.58,2.5-1.85,0-3.69-.74-4.76-1.55-1.45-1.1-2.85-2.92-3.94-5.08m.79-.61l-1.69,1.06c1.16,2.31,2.66,4.24,4.22,5.42,1.07.81,3.11,1.76,5.36,1.76s4.26-1.05,5.41-2.95l.02-.02.04-.07c.19-.35.19-.78,0-1.12l-.28-.52-.62-.03h-.25l-.24.12c-1.38.72-2.51,1.05-3.66,1.05-1.4,0-2.89-.47-4.71-1.48-1.31-.73-2.56-1.84-3.61-3.21h0Z"/></g></svg>