<?xml version="1.0" encoding="UTF-8"?><svg id="Layer_1" xmlns="http://www.w3.org/2000/svg" viewBox="0 0 40 40"><defs><style>.cls-1{fill:#fff;}.cls-1,.cls-2{stroke:#000;stroke-miterlimit:10;}.cls-2{fill:none;}</style></defs><circle class="cls-2" cx="20" cy="20" r="14"/><rect class="cls-2" x="11" y="11" width="18" height="18"/><rect class="cls-2" x="15.76" y="15.76" width="8.49" height="8.49" transform="translate(20 -8.28) rotate(45)"/><g id="_Radial_Repeat_"><line class="cls-2" x1="20" y1="32.93" x2="20" y2="29.21"/><polygon class="cls-1" points="20 30.45 21.67 27.55 18.33 27.55 20 30.45"/></g><g id="_Radial_Repeat_-2"><line class="cls-2" x1="12.4" y1="30.46" x2="14.59" y2="27.45"/><polygon class="cls-1" points="13.86 28.45 16.91 27.09 14.21 25.13 13.86 28.45"/></g><g id="_Radial_Repeat_-3"><line class="cls-2" x1="7.7" y1="23.99" x2="11.25" y2="22.84"/><polygon class="cls-1" points="10.06 23.23 13.34 23.92 12.3 20.74 10.06 23.23"/></g><g id="_Radial_Repeat_-4"><line class="cls-2" x1="7.7" y1="16" x2="11.25" y2="17.16"/><polygon class="cls-1" points="10.06 16.77 12.3 19.26 13.34 16.08 10.06 16.77"/></g><g id="_Radial_Repeat_-5"><line class="cls-2" x1="12.4" y1="9.54" x2="14.59" y2="12.55"/><polygon class="cls-1" points="13.86 11.55 14.21 14.87 16.91 12.91 13.86 11.55"/></g><g id="_Radial_Repeat_-6"><line class="cls-2" x1="20" y1="7.07" x2="20" y2="10.79"/><polygon class="cls-1" points="20 9.55 18.33 12.45 21.67 12.45 20 9.55"/></g><g id="_Radial_Repeat_-7"><line class="cls-2" x1="27.6" y1="9.54" x2="25.41" y2="12.55"/><polygon class="cls-1" points="26.14 11.55 23.09 12.91 25.79 14.87 26.14 11.55"/></g><g id="_Radial_Repeat_-8"><line class="cls-2" x1="32.3" y1="16.01" x2="28.75" y2="17.16"/><polygon class="cls-1" points="29.94 16.77 26.66 16.08 27.7 19.26 29.94 16.77"/></g><g id="_Radial_Repeat_-9"><line class="cls-2" x1="32.29" y1="24" x2="28.75" y2="22.84"/><polygon class="cls-1" points="29.93 23.23 27.7 20.74 26.66 23.92 29.93 23.23"/></g><g id="_Radial_Repeat_-10"><line class="cls-2" x1="27.6" y1="30.46" x2="25.41" y2="27.45"/><polygon class="cls-1" points="26.14 28.45 25.79 25.13 23.09 27.09 26.14 28.45"/></g></svg>