<?xml version="1.0" encoding="UTF-8"?><svg id="Layer_1" xmlns="http://www.w3.org/2000/svg" viewBox="0 0 40 40"><defs><style>.cls-1,.cls-2{stroke-linecap:square;}.cls-1,.cls-2,.cls-3,.cls-4{stroke:#000;stroke-miterlimit:10;}.cls-1,.cls-3{fill:#fff;}.cls-2,.cls-4{fill:none;}</style></defs><path class="cls-2" d="m3.85,16.22l5.89.45c-4,0-4,8,2,8s6-4,6-4c0,0-6.5-8.5-4-11s4,3,4,3"/><path class="cls-2" d="m22.96,12.67s1.5-5.5,4-3-4,11-4,11c0,0,0,4,6,4,6,0,6-8,2-8l4.89-.45"/><path class="cls-4" d="m31.85,18.72c0,4.69-5.15,8.5-11.5,8.5s-11.5-3.81-11.5-8.5,5.15-4.5,11.5-4.5,11.5-.19,11.5,4.5Z"/><path class="cls-3" d="m37.85,16.22l-7,10-9.5-6-1,4-1-4-8.5,6L2.85,17.22c6.65,7.31,9.51,13.37,2,16h31c-5.96-2.19-3.76-8.66,2-17Z"/><circle class="cls-1" cx="20.35" cy="15.22" r="3"/><circle class="cls-1" cx="3.85" cy="16.22" r="2"/><circle class="cls-1" cx="36.15" cy="15.29" r="2"/><line class="cls-4" x1="20.35" y1="9.22" x2="20.35" y2="12.22"/><line class="cls-4" x1="18.85" y1="11.22" x2="21.85" y2="11.22"/><polygon class="cls-3" points="20.35 9.68 22.03 6.78 18.68 6.78 20.35 9.68"/><rect class="cls-1" x="10.35" y="28.72" width="3" height="2" transform="translate(41.57 17.86) rotate(90)"/><rect class="cls-1" x="28.35" y="28.72" width="3" height="2" transform="translate(59.57 -.14) rotate(90)"/><rect class="cls-1" x="15.85" y="26.22" width="3" height="3" transform="translate(24.68 -4.15) rotate(45)"/><rect class="cls-1" x="22.49" y="26.22" width="3" height="3" transform="translate(26.62 -8.84) rotate(45)"/></svg>