<?xml version="1.0" encoding="UTF-8"?><svg id="Layer_1" xmlns="http://www.w3.org/2000/svg" viewBox="0 0 40 40"><defs><style>.cls-1,.cls-2,.cls-3,.cls-4,.cls-5{stroke:#000;}.cls-1,.cls-2,.cls-4{fill:none;}.cls-1,.cls-5{stroke-linejoin:bevel;}.cls-2{stroke-linecap:square;}.cls-2,.cls-3,.cls-4{stroke-miterlimit:10;}.cls-3,.cls-5{fill:#fff;}</style></defs><polygon class="cls-1" points="5 8.5 11 14 34.5 14 28 8.5 5 8.5"/><rect class="cls-4" x="9" y="15.5" width="26" height="15"/><circle class="cls-5" cx="15" cy="13.5" r="2"/><circle class="cls-5" cx="23" cy="14.5" r="2"/><line class="cls-4" x1="4" y1="19.5" x2="9" y2="15.5"/><line class="cls-3" x1="35" y1="15.5" x2="30" y2="19.5"/><circle class="cls-5" cx="9" cy="17.5" r="2"/><circle class="cls-5" cx="11" cy="15.5" r="2"/><circle class="cls-5" cx="12" cy="18.5" r="2"/><circle class="cls-5" cx="15" cy="16.5" r="2"/><circle class="cls-5" cx="16" cy="19.5" r="2"/><circle class="cls-5" cx="23" cy="17.5" r="2"/><circle class="cls-5" cx="20" cy="18.5" r="2"/><circle class="cls-5" cx="19" cy="15.5" r="2"/><circle class="cls-5" cx="17" cy="17.5" r="2"/><circle class="cls-5" cx="25" cy="19.5" r="2"/><circle class="cls-5" cx="26" cy="16.5" r="2"/><circle class="cls-5" cx="28" cy="18.5" r="2"/><path class="cls-2" d="m5,8.5s0-3,3-3h21s9,8,9,8l-2,2"/><rect class="cls-3" x="4" y="19.5" width="26" height="15"/><rect class="cls-3" x="3.5" y="19.5" width="27" height="6"/><rect class="cls-3" x="3.5" y="28.5" width="27" height="6"/><polygon class="cls-5" points="30.5 34.5 35.5 30.5 35.5 24.5 30.5 28.5 30.5 34.5"/><polygon class="cls-5" points="30.5 25.59 35.5 21.59 35.5 15.59 30.5 19.59 30.5 25.59"/><rect class="cls-5" x="13.5" y="24.5" width="6" height="6"/><line class="cls-1" x1="16.5" y1="27.5" x2="16.5" y2="29"/><ellipse class="cls-1" cx="16.5" cy="27" rx="1" ry=".5"/><path class="cls-1" d="m18.5,22.5c1,1,0,2,0,2"/><path class="cls-1" d="m14.5,24.5s-1-3,2-3"/><polygon class="cls-5" points="16.5 5.5 15.5 9.5 18.5 9.5 19.5 5.5 16.5 5.5"/></svg>