<?xml version="1.0" encoding="UTF-8"?><svg id="Layer_1" xmlns="http://www.w3.org/2000/svg" viewBox="0 0 40 40"><defs><style>.cls-1{fill:#fff;}.cls-1,.cls-2{stroke:#000;stroke-miterlimit:10;}.cls-2{fill:none;}</style></defs><path class="cls-1" d="m9.5,25.5s1,7,10,7,11-7,11-7"/><path class="cls-2" d="m22.56,15.82v-6.27h-5.11v6.27c-5.84.89-9.94,5.04-9.94,9.68,0,5.3,5.44,8.75,12.5,8.75s12.5-3.45,12.5-8.75c0-4.64-4.11-8.79-9.94-9.68Z"/><ellipse class="cls-1" cx="20" cy="8.92" rx="6.03" ry="2.58"/><ellipse class="cls-1" cx="20" cy="25.5" rx="10.5" ry="2"/><path class="cls-1" d="m14.55,20.75c0,1-.77,1.5-1.59,1.5s-1.12-1.51-.75-2.25c.75-1.5,3.75-2.25,3.75-2.25,0,0-1.41,1.94-1.41,3Z"/><circle class="cls-1" cx="22" cy="30" r=".5"/><circle class="cls-1" cx="24" cy="29" r=".5"/><circle class="cls-1" cx="16" cy="30" r=".5"/><path class="cls-1" d="m23.1,8.17c0,.73-1.39,1.33-3.1,1.33s-3.1-.59-3.1-1.33,1.39-1.67,3.1-1.67,3.1.94,3.1,1.67Z"/></svg>