<?xml version="1.0" encoding="UTF-8"?><svg id="Layer_1" xmlns="http://www.w3.org/2000/svg" viewBox="0 0 40 40"><defs><style>.cls-1{stroke-linejoin:round;}.cls-1,.cls-2,.cls-3{stroke:#000;}.cls-1,.cls-3{fill:none;}.cls-2{fill:#fff;}.cls-2,.cls-3{stroke-miterlimit:10;}</style></defs><path class="cls-2" d="m20.07,8.61l1.04,3.21c.28.88,1.32,1.26,2.11.77l2.86-1.8,2.07,1.74-1.27,3.13c-.35.86.2,1.82,1.12,1.94l3.34.46.47,2.66-2.98,1.58c-.82.43-1.01,1.52-.39,2.21l2.26,2.5-1.35,2.34-3.3-.71c-.91-.19-1.75.52-1.72,1.44l.13,3.37-2.54.93-2.07-2.66c-.57-.73-1.68-.73-2.24,0l-2.07,2.66-2.54-.93.13-3.37c.03-.93-.81-1.64-1.72-1.44l-3.3.71-1.35-2.34,2.26-2.5c.62-.69.43-1.78-.39-2.21l-2.98-1.58.47-2.66,3.34-.46c.92-.13,1.47-1.08,1.12-1.94l-1.27-3.13,2.07-1.74,2.86,1.8c.79.49,1.82.11,2.11-.77l1.04-3.21h2.71Z"/><path class="cls-2" d="m21.35,7.1l1.04,3.21c.28.88,1.32,1.26,2.11.77l2.86-1.8,2.07,1.74-1.27,3.13c-.35.86.2,1.82,1.12,1.94l3.34.46.47,2.66-2.98,1.58c-.82.43-1.01,1.52-.39,2.21l2.26,2.5-1.35,2.34-3.3-.71c-.91-.19-1.75.52-1.72,1.44l.13,3.37-2.54.93-2.07-2.66c-.57-.73-1.68-.73-2.24,0l-2.07,2.66-2.54-.93.13-3.37c.03-.93-.81-1.64-1.72-1.44l-3.3.71-1.35-2.34,2.26-2.5c.62-.69.43-1.78-.39-2.21l-2.98-1.58.47-2.66,3.34-.46c.92-.13,1.47-1.08,1.12-1.94l-1.27-3.13,2.07-1.74,2.86,1.8c.79.49,1.82.11,2.11-.77l1.04-3.21h2.71Z"/><path class="cls-1" d="m24,20c0-2.21-1.79-4-4-4-1.57,0-2.91.91-3.57,2.22.65-.45,1.43-.72,2.28-.72,2.21,0,4,1.79,4,4,0,.64-.17,1.24-.43,1.78,1.04-.72,1.72-1.92,1.72-3.28Z"/><path class="cls-3" d="m18.72,17.5c-.85,0-1.63.27-2.28.72-.27.54-.43,1.14-.43,1.78,0,2.21,1.79,4,4,4,.85,0,1.63-.27,2.28-.72.27-.54.43-1.14.43-1.78,0-2.21-1.79-4-4-4Z"/><circle class="cls-3" cx="20" cy="20" r="7.5"/></svg>