<?xml version="1.0" encoding="UTF-8"?><svg id="Layer_1" xmlns="http://www.w3.org/2000/svg" viewBox="0 0 40 40"><defs><style>.cls-1{stroke-linecap:square;}.cls-1,.cls-2{fill:#fff;}.cls-1,.cls-2,.cls-3{stroke:#000;stroke-miterlimit:10;}.cls-3{fill:none;}</style></defs><path class="cls-2" d="m10.44,25.54c6.88-4.89,17.68-17.68,17.68-17.68l4.24-1.41-1.41,4.24s-12.97,11.11-17.68,17.68l-2.83-2.83Z"/><rect class="cls-2" x="8.5" y="25.81" width="6" height="3" transform="translate(22.68 -.13) rotate(45)"/><line class="cls-3" x1="7.61" y1="24.13" x2="14.68" y2="31.2"/><circle class="cls-3" cx="7.26" cy="23.77" r="1"/><circle class="cls-3" cx="15.04" cy="31.55" r="1"/><rect class="cls-3" x="7.11" y="27.2" width="1" height="8" transform="translate(24.29 3.75) rotate(45)"/><rect class="cls-2" x="3.64" y="32.17" width="3" height="3" transform="translate(38.81 28.53) rotate(90)"/><polyline class="cls-1" points="28.47 8.22 28.47 10.34 30.7 10.34"/><line class="cls-2" x1="28.47" y1="10.34" x2="12.56" y2="26.25"/><path class="cls-2" d="m26.46,27.88c-4.89-6.88-17.68-17.68-17.68-17.68l-1.41-4.24,4.24,1.41s11.11,12.97,17.68,17.68l-2.83,2.83Z"/><rect class="cls-2" x="25.23" y="25.32" width="6" height="3" transform="translate(-10.7 27.82) rotate(-45)"/><line class="cls-3" x1="25.05" y1="30.71" x2="32.12" y2="23.64"/><circle class="cls-3" cx="24.7" cy="31.07" r="1"/><circle class="cls-3" cx="32.47" cy="23.29" r="1"/><rect class="cls-3" x="31.62" y="26.71" width="1" height="8" transform="translate(-12.31 31.71) rotate(-45)"/><rect class="cls-2" x="33.1" y="31.69" width="3" height="3"/><polyline class="cls-1" points="9.14 9.85 11.26 9.85 11.26 7.63"/><line class="cls-2" x1="11.26" y1="9.85" x2="27.17" y2="25.76"/></svg>