<?xml version="1.0" encoding="UTF-8"?><svg id="Layer_1" xmlns="http://www.w3.org/2000/svg" viewBox="0 0 40 40"><defs><style>.cls-1{fill:#fff;}.cls-1,.cls-2{stroke-miterlimit:10;}.cls-1,.cls-2,.cls-3{stroke:#000;}.cls-2{fill:none;}.cls-3{stroke-linecap:round;stroke-linejoin:round;}</style></defs><path class="cls-1" d="m29.39,15l-2.33,19.53c-4.7,2.68-9.35,2.73-13.97,0l-2.33-19.53c0,6.8,18.63,6.8,18.63,0Z"/><line class="cls-2" x1="14.25" y1="22.28" x2="15.42" y2="33.93"/><line class="cls-2" x1="25.51" y1="22.28" x2="24.35" y2="33.93"/><path class="cls-2" d="m11.92,24.03c0,4,16.3,4,16.3,0"/><line class="cls-2" x1="20.07" y1="23.45" x2="20.07" y2="35.09"/><path class="cls-3" d="m27.08,15.88s-1.08-.54-1.08-1.62-2.16,0-2.16,0l-1.08,2.16-1.08-1.08-2.16,1.08s-.37-4.31-3.24-1.08c-1.31,1.48-1.35.93-3.24,0,0,0,2.16,2.7,7.55,2.7,4.31,0,6.47-2.16,6.47-2.16Z"/><ellipse class="cls-1" cx="20.07" cy="9.47" rx="8.44" ry="3.69"/><path class="cls-2" d="m17.96,9.47s0-2.11,2.11-2.11,2.11,2.11,2.11,2.11"/></svg>