<svg width="313" height="115" viewBox="0 0 313 115" fill="none" xmlns="http://www.w3.org/2000/svg">
<g clip-path="url(#clip0_111_938)">
<path d="M312.178 70.6589C312.074 70.5493 311.931 70.4687 311.741 70.4571C307.108 70.1228 302.389 71.2813 297.774 71.656C292.744 72.0652 287.709 72.0768 282.668 71.9154C277.645 71.754 272.627 71.362 267.643 70.6819C265.166 70.3476 262.683 69.9672 260.234 69.4657C258.045 69.0162 254.533 68.5378 252.774 67.0738C250.503 65.189 252.469 62.6529 253.004 60.3589C253.395 58.6816 253.774 56.4164 253.17 54.7564C252.067 51.7016 247.957 54.353 245.951 54.8544C241.129 56.0533 236.024 56.2839 231.122 55.5C229.248 55.2003 226.661 54.9178 225.006 53.9322C221.73 51.984 226.196 49.5575 227.736 48.1338C230.075 45.9666 231.616 42.4968 229.633 39.5572C228.437 37.7877 226.345 36.9865 224.385 37.3036C225.253 35.217 225.023 32.1622 224.477 30.5945C223.126 26.6981 219.557 23.0381 215.729 21.551C212.533 20.3118 208.17 20.6057 206.124 23.747C204.877 25.6606 205.348 28.9287 207.699 29.3379C207.785 29.4186 207.894 29.4878 208.032 29.5281C209.579 30.0296 210.469 31.8106 209.331 33.2112C208.475 34.266 206.687 34.5427 205.434 34.5427C202.859 34.5427 200.399 33.2055 198.054 32.2833C194.456 30.8711 191.007 29.1535 187.581 27.3782C180.615 23.7758 173.879 19.7527 166.958 16.0638C150.49 7.27398 133.207 1.2796 114.451 0.317037C103.927 -0.224763 93.0463 -0.26511 82.6312 1.78681C53.4263 5.46414 25.3365 22.479 9.2942 47.3326C5.79949 52.7449 3.40264 58.6067 1.91969 64.872C0.0803698 72.6474 -1.02897 81.345 1.37364 89.1204C3.47736 95.9275 7.96069 102.049 14.2374 105.519C20.8302 109.161 30.2049 110.36 36.6425 105.709C42.4996 101.484 44.109 91.864 36.6253 88.3192C33.7284 86.9474 29.5957 87.2356 28.0437 90.4692C26.7045 93.2589 28.4116 95.8583 30.8429 97.1033C24.0892 101.467 15.0306 95.1033 11.7255 89.1377C7.78826 82.0309 8.48375 73.0739 11.0875 65.6386C15.9272 51.8169 27.8943 40.514 43.0054 40.4506C50.926 40.416 58.1913 42.6812 64.399 47.6093C64.8875 47.9955 65.4681 47.909 65.8532 47.6093C67.4224 47.3096 68.1753 44.7965 68.48 43.4881C69.072 40.929 68.48 38.2892 67.2039 36.0297C64.6576 31.5109 59.6283 28.4791 54.7885 26.848C54.869 25.6548 55.9784 25.0727 56.944 24.3926C58.7891 23.1015 60.7836 22.0063 62.8068 21.0265C65.7957 19.574 68.8651 18.4155 72.0724 17.5624C75.4176 16.6748 78.7974 16.3232 82.1886 15.8679C85.6948 15.9543 89.201 15.7411 92.7187 16.0811C96.6905 16.4615 100.634 17.182 104.496 18.1964C110.629 19.8161 117.13 22.087 122.2 26.0237C127.516 30.1506 129.827 38.0874 127.878 44.4911C126.671 48.4508 123.654 52.2319 119.481 53.1887C117.107 53.7305 114.152 53.2867 112.675 51.1483C111.376 49.2693 111.623 46.7332 111.819 44.5775C111.859 44.1683 111.485 43.7129 111.095 43.6265C108.479 43.0328 106.887 45.8456 105.973 47.9321C104.749 50.7218 104.531 53.8342 105.14 56.8084C106.433 63.1255 111.52 67.6847 117.262 70.094C123.154 72.5609 131.551 73.7598 137.305 70.2957C139.443 69.0046 140.989 66.9758 142.415 64.8316C142.754 64.8547 143.099 64.6991 143.3 64.2725C143.8 63.2235 144.398 61.9555 145.122 60.7508C146.306 59.1081 147.611 57.6441 149.283 56.67C149.766 56.4798 150.272 56.3588 150.818 56.33C154.347 56.1398 151.956 63.4944 151.008 65.3965C148.232 70.9701 143.202 74.5437 137.868 77.4198C136.558 78.1288 134.23 78.9069 134.144 80.7398C134.069 82.3767 135.805 83.5526 137.104 84.1059C139.374 85.0742 142.081 84.9647 144.472 84.6707C145.668 84.5209 146.852 84.2961 148.048 84.1405C148.749 84.0482 149.663 83.8004 150.364 83.9502C151.95 84.2846 151.002 83.8868 150.899 84.6189C150.772 85.4892 147.611 86.8437 146.812 87.3279C145.754 87.9734 144.714 88.6651 143.714 89.4028C141.587 90.9648 139.61 92.7574 137.908 94.7805C134.632 98.6768 132.396 103.461 132.166 108.602C132.109 109.957 131.954 111.743 133.316 112.522C134.023 112.925 134.954 112.816 135.724 112.844C137.615 112.902 139.518 112.896 141.415 112.827C147.45 112.597 153.278 111.392 158.526 108.291C163.078 105.599 166.918 101.853 170.372 97.8699C171.384 100.982 172.729 103.968 174.448 106.764C175.465 108.418 176.844 111.271 179.04 111.248C179.178 111.398 179.385 111.473 179.626 111.392C187.352 108.769 189.858 100.02 190.404 92.7055C190.869 86.5152 191.024 79.9674 188.139 74.486C188.651 74.8549 189.133 75.2469 189.576 75.6734C191.024 77.0682 192.042 79.0856 193.042 80.8263C194.967 84.1808 196.508 87.7371 198.399 91.1089C201.842 97.2301 207.182 102.054 212.981 105.905C216.091 107.968 219.361 109.807 222.73 111.403C225.431 112.683 228.679 114.631 231.691 114.977C239.151 115.83 233.898 103.951 232.398 100.971C231.938 100.054 231.455 99.1437 230.984 98.2273C230.65 97.5817 229.604 96.2906 231.024 96.6653C231.61 96.8209 232.38 97.8872 232.892 98.3022C233.518 98.8152 234.162 99.3051 234.817 99.772C237.358 101.588 240.128 103.046 243.02 104.216C249.187 106.712 255.975 107.87 262.62 107.599C265.787 107.472 268.96 107.034 272.035 106.256C274.345 105.668 278.633 104.908 279.737 102.406C280.875 99.8411 277.691 99.0457 275.961 98.4578C273.972 97.7835 272.029 96.965 270.161 95.9909C269.782 95.7892 269.385 95.5932 269.023 95.3684C268.396 94.9822 267.586 94.9361 268.149 94.2214C268.672 93.5643 270.54 94.0543 271.311 94.1234C275.955 94.5384 280.496 95.1033 285.014 93.5816C288.968 92.2502 292.779 90.1521 296.354 88.0195C302.987 84.0655 309.137 79.0107 312.845 72.1056C313.207 71.4312 312.712 70.8029 312.143 70.6704L312.178 70.6589ZM306.585 72.5782C306.557 72.5494 306.516 72.5321 306.476 72.5206C306.677 72.486 306.878 72.4456 307.085 72.4053C306.919 72.4629 306.758 72.5206 306.591 72.5782H306.585ZM115.434 2.21334C126.855 3.25659 137.943 5.46414 148.651 9.64292C165.303 16.1388 179.874 26.7961 196.358 33.5974C200.388 35.2632 205.865 38.2604 209.981 35.1536C212.861 32.9807 211.924 28.7673 208.463 27.9143C208.354 27.8855 208.257 27.8855 208.159 27.8912C205.957 26.2658 207.843 23.528 210.286 22.7902C213.159 21.9141 216.246 23.2167 218.534 24.9401C220.586 26.4848 222.276 28.5079 223.115 30.9633C223.517 32.1392 223.632 33.3841 223.442 34.6118C223.339 35.3035 222.086 37.488 222.327 38.1047C222.299 38.099 222.276 38.0874 222.247 38.0759C222.212 38.0701 222.178 38.0644 222.143 38.0528C221.862 37.9952 221.494 38.1335 221.436 38.4563C221.431 38.4967 221.425 38.537 221.413 38.5774C221.344 38.952 221.557 39.2978 221.896 39.3728C222.115 39.6264 222.465 39.7589 222.787 39.5342C225.247 37.8338 228.759 39.6494 228.765 42.6697C228.771 45.4306 226.253 47.0733 224.362 48.6064C222.638 50.007 220.936 52.3587 222.689 54.4683C223.638 55.6095 225.374 55.9841 226.73 56.3646C228.661 56.9063 230.639 57.2752 232.627 57.5058C236.645 57.9784 240.766 57.8286 244.721 56.9525C245.848 56.7046 246.963 56.3991 248.061 56.036C248.469 55.9034 248.871 55.7536 249.273 55.6037C250.314 55.2175 250.204 54.9524 251.061 55.7882C252.802 57.4885 250.883 61.2523 250.153 63.1601C248.997 66.1631 250.101 67.7251 252.923 68.9355C257.016 70.6934 261.488 71.339 265.867 71.9442C270.466 72.5782 275.087 73.022 279.72 73.2353C285.094 73.4831 290.451 73.3217 295.82 73.022C298.136 72.8952 300.475 72.5782 302.815 72.29C302.297 72.4168 301.797 72.5724 301.326 72.803C301.113 72.9067 301.24 73.1949 301.435 73.2122C302.263 73.2872 303.108 73.1661 303.941 73.0047C299.498 73.9212 295.067 74.7627 290.526 75.1546C285.749 75.5639 280.783 75.0451 276.064 75.7137C275.754 75.7598 275.765 76.2728 276.064 76.3305C280.927 77.2815 286.594 76.3823 291.474 75.7944C293.928 75.5005 296.394 75.1662 298.837 74.7454C282.438 78.4631 265.212 76.8838 249.049 71.9788C249.061 71.9788 249.078 71.9788 249.089 71.9788C250.486 72.1402 251.94 72.4111 253.331 72.2036C253.429 72.1863 253.412 72.0479 253.331 72.0191C252.078 71.6272 250.71 71.6214 249.411 71.46C248.164 71.3044 246.905 70.9816 245.646 70.8952C245.049 70.6934 244.451 70.4859 243.853 70.2784C246.371 70.4456 248.934 70.3361 251.159 70.1632C251.343 70.1516 251.343 69.8865 251.159 69.8807C248.808 69.7655 246.463 69.6675 244.123 69.4023C242.554 69.2237 240.973 68.8432 239.393 68.6127C242.382 68.9124 245.583 68.6012 248.003 67.8576C248.204 67.7942 248.17 67.483 247.951 67.483C245.664 67.5176 243.422 67.7942 241.129 67.6617C239.088 67.5406 237.099 67.0046 235.076 66.8317C234.938 66.7683 234.794 66.7106 234.656 66.6472C238.795 67.2006 243.342 66.4916 246.974 64.9642C247.204 64.8662 247.124 64.5031 246.865 64.5723C244.163 65.3446 241.473 65.9037 238.646 65.9498C237.582 65.9671 236.542 65.8864 235.501 65.7654C239.295 65.6155 243.152 64.5434 245.675 62.797C245.882 62.6529 245.761 62.2667 245.491 62.3647C242.376 63.4483 239.559 64.4916 236.208 64.6529C233.472 64.7855 230.989 64.0996 228.38 63.6961C228.242 63.627 228.11 63.5636 227.972 63.4944C230.047 63.7653 232.185 63.7538 233.898 63.6558C237.605 63.4425 241.939 62.6644 244.985 60.4108C245.118 60.3128 245.049 60.0534 244.865 60.1168C241.025 61.4137 237.628 62.699 233.495 62.7509C231.369 62.7739 229.242 62.5664 227.161 62.1226C225.862 61.846 224.609 61.333 223.316 61.0505C223.121 60.941 222.925 60.8315 222.73 60.7278C224.471 61.1255 226.27 61.2984 227.811 61.4425C231.363 61.7826 236.45 62.5088 239.674 60.6471C239.835 60.5549 239.726 60.3128 239.554 60.3531C235.783 61.235 231.696 60.9699 227.88 60.4569C226.719 60.3012 225.598 60.0765 224.483 59.7825C226.914 60.0246 229.368 60.0649 231.788 59.9093C232.047 59.892 232.047 59.5116 231.788 59.5058C227.937 59.3906 224.195 58.9295 220.448 58.0072C217.35 57.2464 214.936 56.0418 212.257 54.376C212.159 54.3126 212.056 54.3011 211.964 54.3242C210.487 53.3904 209.021 52.4451 207.561 51.4883C207.653 51.5172 207.745 51.546 207.837 51.5748C209.935 52.2492 212.234 52.8486 214.447 52.6988C214.688 52.6815 214.752 52.3356 214.504 52.2665C212.504 51.7131 210.446 51.4826 208.458 50.8601C206.71 50.3125 205.135 49.3384 203.428 48.7332C202.934 48.3989 202.44 48.0646 201.94 47.7246C203.526 48.3816 205.187 48.8485 206.532 49.1771C210.326 50.105 214.332 50.2952 218.172 49.5978C218.436 49.5517 218.379 49.0964 218.108 49.1194C214.28 49.4307 210.527 49.1886 206.837 48.0704C205.055 47.5344 203.325 46.86 201.669 46.0069C201.48 45.909 201.29 45.8052 201.1 45.6957C202.595 46.0473 204.072 46.3297 205.452 46.543C210.607 47.3557 216.171 47.2519 221.252 46.0012C221.609 45.9147 221.448 45.4133 221.103 45.4651C215.62 46.2836 210.389 46.3124 204.929 45.2231C203.158 44.8715 201.405 44.4104 199.686 43.8397C200.284 43.932 200.865 44.0127 201.434 44.0761C206.417 44.6755 211.883 44.3354 216.516 42.2662C216.648 42.2086 216.551 42.0241 216.424 42.0472C211.429 43.027 206.59 43.5977 201.509 42.9175C199.135 42.6005 196.767 42.076 194.513 41.2633C193.542 40.9175 192.617 40.4794 191.697 40.0241C193.571 40.6408 195.45 41.125 197.261 41.4305C202.589 42.3354 208.659 41.9262 213.022 38.4217C213.292 38.2027 212.941 37.7704 212.654 37.9433C207.613 41.0097 201.641 41.3555 195.996 39.9492C192.967 39.1999 190.076 37.9837 187.306 36.5658C186.587 36.1969 185.874 35.7934 185.173 35.3842C186.323 35.8799 187.472 36.3698 188.628 36.8367C193.335 38.7272 199.083 40.3699 204.043 38.537C204.325 38.4333 204.216 38.0413 203.923 38.0932C197.818 39.1019 192.617 37.3727 187.104 34.8827C186.61 34.658 186.116 34.4274 185.616 34.1853C186.242 34.4101 186.869 34.6349 187.495 34.8539C190.415 35.8684 193.329 36.8021 196.45 36.4217C196.726 36.3871 196.738 36.0009 196.45 35.9836C189.944 35.6205 183.667 32.1795 177.862 29.4647C175.132 28.1852 172.43 26.8422 169.746 25.4704C167.619 24.381 165.441 23.0611 163.159 22.2484C160.48 20.7383 157.762 19.2916 155.014 17.9198C157.905 19.0149 160.745 20.2138 163.573 21.4645C169.447 24.0698 175.103 27.2284 181.052 29.6549C181.161 29.7011 181.224 29.5281 181.127 29.4705C175.367 25.8105 169.022 22.7902 162.82 19.9659C159.923 18.646 156.986 17.3837 154.02 16.2195C152.41 15.5912 150.738 14.8938 149.036 14.3347C149.025 14.2713 148.985 14.2136 148.91 14.1791C147.927 13.6661 146.904 13.2223 145.869 12.8015C151.157 14.5364 156.353 16.5653 161.676 18.1619C161.877 18.2253 162.015 17.914 161.82 17.816C155.997 14.7727 149.45 12.7381 143.191 10.8014C142.122 10.4671 141.047 10.1501 139.966 9.83889C142.679 10.5363 145.386 11.2453 148.128 11.8389C148.283 11.8735 148.404 11.643 148.243 11.568C142.604 9.03772 136.253 7.72356 130.212 6.53621C127.752 6.05205 125.085 5.45261 122.378 5.00303C127.315 5.67164 132.224 6.55927 137.127 7.43537C137.385 7.48148 137.5 7.1126 137.236 7.0319C131.413 5.34886 125.395 4.16151 119.383 3.39492C116.268 2.99722 113.175 2.905 110.037 2.96264C106.824 3.02027 103.49 2.88194 100.283 3.22201C98.524 3.17013 96.771 3.15861 95.0294 3.18166C91.8278 3.22777 88.5745 3.33729 85.3097 3.53326C95.288 2.2825 105.238 1.26807 115.354 2.19028L115.434 2.21334ZM114.118 4.467C113.779 4.41512 113.44 4.36325 113.095 4.31714C114.612 4.29985 116.136 4.33443 117.653 4.46123C116.457 4.39207 115.273 4.3863 114.118 4.467ZM27.8196 100.936C27.6644 100.954 27.5092 100.971 27.354 101C27.6644 100.919 27.9748 100.827 28.2736 100.717C28.1242 100.798 27.9748 100.867 27.8196 100.936ZM134.396 110.919C134.396 110.919 134.368 110.896 134.35 110.885C134.368 110.85 134.391 110.815 134.408 110.781C134.402 110.827 134.396 110.873 134.391 110.919H134.396ZM296.124 85.9272C292.854 87.9273 289.399 89.8409 285.824 91.2415C281.663 92.8727 277.605 92.7632 273.236 92.3309C271.426 92.1522 266.689 90.8726 265.701 93.2761C264.827 95.403 267.827 96.8958 269.236 97.6221C270.598 98.3252 272 98.965 273.426 99.5299C274.196 99.8354 275.196 100.008 275.897 100.429C276.725 100.925 276.725 100.21 276.748 101.547C276.771 102.775 276.035 102.729 274.966 103.109C271.96 104.17 268.787 104.833 265.62 105.15C259.045 105.801 252.32 105.104 246.054 102.971C242.922 101.905 239.922 100.469 237.151 98.648C235.737 97.72 234.404 96.6883 233.133 95.5644C232.288 94.8151 231.392 93.8583 230.19 93.7545C228.144 93.5759 227.506 95.4952 228.052 97.1321C229.236 100.688 231.685 103.714 232.76 107.363C233.231 108.971 234.323 112.55 231.857 112.712C230.133 112.827 227.702 111.184 226.161 110.498C222.868 109.017 219.603 107.438 216.476 105.622C209.153 101.38 203.394 95.9909 199.549 88.3769C196.203 81.76 192.904 74.8319 186.007 71.2583C185.185 70.29 183.794 71.6791 184.616 72.6301C189.099 77.7887 189.191 84.9993 188.852 91.4893C188.444 99.2705 186.288 105.893 179.408 110.06C177.201 109.945 175.08 104.925 174.287 103.322C173.114 100.954 172.223 98.4866 171.539 95.9333C171.384 95.3626 170.562 95.0745 170.148 95.5644C166.527 99.8757 162.601 103.974 157.721 106.867C152.14 110.17 145.932 111.138 139.535 111.219C138.334 111.236 135.994 111.634 134.822 111.179C135.195 111.011 135.345 110.723 135.621 110.377C135.977 109.928 136.345 109.49 136.73 109.069C137.121 108.643 137.535 108.233 137.966 107.847C138.334 107.519 138.656 107.311 138.828 106.844C138.92 106.602 138.656 106.435 138.449 106.464C137.512 106.608 136.586 107.853 135.977 108.521C135.793 108.723 135.54 108.977 135.299 109.248C136.552 107.253 137.995 105.449 139.811 103.853C142.352 101.616 145.444 100.077 147.933 97.8353C148.122 97.6624 147.921 97.2993 147.674 97.3915C144.587 98.5328 141.685 101.109 139.202 103.242C137.213 104.942 135.431 106.85 134.132 109.098C134.672 105.905 137.23 103.207 139.506 101.063C141.645 99.0515 144.444 97.6048 146.358 95.4203C146.501 95.2589 146.369 94.9361 146.128 95.0226C142.949 96.1869 139.639 99.3858 137.38 101.864C136.931 102.354 136.448 102.896 135.983 103.467C136.845 101.645 137.897 99.9449 139.437 98.4117C142.018 95.8468 145.404 94.0427 147.778 91.2934C147.961 91.0801 147.732 90.7458 147.467 90.8899C145.754 91.8467 144.306 93.2531 142.788 94.4923C141.162 95.8238 139.414 97.0976 138.006 98.6768C136.127 100.775 134.799 103.495 134.075 106.262C134.736 102.746 136.506 99.4319 138.736 96.6826C140.38 94.6537 142.317 92.89 144.392 91.3164C146.691 89.5758 149.416 88.3769 151.594 86.5152C153.612 84.786 153.962 82.2903 150.68 82.0828C148.03 81.9156 145.375 82.8839 142.742 83.0511C141.271 83.1433 139.696 83.1145 138.276 82.6534C137.897 82.4862 137.518 82.3249 137.138 82.1577C136.839 81.8003 136.638 81.4891 136.512 81.2009C136.753 81.1721 136.995 81.1433 137.236 81.1029C141.3 81.858 146.513 80.3594 149.657 78.0538C153.06 75.5523 157.854 72.1229 158.647 67.6501C158.71 67.2928 158.244 67.0507 158.043 67.3965C155.75 71.2756 153.428 74.3247 149.663 76.9241C147.502 78.4112 145.174 79.1951 142.748 79.6447C143.961 79.1778 145.145 78.636 146.272 78.0193C149.168 76.4342 152.755 74.2382 154.445 71.2986C154.537 71.1373 154.336 71.0104 154.204 71.1142C151.404 73.3275 149.151 75.7426 145.823 77.2584C144.461 77.8809 143.081 78.3593 141.679 78.757C143.53 77.8348 145.3 76.7109 146.777 75.7714C149.358 74.1345 152.226 71.9038 153.077 68.8317C153.117 68.6761 152.922 68.6185 152.841 68.7337C150.72 71.5292 148.703 73.7598 145.622 75.5408C143.834 76.5725 141.903 77.5293 139.914 78.2786C144.432 75.7714 148.737 72.9068 151.64 68.5089C153.738 65.3215 156.003 60.0765 154.192 56.2723C153.267 54.3242 151.439 53.863 149.45 54.3876C145.478 55.4366 142.938 59.6557 141.42 63.1486C141.346 63.3273 141.317 63.5002 141.323 63.6616C139.702 66.042 137.822 68.2323 135.126 69.385C132.011 70.7165 128.309 70.7453 124.987 70.3303C119.176 69.6041 113.147 66.9469 109.727 62.0016C108.031 59.5519 106.996 56.67 106.996 53.6728C106.996 52.3702 107.192 51.0503 107.6 49.8168C107.824 49.1425 108.755 46.7159 109.767 45.8398C109.646 48.6122 109.98 51.4595 112.158 53.4365C114.319 55.3905 117.676 55.8343 120.395 55.0158C126.786 53.0965 130.413 45.9781 130.425 39.6494C130.436 33.8222 128.091 27.7759 123.441 24.162C118.463 20.2945 112.25 17.9371 106.243 16.2425C102.093 15.0667 97.8343 14.2482 93.5464 13.7929C89.908 13.4067 85.9535 13.0609 82.2633 13.6257C74.7279 13.7179 66.5774 16.4788 60.0938 19.9832C56.99 21.6605 52.0353 23.7585 52.6446 27.9661C52.7021 28.3523 53.0872 28.6348 53.4263 28.75C57.1912 30.0181 60.9503 31.7126 63.738 34.6407C65.1749 36.145 66.3015 37.9664 66.7096 40.0298C67.0257 41.6207 66.905 44.3873 65.79 45.9493C60.2203 40.6581 52.8515 38.8828 45.3908 38.3699C37.2633 37.8108 29.8371 40.3642 23.3075 45.1654C16.2779 50.3356 11.3692 57.5404 8.78264 65.8864C6.26507 74.0019 6.06964 84.0252 11.237 91.1896C13.3407 94.1061 17.14 97.1494 21.2153 98.6653C21.2153 98.7402 21.2498 98.8152 21.313 98.8555C23.2098 100.175 25.9802 100.17 28.3024 99.4377C28.561 99.3858 28.8139 99.3224 29.0669 99.2417C25.4055 100.954 21.0773 99.8296 17.5711 97.6624C13.8408 95.3569 11.3577 92.4116 9.17349 88.6651C8.95507 88.2962 8.29982 88.5383 8.46076 88.9648C10.1161 93.3223 15.0191 98.0659 20.2554 100.031C22.0085 101.42 24.5893 101.616 26.9401 101.092C26.8367 101.126 26.739 101.173 26.647 101.23C26.601 101.265 26.578 101.317 26.5838 101.369C25.6526 101.616 24.6525 101.709 23.5776 101.622C20.7267 101.392 18.6345 99.9737 16.1457 98.7806C15.9272 98.6768 15.6111 98.9074 15.7835 99.1437C17.5826 101.68 21.3935 102.665 24.3479 102.7C26.3539 102.723 28.0955 102.101 29.5669 101.017C30.2796 101.08 31.1073 100.083 31.4925 99.6221C32.027 98.9766 32.5673 98.135 32.619 97.2762C32.619 97.2128 32.6018 97.1667 32.5673 97.1264C32.6478 96.8267 32.5386 96.452 32.1707 96.3021C29.0611 95.0399 27.8885 90.8784 31.6994 89.5585C33.6364 88.8899 35.7171 89.7544 37.1886 91.034C40.1487 93.6104 40.3729 97.6624 38.4014 100.919C34.3319 107.634 24.6582 107.697 18.1287 105.213C11.8807 102.838 7.05828 97.7604 4.41426 91.668C1.56332 85.0973 1.81623 77.8925 2.8336 70.9355C6.3168 47.0905 24.5663 29.3495 44.5344 17.6835C48.0003 15.6546 51.5525 13.7929 55.1794 12.1098C66.4912 7.95988 78.4525 6.04052 90.4655 5.56213C102.743 5.0722 114.836 6.19038 126.654 9.66597C138.799 13.2338 150.335 19.7123 158.75 29.3091C163.038 34.1968 166.188 39.5226 167.705 45.8628C169.292 52.4913 169.752 59.2407 168.539 65.9671C167.033 74.3131 164.998 82.6707 159.262 89.155C154.135 94.9534 147.542 99.282 141.144 103.53C140.558 103.916 141.098 104.867 141.696 104.481C147.634 100.694 153.64 96.8497 158.629 91.8236C163.745 86.6823 166.435 80.8897 168.246 73.9212C170.125 66.6818 171.614 59.7652 170.757 52.2665C170.045 46.0415 168.608 39.9319 165.268 34.5773C161.572 28.652 156.991 23.7067 151.778 19.6259C153.979 21.0726 156.083 22.6288 158.106 24.3292C161.883 27.505 165.107 31.0959 168.619 34.5369C168.786 34.6983 169.073 34.4908 168.947 34.2833C166.32 30.0757 162.44 26.3407 158.675 23.1649C157.894 22.502 157.072 21.7931 156.215 21.0668C159.963 22.992 163.642 25.0439 167.269 27.1996C177.615 33.3496 187.472 40.2719 197.433 47.0098C208.751 54.67 219.976 62.2379 232.49 67.8403C244.169 73.0739 256.573 76.6878 269.322 77.9616C283.214 79.3507 297.728 77.7772 310.603 72.1863C307.154 78.0308 301.866 82.4113 296.118 85.9272H296.124Z" fill="#FEC955"/>
<path d="M285.87 79.806C279.283 80.4689 272.874 80.3075 266.327 79.293C263.275 78.8204 260.235 78.2498 257.211 77.5927C254.32 76.9702 251.452 75.9961 248.509 75.6503C247.9 75.5754 247.865 76.4803 248.371 76.6647C251.4 77.7599 254.734 78.1749 257.884 78.8204C260.959 79.4487 264.045 79.9789 267.155 80.3766C273.357 81.1663 279.772 81.5294 285.974 80.6072C286.422 80.538 286.324 79.7541 285.864 79.8003L285.87 79.806Z" fill="#FEC955"/>
<path d="M278.455 82.3364C273.92 82.2153 269.42 81.9675 264.925 81.2989C261.126 80.734 257.05 79.1663 253.234 79.1893C252.964 79.1893 252.843 79.5755 253.096 79.708C256.412 81.4718 261.131 81.6505 264.816 82.0885C269.333 82.6303 273.897 82.9589 278.45 82.907C278.817 82.907 278.817 82.3479 278.45 82.3364H278.455Z" fill="#FEC955"/>
<path d="M273.368 84.0886C271.305 83.8407 269.23 83.6621 267.161 83.4257C265.132 83.1952 263.005 82.6822 260.965 82.8551C260.735 82.8724 260.683 83.1837 260.907 83.2643C262.741 83.8868 264.758 83.8868 266.678 84.0713C268.902 84.2845 271.127 84.5266 273.363 84.6534C273.725 84.6765 273.708 84.1347 273.363 84.0943L273.368 84.0886Z" fill="#FEC955"/>
<path d="M268.966 85.9618C267.609 85.639 266.051 85.1837 264.649 85.3566C264.517 85.3739 264.413 85.5756 264.569 85.6448C265.879 86.2097 267.511 86.2212 268.914 86.2904C269.098 86.3019 269.138 86.0079 268.96 85.9618H268.966Z" fill="#FEC955"/>
<path d="M236.95 94.3021C235.076 93.2357 233.277 92.0484 231.57 90.74C229.897 89.4547 228.305 88.0598 226.839 86.5382C225.403 85.0453 224.241 83.2413 222.713 81.8522C222.35 81.5236 221.85 81.9329 222.052 82.3652C223.787 86.0425 227.845 89.1607 231.03 91.5412C234.254 93.9505 238.611 97.1552 242.698 97.697C242.882 97.72 242.893 97.4722 242.784 97.3857C241.048 96.1061 238.835 95.3799 236.95 94.3078V94.3021Z" fill="#FEC955"/>
<path d="M253.113 98.648C245.451 96.0601 237.157 93.6508 230.829 88.4057C230.351 88.0137 229.667 88.6708 230.145 89.0916C236.191 94.4692 245.313 97.2244 253.033 98.942C253.228 98.9823 253.303 98.7057 253.113 98.6423V98.648Z" fill="#FEC955"/>
<path d="M241.324 91.7141C241.594 91.7833 241.686 91.4029 241.439 91.2991C239.157 90.3884 236.916 89.4028 234.841 88.0656C233.03 86.8956 231.576 85.2586 229.771 84.1174C229.535 83.9675 229.248 84.2615 229.392 84.4978C231.656 88.227 237.272 90.6997 241.324 91.7084V91.7141Z" fill="#FEC955"/>
<path d="M209.82 93.9389C207.906 91.7256 206.147 88.9878 203.768 87.2702C203.388 86.9935 203.043 87.5065 203.193 87.8466C204.377 90.5268 206.9 92.7804 208.906 94.8554C211.2 97.2301 213.51 99.6682 216.057 101.772C216.43 102.077 216.924 101.605 216.591 101.236C214.372 98.7633 211.999 96.4462 209.82 93.9332V93.9389Z" fill="#FEC955"/>
<path d="M279.421 74.6301C281.778 75.339 284.623 75.0681 287.06 74.9471C289.623 74.8261 292.095 74.486 294.601 73.9845C294.693 73.9673 294.67 73.8174 294.578 73.8232C291.923 74.0076 289.25 74.1402 286.589 74.1978C284.232 74.2497 281.732 73.8808 279.421 74.2843C279.237 74.3131 279.266 74.5782 279.421 74.6301Z" fill="#FEC955"/>
<path d="M256.636 73.6214C258.907 74.5033 261.591 74.6474 263.999 74.9644C266.189 75.2526 268.414 75.5178 270.621 75.5005C270.805 75.5005 270.851 75.2123 270.667 75.1719C268.23 74.6762 265.741 74.4399 263.275 74.0883C261.108 73.7771 258.884 73.1661 256.694 73.2007C256.441 73.2007 256.418 73.535 256.636 73.6214Z" fill="#FEC955"/>
<path d="M262.827 73.2468C264.252 73.7482 265.844 73.8001 267.345 73.95C269.075 74.1229 270.839 74.3477 272.575 74.1632C272.661 74.1517 272.696 74.0249 272.598 74.0018C271.121 73.656 269.598 73.5868 268.092 73.4197C266.368 73.2237 264.62 72.7857 262.884 72.8491C262.654 72.8606 262.62 73.1719 262.833 73.2468H262.827Z" fill="#FEC955"/>
<path d="M176.172 98.3252C176.178 96.5846 176.661 94.792 176.31 93.0801C176.253 92.8092 175.902 92.8669 175.821 93.0801C174.264 97.1206 175.195 102.931 177.839 106.297C177.994 106.493 178.236 106.245 178.155 106.055C177.063 103.53 176.161 101.126 176.178 98.331L176.172 98.3252Z" fill="#FEC955"/>
<path d="M174.155 88.4287C173.333 89.2991 173.206 90.6708 173.08 91.8236C172.942 93.0859 172.867 94.498 173.39 95.6796C173.442 95.8007 173.649 95.7661 173.672 95.645C173.919 94.4346 173.804 93.1781 174.011 91.9504C174.201 90.8553 174.764 89.7602 174.706 88.6593C174.695 88.3884 174.356 88.2155 174.149 88.4287H174.155Z" fill="#FEC955"/>
<path d="M179.897 49.9782C178.023 47.7015 176.574 45.3556 175.201 42.7561C174.114 40.7042 172.792 38.318 170.947 36.8597C170.499 36.5081 169.93 36.9346 170.166 37.4649C171.177 39.7186 173.016 41.6668 174.183 43.8801C174.936 45.3095 175.752 46.6467 176.666 47.9263C176.666 47.9436 176.666 47.9551 176.672 47.9724C177.345 49.8572 178.828 51.448 179.828 53.1887C180.891 55.0446 181.782 56.9928 182.874 58.8372C184.874 62.2263 187.628 65.4656 190.237 68.3821C190.387 68.5493 190.697 68.3764 190.622 68.1573C190.076 66.555 188.927 65.2639 187.875 63.9613C186.306 62.0246 184.777 60.1225 183.529 57.9496C182.633 56.3876 181.834 54.7679 181 53.1714C184.058 56.7104 187.173 60.2148 190.398 63.5866C190.611 63.8114 191.03 63.5059 190.835 63.2465C187.334 58.7046 183.535 54.3991 179.897 49.9667V49.9782Z" fill="#FEC955"/>
<path d="M179.425 48.1857C181.069 50.1684 183.035 52.4278 185.363 53.5864C185.541 53.6786 185.691 53.4653 185.57 53.3155C183.995 51.3442 181.954 49.7592 180.362 47.7764C178.845 45.8859 177.839 43.5054 176.207 41.7475C175.982 41.5054 175.62 41.7648 175.684 42.0529C176.155 44.3239 177.971 46.4392 179.425 48.1914V48.1857Z" fill="#FEC955"/>
<path d="M181.92 47.4133C182.408 47.9782 182.926 48.4104 183.512 48.8658C183.696 49.0099 183.926 48.7909 183.771 48.6064C183.311 48.0531 182.874 47.4652 182.437 46.8888C182.092 46.4392 181.805 45.8167 181.316 45.517C181.075 45.3671 180.845 45.6092 180.88 45.8513C180.972 46.4334 181.546 46.981 181.92 47.4133Z" fill="#FEC955"/>
<path d="M151.347 88.5901C152.054 88.6305 152.83 87.7947 153.313 87.3394C153.784 86.8898 154.652 86.152 154.658 85.4546C154.658 85.2817 154.48 85.2067 154.336 85.2701C154.043 85.4085 153.911 85.6678 153.715 85.9215C153.433 86.2903 153.129 86.6362 152.795 86.9647C152.318 87.4316 151.491 87.8235 151.232 88.446C151.203 88.5209 151.278 88.5843 151.341 88.5901H151.347Z" fill="#FEC955"/>
<path d="M166.314 67.0507C165.717 69.5695 165.429 72.1113 164.63 74.5955C163.803 77.1777 162.544 79.4948 161.331 81.8983C161.251 82.0597 161.446 82.2211 161.584 82.0943C163.308 80.4285 164.257 77.8348 165.084 75.6157C166.067 72.9644 166.901 69.9672 166.774 67.1141C166.763 66.8605 166.383 66.7855 166.32 67.0507H166.314Z" fill="#FEC955"/>
<path d="M162.084 39.8973C162.808 41.4996 163.791 43.1077 164.142 44.8311C164.372 45.955 164.584 46.6179 165.01 47.7303C166.28 51.033 165.993 54.5893 166.36 58.0533C166.395 58.3819 166.889 58.3992 166.883 58.0533C166.792 54.8141 167.194 51.4076 166.222 48.2606C165.343 45.419 164.452 42.6351 163.314 39.8569C162.245 37.2632 161.164 34.779 159.337 32.6233C156.974 29.8394 154.238 26.8595 151.404 24.5655C150.956 24.2023 150.387 24.7557 150.766 25.2052C152.864 27.6895 155.215 29.9777 157.365 32.4158C159.411 34.7386 160.814 37.0903 162.09 39.903L162.084 39.8973Z" fill="#FEC955"/>
<path d="M161.894 47.7534C161.94 47.8686 162.141 47.8686 162.124 47.7245C161.636 42.9636 159.808 37.0845 156.313 33.6723C156.175 33.5397 155.991 33.7069 156.06 33.8683C157.175 36.4332 158.785 38.7387 159.825 41.3555C160.653 43.4478 161.09 45.6668 161.889 47.7591L161.894 47.7534Z" fill="#FEC955"/>
<path d="M159.009 43.4305C158.75 42.6178 158.405 41.8281 158.124 41.0212C157.894 40.3641 157.813 39.5399 157.193 39.1537C157.06 39.073 156.854 39.1479 156.819 39.3036C156.641 40.1336 157.365 40.9751 157.721 41.6956C157.992 42.2546 158.222 43.3728 158.877 43.563C158.957 43.5861 159.043 43.5054 159.015 43.4247L159.009 43.4305Z" fill="#FEC955"/>
<path d="M162.682 52.376C162.636 52.2203 162.377 52.1569 162.302 52.3241C161.596 53.9725 161.641 55.9034 161.348 57.6729C160.998 59.7537 160.411 61.7307 159.963 63.7768C159.923 63.9497 160.176 64.0823 160.268 63.9036C161.193 62.065 161.808 59.9266 162.257 57.9208C162.642 56.2031 163.165 54.0878 162.682 52.3702V52.376Z" fill="#FEC955"/>
<path d="M164.383 68.0247C165.234 66.5262 165.119 64.6529 165.286 62.9699C165.533 60.5087 165.763 58.0245 165.636 55.5518C165.619 55.2348 165.188 55.2463 165.153 55.5518C164.694 59.6557 164.711 63.748 163.877 67.8115C163.814 68.1112 164.222 68.3129 164.383 68.0247Z" fill="#FEC955"/>
<path d="M139.616 62.1514C137.207 65.7769 133.236 67.5752 128.976 67.9325C127.057 68.0939 124.987 68.0421 123.114 67.581C121.171 67.1026 119.619 66.0132 117.906 65.0622C117.354 64.7567 116.94 65.529 117.423 65.8921C123.895 70.7395 136.098 70.5032 140.139 62.4627C140.311 62.1111 139.834 61.8344 139.616 62.1572V62.1514Z" fill="#FEC955"/>
<path d="M111.169 59.4309C110.698 58.6239 110.79 57.4654 109.905 56.9813C109.664 56.8487 109.405 57.0677 109.462 57.3213C109.928 59.5404 111.509 61.3906 113.336 62.6586C113.4 62.699 113.463 62.6183 113.434 62.5606C112.831 61.4021 111.825 60.5491 111.169 59.4309Z" fill="#FEC955"/>
<path d="M130.982 46.1395C130.804 46.4853 131.316 46.7908 131.505 46.445C133.724 42.3469 133.109 36.1681 131.85 31.8394C130.81 28.2601 128.356 23.3839 124.671 21.9717C124.395 21.868 124.269 22.2369 124.413 22.4156C125.666 23.9891 127.252 25.0727 128.407 26.7788C129.505 28.4042 130.327 30.2198 130.862 32.1103C131.977 36.0585 132.942 42.3238 130.988 46.1337L130.982 46.1395Z" fill="#FEC955"/>
<path d="M134.512 38.0471C134.512 38.1566 134.678 38.1854 134.707 38.0759C135.77 34.3409 133.327 30.2083 131.896 26.9286C131.816 26.7384 131.517 26.8422 131.523 27.0324C131.54 28.6693 132.666 30.1621 133.115 31.7184C133.713 33.7876 134.408 35.8799 134.512 38.0528V38.0471Z" fill="#FEC955"/>
<path d="M164.205 19.4818C165.993 20.4674 167.912 21.1878 169.74 22.0928C171.355 22.8939 172.879 23.9199 174.54 24.6058C174.741 24.6923 174.913 24.3752 174.752 24.2369C173.31 22.9804 171.511 22.1216 169.838 21.2109C168.114 20.2714 166.378 19.3549 164.492 18.7901C164.09 18.6691 163.831 19.2685 164.205 19.476V19.4818Z" fill="#FEC955"/>
<path d="M91.9371 10.2769C103.852 10.8648 114.526 14.5479 125.16 19.7238C125.436 19.8564 125.654 19.4875 125.401 19.3146C115.883 12.9167 103.686 9.82157 92.374 9.00887C86.4019 8.57658 80.4701 9.05498 74.5613 9.93685C68.595 10.8302 61.6229 11.6026 56.4613 15.0263C56.0647 15.2914 56.3004 15.9773 56.8004 15.8275C58.2719 15.3837 59.7261 14.9341 61.1803 14.5018C61.2148 14.7151 61.3642 14.8995 61.6401 14.8765C66.7327 14.4615 71.7506 13.2972 76.8432 12.8072C81.591 12.3461 86.3674 12.1386 91.1324 12.3115C95.8917 12.4787 100.783 12.9456 105.404 14.156C110.388 15.4644 115.067 17.7296 119.883 19.5163C120.205 19.6374 120.441 19.0956 120.119 18.9515C115.561 16.9169 110.882 14.6805 106.106 13.2395C101.548 11.862 96.8056 11.2568 92.0636 11.0147C86.994 10.7553 81.8956 10.9282 76.8375 11.3836C74.8257 11.568 72.768 11.7525 70.7102 12.0118C71.6414 11.8216 72.5726 11.6372 73.521 11.4873C79.6367 10.4959 85.7409 9.96567 91.9371 10.2712V10.2769Z" fill="#FEC955"/>
<path d="M105.071 9.76969C107.853 11.0377 111.106 11.4297 114.043 12.2481C117.308 13.1588 120.521 14.2424 123.78 15.1704C124.016 15.2396 124.194 14.8649 123.953 14.7554C120.97 13.4528 117.866 12.4383 114.756 11.4931C111.727 10.5709 108.416 9.25095 105.232 9.17602C104.939 9.17025 104.784 9.63136 105.071 9.76393V9.76969Z" fill="#FEC955"/>
<path d="M114.854 10.715C116.894 11.2798 119.004 12.0407 121.136 11.9484C121.24 11.9484 121.303 11.787 121.194 11.7409C119.274 10.8418 117.119 10.4614 115.095 9.84463C113.078 9.2279 110.986 8.27687 108.853 8.32298C108.629 8.32298 108.531 8.63999 108.738 8.75527C110.577 9.80429 112.831 10.1559 114.86 10.7207L114.854 10.715Z" fill="#FEC955"/>
<path d="M116.187 9.18179C117.021 9.33741 117.849 9.45269 118.688 9.55644C118.952 9.59102 118.992 9.17026 118.751 9.10109C117.906 8.86478 117.067 8.64575 116.205 8.46131C115.538 8.31721 114.842 8.05208 114.176 8.25381C114.061 8.28839 113.997 8.45554 114.101 8.542C114.676 9.0204 115.475 9.04346 116.193 9.17602L116.187 9.18179Z" fill="#FEC955"/>
<path d="M74.3027 9.23367C78.3837 9.02617 82.3957 8.06937 86.4996 7.90222C90.6553 7.73507 94.7651 8.01174 98.9093 8.26534C99.2886 8.2884 99.3864 7.65438 99.0012 7.59098C94.8858 6.91661 90.6611 6.83015 86.4996 7.01459C82.4589 7.19327 78.0733 7.33737 74.2394 8.73798C73.9865 8.8302 74.0038 9.25672 74.3084 9.23943L74.3027 9.23367Z" fill="#FEC955"/>
<path d="M34.1423 91.7372C35.3781 91.8352 36.6599 92.5153 37.3784 93.5297C37.6313 93.8871 38.2176 93.5297 37.9589 93.1897C36.9875 91.887 35.0103 90.838 33.3491 91.0282C32.4697 91.132 30.6649 92.083 31.4351 93.1839C31.4926 93.2704 31.6477 93.3222 31.7225 93.2185C31.8087 93.1032 31.8777 92.9822 31.9581 92.8727C32.1421 92.3193 32.5157 91.9562 33.0847 91.7948C33.4353 91.6853 33.786 91.6622 34.1366 91.7257L34.1423 91.7372Z" fill="#FEC955"/>
<path d="M47.4889 36.1104C38.9648 33.7703 29.2624 38.3352 22.4914 43.2114C20.5141 44.6351 18.7438 46.2663 17.1401 48.0473C17.4735 47.6035 17.8069 47.1654 18.1518 46.7389C20.1635 44.2547 22.6236 42.3123 25.2734 40.5543C30.1935 37.292 35.2517 34.8539 41.1087 33.9144C41.4364 33.8625 41.3616 33.3207 41.0283 33.3322C35.2919 33.557 29.9866 36.243 25.2561 39.3381C25.716 38.975 26.1873 38.6177 26.6701 38.2718C29.9464 35.949 33.5905 34.3063 36.9243 32.1218C37.0392 32.0469 36.9703 31.8509 36.8266 31.8913C32.8088 33.0671 28.9692 35.6724 25.5953 38.0989C22.4627 40.3583 19.1461 42.8426 16.8068 45.9435C16.6113 46.2029 16.8757 46.4622 17.1344 46.4565C15.4043 48.5084 13.9041 50.7563 12.7085 53.1425C12.6396 53.2751 12.8063 53.4192 12.9212 53.3097C13.1856 53.0503 13.4328 52.7852 13.6799 52.5085C11.3233 56.0648 9.50123 60.0015 8.13324 64.0708C8.06426 64.2783 8.39189 64.4224 8.48961 64.2206C10.1967 60.8084 11.5072 57.1484 13.381 53.8169C15.6342 49.8168 19.1921 46.5199 22.8995 43.9262C26.3482 41.5169 29.9809 39.5399 34.0044 38.2546C38.4705 36.8309 42.7411 36.9058 47.3509 36.9923C47.8682 37.0038 47.9659 36.2314 47.4716 36.0931L47.4889 36.1104Z" fill="#FEC955"/>
<path d="M27.015 35.2055C26.9287 35.3323 27.0724 35.5283 27.2219 35.4764C28.2737 35.096 29.1302 34.1623 30.0498 33.534C31.1132 32.8077 32.257 32.1968 33.2801 31.4071C33.4008 31.3149 33.3376 31.0555 33.1594 31.1247C31.9409 31.6031 30.8603 32.3409 29.7739 33.0671C28.8428 33.6839 27.6472 34.2602 27.0092 35.2055H27.015Z" fill="#FEC955"/>
<path d="M24.279 36.5196C25.5435 35.8568 26.5436 34.6176 27.6127 33.6838C28.8313 32.6175 30.1533 31.6492 31.3259 30.531C31.5328 30.3293 31.2684 29.9777 31.0155 30.1276C29.682 30.9345 28.4749 31.995 27.3024 33.0152C26.1873 33.9836 24.7733 34.9922 24.0548 36.3006C23.9743 36.4447 24.1295 36.5946 24.2732 36.5196H24.279Z" fill="#FEC955"/>
<path d="M5.75363 76.0711C5.63292 76.9933 5.71339 77.8636 5.73638 78.7916C5.73638 78.9069 5.90307 78.9069 5.91457 78.7916C6.00079 77.8405 6.06976 76.9933 5.86859 76.0595C5.85134 75.9904 5.75938 76.0134 5.75363 76.0768V76.0711Z" fill="#FEC955"/>
<path d="M6.37437 70.6531C6.37437 70.6531 6.37437 70.6242 6.37437 70.6127C6.40311 70.4456 6.44334 70.2726 6.42035 70.1055C6.4146 70.0594 6.33988 70.0536 6.32264 70.094C6.25366 70.2496 6.24792 70.4225 6.22492 70.5897C6.20768 70.63 6.21918 70.6761 6.25941 70.6992C5.8973 71.2006 5.79383 72.0652 5.71911 72.6704C5.61565 73.4716 5.63289 74.267 5.64439 75.0739C5.64439 75.1431 5.69612 75.1892 5.7536 75.218C5.54093 75.3448 5.54093 75.5927 5.67888 75.8059C5.64439 75.8924 5.67888 76.0077 5.79383 76.0077C5.90879 76.0077 5.94328 75.8924 5.91454 75.8117C5.93178 75.7771 5.93753 75.7368 5.91454 75.7022C5.85706 75.5927 5.92029 75.4197 5.98351 75.3218C6.01225 75.2756 5.98351 75.218 5.94328 75.1892C5.96052 75.1719 5.97777 75.1546 5.98351 75.1258C6.10422 74.3765 6.22492 73.6387 6.31114 72.8837C6.38586 72.1805 6.59279 71.3735 6.42035 70.6876C6.4146 70.6646 6.39736 70.6588 6.38012 70.6531H6.37437Z" fill="#FEC955"/>
<path d="M61.824 35.6435C62.531 36.3698 63.1863 37.1421 63.6174 38.0701C64.1059 39.1249 64.1289 40.2373 64.4278 41.3324C64.4566 41.4362 64.5888 41.4189 64.6232 41.3324C65.3417 39.4765 64.2554 37.2055 63.1116 35.753C61.985 34.3236 59.9272 31.9259 57.904 32.093C57.7086 32.1103 57.5534 32.3639 57.7258 32.5195C59.0133 33.6665 60.5825 34.3697 61.824 35.6435Z" fill="#FEC955"/>
</g>
<defs>
<clipPath id="clip0_111_938">
<rect width="313" height="115" fill="white"/>
</clipPath>
</defs>
</svg>
