<?xml version="1.0" encoding="UTF-8"?><svg id="uuid-fc915254-f3fd-434c-b881-3ab2d63ad347" xmlns="http://www.w3.org/2000/svg" viewBox="0 0 40 40"><defs><style>.uuid-1eae16c6-a664-47fc-9353-2a94c779a19c{stroke-width:0px;}</style></defs><path class="uuid-1eae16c6-a664-47fc-9353-2a94c779a19c" d="m17.11,11.01l.61-1.9h.27l.32-1h-1.33l-1.02,3.16c.4.08.81-.02,1.13-.26Z"/><path class="uuid-1eae16c6-a664-47fc-9353-2a94c779a19c" d="m10.15,16.18l.57-.08c.15-.02.29-.07.42-.14-.02-.17-.06-.33-.12-.49l-1.13-2.79,1.01-.85-.33-.8.9-.76-.16-.1-2.63,2.21,1.41,3.46c.04.11.05.22.05.33Z"/><path class="uuid-1eae16c6-a664-47fc-9353-2a94c779a19c" d="m31.21,20.22l.04.24-1.71.9c-.2.36-.24.79-.1,1.18l2.92-1.54-.22-1.27-.93.49Z"/><path class="uuid-1eae16c6-a664-47fc-9353-2a94c779a19c" d="m30.63,27.86l-.88-.19-.65,1.13-2.95-.63c-.16-.03-.31-.04-.47-.04-.05.15-.08.3-.07.47l.02.55c.1-.01.21-.03.31,0l3.66.79,1.72-2.97-.1-.11-.59,1.01Z"/><path class="uuid-1eae16c6-a664-47fc-9353-2a94c779a19c" d="m23.92,32.63l.02.5-1.86.68-1.85-2.38c-.37-.47-.92-.74-1.52-.74h0c-.07,0-.14.02-.21.02l-1.7,2.19-.58-.21-.87,1.12-1.86-.68.11-3.01c.02-.6-.23-1.16-.69-1.54-.46-.38-1.05-.53-1.64-.41l-2.94.63-.99-1.71.96-1.06-.29-.51,1.83-2.03c0-.09,0-.17-.02-.26-.1-.59-.47-1.09-.99-1.37l-2.66-1.41.34-1.95.52-.07.18-1.03-1.57.22-.6,3.38,3.31,1.75c.25.13.43.37.48.65s-.03.57-.22.78l-2.51,2.77,1.72,2.97,3.66-.79c.28-.06.57.01.79.2.22.18.34.45.33.74l-.14,3.74,3.23,1.17,2.3-2.95c.18-.23.44-.36.73-.36h0c.29,0,.55.13.73.36l2.3,2.95,3.23-1.17-.06-1.55-.99.36Z"/><path class="uuid-1eae16c6-a664-47fc-9353-2a94c779a19c" d="m23.02,33.49l-2.3-2.95c-.35-.45-1.1-.45-1.46,0l-2.3,2.95-3.23-1.17.14-3.74c.01-.29-.11-.56-.33-.74-.22-.18-.51-.26-.79-.2l-3.66.79-1.72-2.97,2.51-2.77c.19-.21.27-.5.22-.78-.05-.28-.22-.52-.48-.65l-3.31-1.75.6-3.38,3.71-.51c.28-.04.53-.2.67-.45.14-.25.16-.54.06-.81l-1.41-3.46,2.63-2.21,3.17,1.99c.24.15.54.18.81.09.27-.1.47-.31.56-.58l1.15-3.56h3.43l1.15,3.56c.09.27.29.49.56.58.27.1.56.07.81-.09l3.17-1.99,2.63,2.21-1.41,3.46c-.11.27-.09.56.06.81.14.25.39.41.67.45l3.71.51.6,3.38-3.31,1.75c-.25.13-.43.37-.48.65-.05.28.03.57.22.78l2.51,2.77-1.72,2.97-3.66-.79c-.27-.06-.57.01-.79.2-.22.18-.34.45-.33.74l.14,3.74-3.23,1.17Zm-3.02-4.31c.6,0,1.15.27,1.52.74l1.85,2.38,1.86-.68-.11-3.01c-.02-.6.23-1.16.69-1.54.46-.38,1.05-.53,1.64-.41l2.95.63.99-1.71-2.02-2.24c-.4-.44-.57-1.03-.47-1.62s.47-1.09.99-1.37l2.66-1.41-.34-1.95-2.98-.41c-.59-.08-1.1-.43-1.4-.94s-.34-1.13-.12-1.68l1.13-2.79-1.51-1.27-2.55,1.6c-.5.32-1.12.38-1.68.18-.56-.2-.99-.65-1.17-1.22l-.93-2.87h-1.98l-.93,2.87c-.18.57-.61,1.01-1.17,1.22-.56.21-1.17.14-1.68-.18l-2.55-1.6-1.51,1.27,1.13,2.79c.23.55.18,1.17-.12,1.68s-.81.86-1.4.94l-2.98.41-.34,1.95,2.66,1.41c.53.28.89.78.99,1.37s-.07,1.18-.47,1.62l-2.02,2.24.99,1.71,2.94-.63c.59-.12,1.18.02,1.64.41.46.38.71.95.69,1.54l-.11,3.01,1.86.68,1.85-2.38c.37-.47.92-.74,1.52-.74Z"/><path class="uuid-1eae16c6-a664-47fc-9353-2a94c779a19c" d="m22.28,23.78c-.12,0-.23-.04-.33-.12-.17-.15-.22-.4-.12-.6.25-.51.38-1.03.38-1.55,0-1.93-1.57-3.5-3.5-3.5-.71,0-1.4.22-2,.63-.19.13-.44.12-.61-.03-.17-.15-.22-.4-.12-.6.77-1.54,2.31-2.5,4.01-2.5,2.48,0,4.5,2.02,4.5,4.5,0,1.47-.72,2.85-1.93,3.69-.09.06-.19.09-.29.09Zm-3.57-6.78c2.44,0,4.43,1.95,4.5,4.38.19-.43.29-.9.29-1.38,0-1.93-1.57-3.5-3.5-3.5-.67,0-1.31.19-1.86.54.19-.02.38-.04.57-.04Z"/><path class="uuid-1eae16c6-a664-47fc-9353-2a94c779a19c" d="m20,24.5c-2.48,0-4.5-2.02-4.5-4.5,0-.68.16-1.35.49-2l.06-.11.1-.07c.76-.53,1.65-.81,2.57-.81,2.48,0,4.5,2.02,4.5,4.5,0,.68-.16,1.35-.49,2l-.06.11-.1.07c-.76.53-1.65.81-2.57.81Zm-3.17-5.94c-.22.47-.33.95-.33,1.44,0,1.93,1.57,3.5,3.5,3.5.67,0,1.32-.19,1.89-.56.21-.47.32-.95.32-1.44,0-1.93-1.57-3.5-3.5-3.5-.67,0-1.32.19-1.89.56Z"/><path class="uuid-1eae16c6-a664-47fc-9353-2a94c779a19c" d="m20,28c-4.41,0-8-3.59-8-8s3.59-8,8-8,8,3.59,8,8-3.59,8-8,8Zm0-15c-3.86,0-7,3.14-7,7s3.14,7,7,7,7-3.14,7-7-3.14-7-7-7Z"/></svg>