<?xml version="1.0" encoding="UTF-8"?><svg id="uuid-28c3988b-2ffb-4222-9131-774e9f485feb" xmlns="http://www.w3.org/2000/svg" viewBox="0 0 40 40"><defs><style>.uuid-27af1683-3c11-49b8-87ba-ca3f35905f06{stroke-width:0px;}</style></defs><polygon class="uuid-27af1683-3c11-49b8-87ba-ca3f35905f06" points="3.35 21.48 2.65 20.77 12 11.42 16 15.42 27.5 3.92 37.35 13.77 36.65 14.48 27.5 5.33 16 16.83 12 12.83 3.35 21.48"/><path class="uuid-27af1683-3c11-49b8-87ba-ca3f35905f06" d="m11.21,19.34l-2.63-3.94.83-.55,1.44,2.16c.32-.74.86-1.66,1.68-1.89.42-.12,1.08-.09,1.82.65l-.71.71c-.33-.33-.61-.46-.85-.4-.62.17-1.15,1.53-1.31,2.16l-.28,1.09Z"/><path class="uuid-27af1683-3c11-49b8-87ba-ca3f35905f06" d="m27.65,15.48c-.09-.09-2.15-2.17-2.15-4.35,0-.31-.1-.54-.3-.73-.58-.53-1.83-.56-2.27-.53l-.08-1c.21-.02,2.03-.13,3.03.79.41.38.62.88.62,1.46,0,.4.09.8.24,1.18,0-.02.02-.03.03-.05.15-.29.49-.63,1.24-.63.36,0,.5-.13.57-.23.33-.45.15-1.54-.05-2.11l-.31-.95.95.31c.11.04,2.32.79,3.08,2.37.1-.33.19-.68.27-1.01l.97.24c-.75,3.02-1.04,2.98-1.45,2.94-.54-.07-.54-.71-.54-1.06,0-.99-1.02-1.72-1.79-2.14.09.64.08,1.44-.32,1.99-.21.29-.62.64-1.38.64-.07,0-.31,0-.36.1-.17.31.27,1.37.77,2.12l-.77.63Z"/><path class="uuid-27af1683-3c11-49b8-87ba-ca3f35905f06" d="m26.4,27.32c-1.45-.32-3.04-.55-4.78-.65-.03.37-.08.71-.17,1,1.73.09,3.32.32,4.76.65l.18-1Z"/><path class="uuid-27af1683-3c11-49b8-87ba-ca3f35905f06" d="m22,24.8c-.1-.52-.15-1.09-.2-1.64-.12-1.29-.22-2.4-.97-2.83-.42-.23-.91-.2-1.53.11-1.34.66-1.33,1.54-1.3,3.88,0,.45.01.97,0,1.57,0,.33,0,.59.02.82-.43.03-.85.05-1.26.1.16.34.19.68.13,1,.48-.05.98-.1,1.49-.13.03.02.06.04.09.06.26.13.5.03.66-.08.08,0,.16,0,.23,0,.31.68.4,1.02.45,1.18.05.2.13.34.27.44,0,1.36-.1,2.56-.1,2.58l1,.09c0-.07.12-1.33.1-2.75.09-.06.19-.12.28-.22.59-.67,1.02-2.21.63-4.17Zm-1,3.2c-.04.33-.73.64-.59-.46-.05-.11-.09-.21-.15-.34-.07-.15-.28-.61-.73-.72-.06-.01-.12-.02-.18-.02-.12,0-.24.03-.34.07,0-.16-.01-.37-.01-.64,0-.6,0-1.12,0-1.58-.03-2.29,0-2.6.75-2.97.28-.14.5-.19.6-.13.29.16.39,1.25.46,2.04.05.58.11,1.17.22,1.74.21,1.07.14,2.43-.01,3.01Z"/><path class="uuid-27af1683-3c11-49b8-87ba-ca3f35905f06" d="m8.36,29.02c-2.91,1.28-4.55,2.61-4.68,2.72l.64.77s1.54-1.26,4.27-2.48c-.13-.28-.21-.61-.23-1.01Z"/><path class="uuid-27af1683-3c11-49b8-87ba-ca3f35905f06" d="m31.69,29.04l.22,1.23c2.4,1.14,3.74,2.22,3.77,2.24l.64-.77c-.13-.11-1.75-1.43-4.63-2.7Z"/><path class="uuid-27af1683-3c11-49b8-87ba-ca3f35905f06" d="m32.99,33.38h-8.2l2-11h-1.9v-5.72l2.67,2.72h2.34l2.99-2.6v5.6h-1.9l2,11Zm-7-1h5.8l-2-11h2.1v-2.4l-1.62,1.4h-3.13l-1.25-1.28v2.28h2.1l-2,11Z"/><rect class="uuid-27af1683-3c11-49b8-87ba-ca3f35905f06" x="27.89" y="30.38" width="2" height="2"/><rect class="uuid-27af1683-3c11-49b8-87ba-ca3f35905f06" x="24.89" y="17.38" width="8" height="1"/><rect class="uuid-27af1683-3c11-49b8-87ba-ca3f35905f06" x="28" y="23.38" width="1" height="2"/><rect class="uuid-27af1683-3c11-49b8-87ba-ca3f35905f06" x="28" y="26.38" width="1" height="2"/><path class="uuid-27af1683-3c11-49b8-87ba-ca3f35905f06" d="m16.89,26.07c-.45-.57-.39-1.62-.32-2.74.11-1.79.24-4.03-1.77-5.37-.35-.24-.64-.16-.78-.09-.53.27-.58,1.03-.67,2.54-.1,1.75-.24,4.14-1.27,5.68-.57.84-.72,1.66-.46,2.44.41,1.21,1.73,1.91,2.36,2.18v4.66s.99,0,.99,0v-4.71c.62-.36,2.12-1.37,2.4-2.71.14-.65-.03-1.31-.48-1.89Zm-2.37-7.7l-.28.41s0,0,0,0l.29-.41Zm1.88,9.37c-.19.88-1.34,1.72-1.95,2.08-.57-.24-1.6-.81-1.87-1.62-.16-.47-.05-.98.34-1.56,1.18-1.76,1.33-4.31,1.44-6.17.03-.52.07-1.14.13-1.51,1.28,1.05,1.19,2.7,1.09,4.31-.08,1.31-.15,2.55.53,3.42.27.35.37.69.29,1.06Z"/><path class="uuid-27af1683-3c11-49b8-87ba-ca3f35905f06" d="m12.16,28.51c-.22,1.32-1.35,2.09-1.75,2.33-.27-.07-.88-.26-1.24-.79-.34-.5-.4-1.19-.18-2.07.28-1.1.51-2.15.71-3.06.19-.88.4-1.83.58-2.41.82,1.68,1.11,2.57,1.75,4.52.03.08.04.15.06.23.07-.28.2-.57.42-.89.08-.13.16-.26.23-.4-.55-1.64-.88-2.55-1.77-4.33-.25-.5-.56-.57-.79-.55-.68.08-.87.97-1.45,3.61-.2.9-.43,1.94-.7,3.03-.29,1.17-.18,2.13.33,2.88.48.7,1.19,1.01,1.65,1.14v1.6s1,0,1,0v-1.71c.68-.41,1.5-1.15,1.93-2.18-.31-.26-.59-.58-.75-.96Z"/></svg>