<?xml version="1.0" encoding="UTF-8"?><svg id="uuid-fd3295bd-de6f-413e-9602-8a956597f199" xmlns="http://www.w3.org/2000/svg" viewBox="0 0 40 40"><defs><style>.uuid-0783d74d-56ac-477c-95e4-b653ef9a048e{fill:none;stroke:#000;stroke-miterlimit:10;}.uuid-4482fb7e-ab63-4cae-8fb3-00bc72b1ba8c{stroke-width:0px;}</style></defs><path class="uuid-4482fb7e-ab63-4cae-8fb3-00bc72b1ba8c" d="m31.33,17.07c.11.63.17,1.27.17,1.93,0,1.34-.24,2.62-.66,3.82-.87,5.2-5.39,9.18-10.84,9.18s-9.96-3.98-10.84-9.18c-.42-1.2-.66-2.48-.66-3.82,0-.66.07-1.3.17-1.93-.43,1.23-.67,2.55-.67,3.93,0,6.62,5.38,12,12,12s12-5.38,12-12c0-1.38-.25-2.7-.67-3.93Z"/><path class="uuid-4482fb7e-ab63-4cae-8fb3-00bc72b1ba8c" d="m20,31c-6.62,0-12-5.38-12-12s5.38-12,12-12,12,5.38,12,12-5.38,12-12,12Zm0-23c-6.07,0-11,4.93-11,11s4.93,11,11,11,11-4.93,11-11-4.93-11-11-11Z"/><rect class="uuid-0783d74d-56ac-477c-95e4-b653ef9a048e" x="21.99" y="22.63" width=".41" height="3.79" transform="translate(-10.84 22.88) rotate(-45)"/><rect class="uuid-0783d74d-56ac-477c-95e4-b653ef9a048e" x="14.77" y="15.41" width=".41" height="3.79" transform="translate(-7.85 15.66) rotate(-45)"/><rect class="uuid-0783d74d-56ac-477c-95e4-b653ef9a048e" x="19.79" y="22.12" width=".41" height=".41" transform="translate(-9.93 20.68) rotate(-45)"/><rect class="uuid-0783d74d-56ac-477c-95e4-b653ef9a048e" x="15.91" y="24.32" width="3.79" height=".41" transform="translate(-12.13 19.78) rotate(-45.01)"/><rect class="uuid-0783d74d-56ac-477c-95e4-b653ef9a048e" x="23.13" y="17.1" width="3.79" height=".41" transform="translate(-4.91 22.77) rotate(-45.01)"/><polygon class="uuid-0783d74d-56ac-477c-95e4-b653ef9a048e" points="27.22 22.89 22.83 18.5 26.22 15.11 23.39 12.28 20 15.67 16.61 12.28 13.78 15.11 17.17 18.5 12.78 22.89 15.61 25.72 20 21.33 24.39 25.72 27.22 22.89"/></svg>