<?xml version="1.0" encoding="UTF-8"?><svg id="uuid-57873ce8-e8fd-4871-9815-41263c56ba11" xmlns="http://www.w3.org/2000/svg" viewBox="0 0 40 40"><defs><style>.uuid-d6e13469-e62b-4622-ba5f-a2f02d80161f,.uuid-baf1608c-5eaa-4d3f-92a6-891b7521c252{stroke-width:0px;}.uuid-baf1608c-5eaa-4d3f-92a6-891b7521c252{fill:#fff;}</style></defs><path class="uuid-d6e13469-e62b-4622-ba5f-a2f02d80161f" d="m19.5,33c-9.33,0-10.48-7.36-10.5-7.43l.99-.14c.04.27,1.07,6.57,9.5,6.57s10.5-6.57,10.52-6.64l.96.28c-.02.07-2.21,7.36-11.48,7.36Z"/><path class="uuid-d6e13469-e62b-4622-ba5f-a2f02d80161f" d="m23.06,15.4v-4.26c-.32.08-.65.15-1,.2v4.91l.42.06c5.52.84,9.52,4.7,9.52,9.19,0,4.86-4.94,8.25-12,8.25s-12-3.39-12-8.25c0-4.48,4-8.35,9.52-9.19l.42-.06v-4.91c-.35-.05-.68-.12-1-.2v4.26c-5.79,1.05-9.95,5.24-9.95,10.1,0,5.45,5.35,9.25,13,9.25s13-3.8,13-9.25c0-4.86-4.16-9.06-9.95-10.1Z"/><path class="uuid-d6e13469-e62b-4622-ba5f-a2f02d80161f" d="m20,28c-.45,0-11-.03-11-2.5s10.55-2.5,11-2.5,11,.03,11,2.5-10.55,2.5-11,2.5Zm0-4c-6.2,0-9.76.98-10,1.53.25.49,3.8,1.47,10,1.47s9.62-.95,9.99-1.5c-.37-.55-3.9-1.5-9.99-1.5Z"/><path class="uuid-d6e13469-e62b-4622-ba5f-a2f02d80161f" d="m12.95,22.75c-.43,0-.81-.23-1.06-.65-.4-.65-.46-1.67-.13-2.33.83-1.66,3.75-2.43,4.08-2.51l1.33-.33-.8,1.11c-.51.7-1.31,2.05-1.31,2.71,0,1.18-.86,2-2.09,2Zm1.82-4.07c-.85.36-1.79.89-2.12,1.55-.17.34-.13,1,.09,1.35.07.11.14.17.21.17.18,0,1.09-.05,1.09-1,0-.61.36-1.41.73-2.07Z"/><circle class="uuid-baf1608c-5eaa-4d3f-92a6-891b7521c252" cx="22" cy="30" r=".5"/><path class="uuid-d6e13469-e62b-4622-ba5f-a2f02d80161f" d="m22,31c-.55,0-1-.45-1-1s.45-1,1-1,1,.45,1,1-.45,1-1,1Zm0-1h0s.5,0,.5,0h-.5Z"/><circle class="uuid-baf1608c-5eaa-4d3f-92a6-891b7521c252" cx="24" cy="29" r=".5"/><path class="uuid-d6e13469-e62b-4622-ba5f-a2f02d80161f" d="m24,30c-.55,0-1-.45-1-1s.45-1,1-1,1,.45,1,1-.45,1-1,1Zm0-1h0s.5,0,.5,0h-.5Z"/><circle class="uuid-baf1608c-5eaa-4d3f-92a6-891b7521c252" cx="16" cy="30" r=".5"/><path class="uuid-d6e13469-e62b-4622-ba5f-a2f02d80161f" d="m16,31c-.55,0-1-.45-1-1s.45-1,1-1,1,.45,1,1-.45,1-1,1Zm0-1h0s.5,0,.5,0h-.5Z"/><path class="uuid-d6e13469-e62b-4622-ba5f-a2f02d80161f" d="m20,5.84c-3.72,0-6.53,1.33-6.53,3.08s2.81,3.08,6.53,3.08,6.53-1.33,6.53-3.08-2.81-3.08-6.53-3.08Zm0,5.16c-3.16,0-5.53-1.1-5.53-2.08,0-.75,1.39-1.57,3.45-1.91.55-.3,1.27-.51,2.08-.51s1.53.21,2.08.51c2.06.34,3.45,1.16,3.45,1.91,0,.98-2.36,2.08-5.53,2.08Z"/><path class="uuid-d6e13469-e62b-4622-ba5f-a2f02d80161f" d="m20,10c-1.79,0-3.6-.63-3.6-1.83,0-1.14,1.71-2.17,3.6-2.17s3.6,1.04,3.6,2.17c0,1.2-1.81,1.83-3.6,1.83Zm0-3c-1.56,0-2.6.83-2.6,1.17,0,.24.91.83,2.6.83s2.6-.59,2.6-.83c0-.34-1.03-1.17-2.6-1.17Z"/></svg>