<?xml version="1.0" encoding="UTF-8"?><svg id="uuid-60fed3d7-1877-430e-910c-ae545f298cb6" xmlns="http://www.w3.org/2000/svg" viewBox="0 0 40 40"><defs><style>.uuid-0b68541a-1955-47ab-ad03-5ca30a056bb3,.uuid-e8252f0b-4cb2-488c-99a6-845d5a398893,.uuid-6c814cbb-b4fe-4548-bddd-f36b63b214d8{stroke-width:0px;}.uuid-e8252f0b-4cb2-488c-99a6-845d5a398893{fill:#fec955;}.uuid-6c814cbb-b4fe-4548-bddd-f36b63b214d8{fill:#fff;}</style></defs><path class="uuid-0b68541a-1955-47ab-ad03-5ca30a056bb3" d="m34.5,14.5H11l-.34-.13-6-5.5.34-.87h23l.32.12,6.5,5.5-.32.88Zm-23.31-1h21.94l-5.32-4.5H6.29l4.91,4.5Z"/><path class="uuid-0b68541a-1955-47ab-ad03-5ca30a056bb3" d="m35.5,31H8.5V15h27v16Zm-26-1h25v-14H9.5v14Z"/><circle class="uuid-e8252f0b-4cb2-488c-99a6-845d5a398893" cx="15" cy="13.5" r="2"/><path class="uuid-0b68541a-1955-47ab-ad03-5ca30a056bb3" d="m15,16c-1.38,0-2.5-1.12-2.5-2.5s1.12-2.5,2.5-2.5,2.5,1.12,2.5,2.5-1.12,2.5-2.5,2.5Zm0-4c-.83,0-1.5.67-1.5,1.5s.67,1.5,1.5,1.5,1.5-.67,1.5-1.5-.67-1.5-1.5-1.5Z"/><circle class="uuid-e8252f0b-4cb2-488c-99a6-845d5a398893" cx="23" cy="14.5" r="2"/><path class="uuid-0b68541a-1955-47ab-ad03-5ca30a056bb3" d="m23,17c-1.38,0-2.5-1.12-2.5-2.5s1.12-2.5,2.5-2.5,2.5,1.12,2.5,2.5-1.12,2.5-2.5,2.5Zm0-4c-.83,0-1.5.67-1.5,1.5s.67,1.5,1.5,1.5,1.5-.67,1.5-1.5-.67-1.5-1.5-1.5Z"/><rect class="uuid-0b68541a-1955-47ab-ad03-5ca30a056bb3" x="3.3" y="17" width="6.4" height="1" transform="translate(-9.51 7.9) rotate(-38.66)"/><line class="uuid-6c814cbb-b4fe-4548-bddd-f36b63b214d8" x1="35" y1="15.5" x2="30" y2="19.5"/><rect class="uuid-0b68541a-1955-47ab-ad03-5ca30a056bb3" x="29.3" y="17" width="6.4" height="1" transform="translate(-3.81 24.14) rotate(-38.66)"/><circle class="uuid-e8252f0b-4cb2-488c-99a6-845d5a398893" cx="9" cy="17.5" r="2"/><path class="uuid-0b68541a-1955-47ab-ad03-5ca30a056bb3" d="m9,20c-1.38,0-2.5-1.12-2.5-2.5s1.12-2.5,2.5-2.5,2.5,1.12,2.5,2.5-1.12,2.5-2.5,2.5Zm0-4c-.83,0-1.5.67-1.5,1.5s.67,1.5,1.5,1.5,1.5-.67,1.5-1.5-.67-1.5-1.5-1.5Z"/><circle class="uuid-e8252f0b-4cb2-488c-99a6-845d5a398893" cx="11" cy="15.5" r="2"/><path class="uuid-0b68541a-1955-47ab-ad03-5ca30a056bb3" d="m11,18c-1.38,0-2.5-1.12-2.5-2.5s1.12-2.5,2.5-2.5,2.5,1.12,2.5,2.5-1.12,2.5-2.5,2.5Zm0-4c-.83,0-1.5.67-1.5,1.5s.67,1.5,1.5,1.5,1.5-.67,1.5-1.5-.67-1.5-1.5-1.5Z"/><circle class="uuid-e8252f0b-4cb2-488c-99a6-845d5a398893" cx="12" cy="18.5" r="2"/><path class="uuid-0b68541a-1955-47ab-ad03-5ca30a056bb3" d="m12,21c-1.38,0-2.5-1.12-2.5-2.5s1.12-2.5,2.5-2.5,2.5,1.12,2.5,2.5-1.12,2.5-2.5,2.5Zm0-4c-.83,0-1.5.67-1.5,1.5s.67,1.5,1.5,1.5,1.5-.67,1.5-1.5-.67-1.5-1.5-1.5Z"/><circle class="uuid-e8252f0b-4cb2-488c-99a6-845d5a398893" cx="15" cy="16.5" r="2"/><path class="uuid-0b68541a-1955-47ab-ad03-5ca30a056bb3" d="m15,19c-1.38,0-2.5-1.12-2.5-2.5s1.12-2.5,2.5-2.5,2.5,1.12,2.5,2.5-1.12,2.5-2.5,2.5Zm0-4c-.83,0-1.5.67-1.5,1.5s.67,1.5,1.5,1.5,1.5-.67,1.5-1.5-.67-1.5-1.5-1.5Z"/><circle class="uuid-6c814cbb-b4fe-4548-bddd-f36b63b214d8" cx="16" cy="19.5" r="2"/><path class="uuid-0b68541a-1955-47ab-ad03-5ca30a056bb3" d="m16,22c-1.38,0-2.5-1.12-2.5-2.5s1.12-2.5,2.5-2.5,2.5,1.12,2.5,2.5-1.12,2.5-2.5,2.5Zm0-4c-.83,0-1.5.67-1.5,1.5s.67,1.5,1.5,1.5,1.5-.67,1.5-1.5-.67-1.5-1.5-1.5Z"/><circle class="uuid-e8252f0b-4cb2-488c-99a6-845d5a398893" cx="23" cy="17.5" r="2"/><path class="uuid-0b68541a-1955-47ab-ad03-5ca30a056bb3" d="m23,20c-1.38,0-2.5-1.12-2.5-2.5s1.12-2.5,2.5-2.5,2.5,1.12,2.5,2.5-1.12,2.5-2.5,2.5Zm0-4c-.83,0-1.5.67-1.5,1.5s.67,1.5,1.5,1.5,1.5-.67,1.5-1.5-.67-1.5-1.5-1.5Z"/><circle class="uuid-e8252f0b-4cb2-488c-99a6-845d5a398893" cx="20" cy="18.5" r="2"/><path class="uuid-0b68541a-1955-47ab-ad03-5ca30a056bb3" d="m20,21c-1.38,0-2.5-1.12-2.5-2.5s1.12-2.5,2.5-2.5,2.5,1.12,2.5,2.5-1.12,2.5-2.5,2.5Zm0-4c-.83,0-1.5.67-1.5,1.5s.67,1.5,1.5,1.5,1.5-.67,1.5-1.5-.67-1.5-1.5-1.5Z"/><circle class="uuid-e8252f0b-4cb2-488c-99a6-845d5a398893" cx="19" cy="15.5" r="2"/><path class="uuid-0b68541a-1955-47ab-ad03-5ca30a056bb3" d="m19,18c-1.38,0-2.5-1.12-2.5-2.5s1.12-2.5,2.5-2.5,2.5,1.12,2.5,2.5-1.12,2.5-2.5,2.5Zm0-4c-.83,0-1.5.67-1.5,1.5s.67,1.5,1.5,1.5,1.5-.67,1.5-1.5-.67-1.5-1.5-1.5Z"/><circle class="uuid-e8252f0b-4cb2-488c-99a6-845d5a398893" cx="17" cy="17.5" r="2"/><path class="uuid-0b68541a-1955-47ab-ad03-5ca30a056bb3" d="m17,20c-1.38,0-2.5-1.12-2.5-2.5s1.12-2.5,2.5-2.5,2.5,1.12,2.5,2.5-1.12,2.5-2.5,2.5Zm0-4c-.83,0-1.5.67-1.5,1.5s.67,1.5,1.5,1.5,1.5-.67,1.5-1.5-.67-1.5-1.5-1.5Z"/><circle class="uuid-e8252f0b-4cb2-488c-99a6-845d5a398893" cx="25" cy="19.5" r="2"/><path class="uuid-0b68541a-1955-47ab-ad03-5ca30a056bb3" d="m25,22c-1.38,0-2.5-1.12-2.5-2.5s1.12-2.5,2.5-2.5,2.5,1.12,2.5,2.5-1.12,2.5-2.5,2.5Zm0-4c-.83,0-1.5.67-1.5,1.5s.67,1.5,1.5,1.5,1.5-.67,1.5-1.5-.67-1.5-1.5-1.5Z"/><circle class="uuid-e8252f0b-4cb2-488c-99a6-845d5a398893" cx="26" cy="16.5" r="2"/><path class="uuid-0b68541a-1955-47ab-ad03-5ca30a056bb3" d="m26,19c-1.38,0-2.5-1.12-2.5-2.5s1.12-2.5,2.5-2.5,2.5,1.12,2.5,2.5-1.12,2.5-2.5,2.5Zm0-4c-.83,0-1.5.67-1.5,1.5s.67,1.5,1.5,1.5,1.5-.67,1.5-1.5-.67-1.5-1.5-1.5Z"/><circle class="uuid-e8252f0b-4cb2-488c-99a6-845d5a398893" cx="28" cy="18.5" r="2"/><path class="uuid-0b68541a-1955-47ab-ad03-5ca30a056bb3" d="m28,21c-1.38,0-2.5-1.12-2.5-2.5s1.12-2.5,2.5-2.5,2.5,1.12,2.5,2.5-1.12,2.5-2.5,2.5Zm0-4c-.83,0-1.5.67-1.5,1.5s.67,1.5,1.5,1.5,1.5-.67,1.5-1.5-.67-1.5-1.5-1.5Z"/><path class="uuid-0b68541a-1955-47ab-ad03-5ca30a056bb3" d="m36,16.21l-.71-.71,1.98-1.98-8.46-7.52H8c-2.41,0-2.5,2.25-2.5,2.5v.5s-1,0-1,0v-.5c0-1.21.73-3.5,3.5-3.5h21.19l9.54,8.48-2.73,2.73Z"/><rect class="uuid-e8252f0b-4cb2-488c-99a6-845d5a398893" x="4" y="19.5" width="26" height="15"/><path class="uuid-0b68541a-1955-47ab-ad03-5ca30a056bb3" d="m30.5,35H3.5v-16h27v16Zm-26-1h25v-14H4.5v14Z"/><rect class="uuid-e8252f0b-4cb2-488c-99a6-845d5a398893" x="3.5" y="19.5" width="27" height="6"/><path class="uuid-0b68541a-1955-47ab-ad03-5ca30a056bb3" d="m31,26H3v-7h28v7Zm-27-1h26v-5H4v5Z"/><rect class="uuid-e8252f0b-4cb2-488c-99a6-845d5a398893" x="3.5" y="28.5" width="27" height="6"/><path class="uuid-0b68541a-1955-47ab-ad03-5ca30a056bb3" d="m31,35H3v-7h28v7Zm-27-1h26v-5H4v5Z"/><polygon class="uuid-e8252f0b-4cb2-488c-99a6-845d5a398893" points="30.5 34.5 35.5 30.5 35.5 24.5 30.5 28.5 30.5 34.5"/><path class="uuid-0b68541a-1955-47ab-ad03-5ca30a056bb3" d="m30.81,34.89l-.81-.39v-6l.19-.39,5-4,.81.39v6l-.19.39-5,4Zm.19-6.15v4.72l4-3.2v-4.72l-4,3.2Z"/><polygon class="uuid-e8252f0b-4cb2-488c-99a6-845d5a398893" points="30.5 25.59 35.5 21.59 35.5 15.59 30.5 19.59 30.5 25.59"/><path class="uuid-0b68541a-1955-47ab-ad03-5ca30a056bb3" d="m30.81,25.98l-.81-.39v-6l.19-.39,5-4,.81.39v6l-.19.39-5,4Zm.19-6.15v4.72l4-3.2v-4.72l-4,3.2Z"/><rect class="uuid-e8252f0b-4cb2-488c-99a6-845d5a398893" x="13.5" y="24.5" width="6" height="6"/><path class="uuid-0b68541a-1955-47ab-ad03-5ca30a056bb3" d="m19.5,31h-6l-.5-.5v-6l.5-.5h6l.5.5v6l-.5.5Zm-5.5-1h5v-5h-5v5Z"/><rect class="uuid-0b68541a-1955-47ab-ad03-5ca30a056bb3" x="16" y="27.5" width="1" height="1.5"/><ellipse class="uuid-0b68541a-1955-47ab-ad03-5ca30a056bb3" cx="16.5" cy="27" rx="1.5" ry="1"/><path class="uuid-0b68541a-1955-47ab-ad03-5ca30a056bb3" d="m18.85,24.85l-.71-.71c.15-.15.59-.7,0-1.29l.71-.71c.99.99.54,2.16,0,2.71Z"/><path class="uuid-0b68541a-1955-47ab-ad03-5ca30a056bb3" d="m14.03,24.66c-.02-.07-.53-1.64.25-2.72.45-.62,1.2-.94,2.23-.94v1c-.69,0-1.16.18-1.41.52-.48.66-.12,1.81-.11,1.82l-.95.32Z"/><polygon class="uuid-e8252f0b-4cb2-488c-99a6-845d5a398893" points="16.5 5.5 15.5 9.5 18.5 9.5 19.5 5.5 16.5 5.5"/><path class="uuid-0b68541a-1955-47ab-ad03-5ca30a056bb3" d="m18.5,10h-3l-.49-.62,1-4,.49-.38h3l.49.62-1,4-.49.38Zm-2.36-1h1.97l.75-3h-1.97l-.75,3Z"/></svg>