<svg width="159" height="159" viewBox="0 0 159 159" fill="none" xmlns="http://www.w3.org/2000/svg">
<g id="Frame Filigree BL" clip-path="url(#clip0_75_578)">
<path id="Vector" d="M95.1623 84.4145C96.669 84.6005 98.0131 84.2421 99.1913 83.3461C99.5773 82.8998 99.838 82.4704 99.9768 82.0545C100.491 79.3732 100.955 77.7604 101.365 77.2194C101.907 76.4214 102.807 75.8838 104.07 75.6032C104.9 75.2752 106.105 75.5389 107.683 76.3944C109.802 78.0478 111.153 79.522 111.735 80.8136L112.71 83.4813L113.029 85.1212C113.174 86.3553 113.113 87.6334 112.853 88.9555C112.216 91.9377 110.706 94.974 108.326 98.0711C105.966 100.151 104.324 101.03 103.393 100.708C103.031 100.617 102.828 100.353 102.787 99.9173C103.112 97.3577 103.186 95.8429 103.004 95.373C102.905 94.8624 102.31 94.6088 101.219 94.602C99.3403 94.9165 97.7118 96.3907 96.327 99.028C95.3485 101.993 97.7016 104.002 103.39 105.053C104.575 105.138 106.081 104.739 107.906 103.863C111.085 101.959 113.286 100.337 114.512 98.9874C115.687 97.8446 117.058 96.0086 118.629 93.4761C119.925 90.9064 120.684 88.6681 120.904 86.7577C121.239 84.5058 121.297 82.4298 121.073 80.5296C120.961 79.5795 120.779 78.6733 120.528 77.8111C119.776 75.7317 119.242 74.5381 118.923 74.227C117.85 72.4553 116.611 71.0792 115.202 70.102C114.498 69.6117 113.753 69.2229 112.964 68.9321L111.752 68.5703C110.923 68.3776 110.049 68.2863 109.139 68.2931L108.749 68.2998C107.459 68.3641 106.356 68.5129 105.438 68.7462C104.69 68.6447 103.596 68.6752 102.161 68.8307C101.125 68.9693 100.031 69.2094 98.8798 69.5475C94.9287 71.4511 92.6975 73.6827 92.1863 76.2422C92.0035 78.6936 92.0881 80.3876 92.4334 81.3208C92.9345 83.0012 93.8453 84.0325 95.1623 84.4145Z" stroke="#FEC955" stroke-width="2" stroke-miterlimit="10"/>
<path id="Vector_2" d="M55.756 51.3973C54.8655 53.213 54.4559 54.7109 54.5304 55.8977C55.5393 61.5848 57.5335 63.9483 60.5095 62.9948C63.1605 61.6322 64.6503 60.016 64.9787 58.1428C64.9821 57.054 64.7281 56.4556 64.2203 56.3541C63.7497 56.1715 62.2329 56.2324 59.6699 56.5367C59.2331 56.4928 58.969 56.2899 58.881 55.9247C58.5661 54.9949 59.4566 53.3584 61.5557 51.0186C64.674 48.6619 67.7279 47.1776 70.7175 46.5622C72.0413 46.3086 73.3211 46.2579 74.5569 46.4135L76.1956 46.7448L78.8601 47.7389C80.1501 48.3272 81.6161 49.6864 83.2582 51.8166C84.1012 53.4024 84.3551 54.6061 84.0233 55.4311C83.7355 56.6889 83.1904 57.5883 82.3846 58.1191C81.8395 58.5249 80.2212 58.9746 77.5329 59.4682C77.1165 59.6034 76.6831 59.8638 76.2328 60.2425C75.3254 61.4124 74.9598 62.7513 75.1324 64.2593C75.5049 65.578 76.5307 66.4943 78.2101 67.0082C79.1445 67.3633 80.8408 67.4579 83.2954 67.2923C85.8618 66.7986 88.1133 64.5873 90.0499 60.655C90.3986 59.5088 90.6458 58.42 90.7914 57.382C90.9607 55.9484 90.9979 54.8563 90.9031 54.109C91.1435 53.1961 91.3026 52.0938 91.3771 50.8056L91.3839 50.4168C91.3974 49.5039 91.3094 48.6315 91.1232 47.8031L90.7711 46.5893C90.4867 45.8015 90.1007 45.0542 89.6165 44.3476C88.6482 42.9342 87.2804 41.6866 85.513 40.6012C85.2049 40.28 84.0132 39.739 81.9377 38.9715C81.0778 38.7145 80.1704 38.5252 79.219 38.4068C77.3196 38.1701 75.2374 38.2107 72.9825 38.5319C71.0662 38.7416 68.8181 39.482 66.2382 40.7567C63.6921 42.3053 61.8401 43.6612 60.689 44.8277C59.3279 46.0415 57.6858 48.2292 55.756 51.3872V51.3973Z" stroke="#FEC955" stroke-width="2" stroke-miterlimit="10"/>
<path id="Vector_3" d="M154.944 151.355L148.156 151.304C149.476 150.889 150.644 150.202 151.663 149.245C153.126 147.842 153.891 146.804 153.955 146.131C154.199 145.272 154.104 144.407 153.667 143.531C153.458 142.892 153.038 142.567 152.411 142.564C152.269 142.571 152.124 142.598 151.971 142.652L150.377 143.693C150.224 143.775 150.106 143.819 150.028 143.819C149.96 143.846 149.838 143.819 149.666 143.734C149.33 143.362 149.07 143.146 148.89 143.092L147.478 143.166C146.679 142.909 146.185 142.791 145.995 142.814C145.823 142.814 145.654 142.862 145.488 142.96C144.851 143.619 144.299 144.015 143.835 144.143C143.385 144.275 142.914 144.153 142.424 143.781C141.628 143.237 140.88 142.321 140.172 141.029C139.949 140.62 139.441 138.581 138.648 134.906C138.466 134.257 138.1 133.513 137.548 132.671C137.294 132.289 137.027 131.944 136.746 131.629C138.628 129.831 140.761 129.337 143.141 130.155C143.304 130.189 143.663 130.399 144.225 130.781C144.435 130.946 144.624 131.129 144.794 131.325C145.132 131.724 145.389 132.191 145.565 132.728C145.704 133.188 145.769 133.722 145.755 134.338C145.789 134.754 145.65 135.643 145.342 137.005C145.366 137.262 145.423 137.428 145.518 137.509C145.694 137.715 146.114 137.834 146.774 137.871C147.319 137.79 148.261 137.773 149.598 137.82L151.704 137.617C151.822 137.685 151.887 137.739 151.897 137.783C151.863 138.743 152.022 139.406 152.371 139.771C152.564 140.065 152.95 140.238 153.532 140.285C154.301 140.285 154.941 139.988 155.445 139.393C155.845 138.838 156.065 138.466 156.109 138.277C156.274 137.803 156.329 137.296 156.275 136.748C156.241 136.005 155.865 135.024 155.157 133.803C154.998 133.465 154.182 132.62 152.713 131.271C150.394 129.198 148.403 127.903 146.75 127.386C145.339 126.771 142.407 126.439 137.958 126.395L137.775 126.402C137.816 126.061 137.839 125.729 137.843 125.405C137.924 125.077 137.792 124.245 137.453 122.916C137.274 122.402 137.033 121.912 136.732 121.449C134.731 118.855 132.426 117.543 129.815 117.499C129.358 117.374 128.894 117.307 128.427 117.307H128.251C127.398 117.368 126.782 117.486 126.396 117.675C126.233 117.756 126.138 117.814 126.115 117.851C125.61 118.419 125.288 118.744 125.15 118.818C124.368 118.69 123.795 118.717 123.44 118.899C122.959 119.139 122.671 119.538 122.576 120.093C122.549 120.15 122.56 120.377 122.614 120.769C122.709 121.029 122.773 121.175 122.81 121.212C123.074 121.597 123.348 121.804 123.636 121.827L123.589 122.108C123.619 122.28 123.66 122.378 123.711 122.399C123.853 122.483 124.005 122.493 124.175 122.429C124.185 122.865 124.3 123.153 124.52 123.291C124.655 123.42 124.95 123.501 125.407 123.531C125.8 123.558 126.291 123.538 126.876 123.471L127.225 123.508C127.638 123.653 127.902 123.819 128.017 123.998C128.055 124.025 128.099 124.127 128.153 124.302C128.139 124.725 128.119 124.975 128.092 125.05C128.058 125.242 128.007 125.428 127.946 125.611C127.726 125.668 127.506 125.702 127.289 125.712C125.881 125.912 124.154 125.712 122.102 125.124C119.644 124.255 117.555 122.859 115.836 120.935C113.696 118.318 112.497 115.89 112.236 113.652C112.179 112.739 112.308 111.633 112.626 110.341L113.212 108.729C113.686 107.714 114.325 106.825 115.135 106.057L116.472 104.999C117.447 104.353 118.591 103.833 119.902 103.434C121.212 103.035 122.688 102.761 124.334 102.609C125.326 102.571 126.514 102.801 127.909 103.295C128.634 103.623 129.172 104.063 129.527 104.62C129.73 104.942 129.781 105.337 129.68 105.811C128.664 107.451 128.207 108.641 128.302 109.381C128.325 110.429 128.701 111.237 129.429 111.802C132.043 113.395 134.311 113.107 136.238 110.94C137.233 109.76 137.66 108.286 137.514 106.517C137.443 105.635 137.226 104.675 136.868 103.643C136.603 102.568 136.008 101.506 135.083 100.465C132.168 97.9088 128.556 96.6003 124.242 96.5395L123.413 96.5597C120.775 96.6747 117.996 97.5031 115.074 99.0449C113.855 99.7144 112.738 100.563 111.729 101.594L110.293 103.275C108.485 105.696 107.1 108.84 106.139 112.705L105.496 115.741C105.431 117.117 105.492 118.422 105.678 119.66C105.77 120.269 105.895 120.864 106.047 121.438C105.296 119.816 104.49 118.321 103.616 116.979L102.083 114.842C101.02 113.506 99.882 112.346 98.6631 111.366C97.4443 110.385 96.1476 109.581 94.7763 108.955L92.6569 108.15L90.4189 107.613L89.8467 107.599L89.0748 107.623C88.2521 107.599 87.2262 107.883 86.0006 108.478C85.4081 108.8 84.846 109.391 84.3179 110.26C83.7592 111.173 83.4342 112.12 83.3428 113.097C83.2988 113.584 83.3089 114.081 83.38 114.585C83.4511 115.089 83.5798 115.599 83.7694 116.12C83.8303 116.242 83.8947 116.357 83.9658 116.461C84.1249 116.752 84.4194 117.009 84.8427 117.232C86.2274 117.171 87.084 117.253 87.4124 117.482C87.6596 117.506 87.9575 118.165 88.313 119.454C88.4044 119.66 88.7261 119.927 89.2746 120.252C89.7012 120.495 90.6051 120.641 91.9865 120.698C92.4876 120.674 92.8126 120.34 92.965 119.694C93.0564 119.281 92.965 118.324 92.6874 116.82C92.6975 116.323 92.7822 115.978 92.9413 115.778C93.4221 115.231 94.475 115.339 96.1035 116.1C97.1057 116.651 97.9352 117.584 98.5921 118.896C98.8087 119.105 99.2082 120.302 99.7838 122.493C99.9836 123.437 100.143 124.471 100.258 125.604C100.305 125.885 100.254 126.632 100.102 127.849C100.017 128.326 99.9023 128.786 99.7534 129.232C99.4554 130.125 99.0254 130.956 98.4668 131.727C97.6237 132.907 96.1848 134.463 94.1601 136.397C93.9536 136.579 93.7505 136.752 93.5439 136.924C93.2765 136.948 93.0124 136.968 92.7415 136.995L86.9757 137.513C83.3699 137.864 80.2415 138.226 77.5871 138.598C74.9327 138.97 72.7556 139.352 71.0526 139.748L69.1329 140.272C69.2243 139.643 69.3259 138.774 69.441 137.665V137.59L70.5346 136.752L72.1868 135.355L73.5919 134.023L74.7498 132.755L75.6606 131.552L76.0635 130.862C77.1537 130.328 78.1118 129.908 78.9346 129.611C79.1817 129.499 80.2076 129.127 82.0156 128.498C82.2966 128.434 82.4591 128.4 82.5065 128.394C83.6678 128.17 84.4465 128.37 84.8393 128.992C85.0289 129.327 84.7953 130.47 84.1283 132.424C84.1215 132.755 84.2468 132.975 84.5075 133.076C84.67 133.198 85.0695 133.114 85.7026 132.82C86.1462 132.617 86.4136 132.481 86.5084 132.41C86.8098 132.218 87.2093 131.917 87.7036 131.508L87.883 131.413L88.0625 131.332C88.5195 131.247 88.8446 131.17 89.0376 131.105C89.1053 131.092 89.2475 131.017 89.4642 130.889C89.7723 130.683 89.9889 130.493 90.1142 130.324C90.4629 129.773 90.6187 129.435 90.5848 129.31C90.7033 128.613 90.4325 127.873 89.7689 127.085L89.454 126.774C89.2305 126.578 88.98 126.402 88.7024 126.253C88.4247 126.105 88.1234 125.973 87.795 125.868C87.4666 125.763 87.1111 125.678 86.7285 125.618C86.4475 125.557 85.9362 125.516 85.2049 125.499L83.7321 125.553L82.3508 125.716L81.0574 125.986L79.8555 126.361L78.745 126.845L78.6265 126.916C79.0124 126.105 79.3476 125.083 79.6253 123.849C79.7234 123.231 79.7844 122.717 79.8047 122.311C79.7878 118.27 79.8758 115.342 80.0756 113.523C80.2685 111.494 80.685 109.655 81.3249 108.005C81.8361 106.95 82.2797 106.254 82.6555 105.909C83.9082 105.418 84.7546 104.888 85.2015 104.316C85.4555 103.789 85.5469 103.325 85.4758 102.923C85.2422 102.264 84.9036 101.858 84.4601 101.709C85.6011 102.091 86.4576 101.138 87.0366 98.8488C89.0071 99.1937 90.2395 99.1295 90.7338 98.6493C91.8443 97.6891 92.43 96.7525 92.491 95.8362L92.5147 95.4778C92.5147 94.8962 92.3623 94.2944 92.0576 93.679L90.639 92.3739C89.6334 91.6232 88.4823 91.3426 87.189 91.5319C85.0052 91.9005 82.5912 93.9799 79.9435 97.777C79.2291 98.8454 77.7902 102.233 75.6267 107.931C75.3897 107.336 75.0986 106.73 74.7532 106.115C73.7984 104.543 73.1111 103.562 72.6879 103.173C72.4103 102.832 71.8449 102.46 70.9951 102.061C70.3247 101.831 69.5358 101.709 68.6217 101.692L68.3068 101.699C67.4841 101.74 66.8171 101.949 66.2991 102.325C66.2111 102.386 66.0452 102.592 65.7912 102.954C65.6118 103.248 65.4899 103.566 65.429 103.9C65.3477 104.38 65.3816 104.979 65.5339 105.696C65.5813 106.024 65.8115 106.734 66.2246 107.826C66.272 107.975 66.3262 108.363 66.3803 108.989L66.6918 109.926C66.6986 109.976 66.6749 110.091 66.6207 110.277C66.3059 110.734 66.1264 111.065 66.079 111.271C66.0248 111.511 66.035 111.751 66.1095 111.995C66.1874 112.292 66.3702 112.414 66.658 112.353C68.273 111.413 69.3564 110.984 69.9083 111.058C70.4026 111.008 70.9985 111.231 71.6959 111.728C72.3934 112.289 72.9452 113.029 73.3583 113.956C73.5648 114.419 73.7375 114.93 73.8729 115.484L73.9136 115.687C73.7206 117.134 73.5208 118.791 73.3143 120.668C73.1111 121.722 72.8741 122.706 72.6101 123.636L68.2019 127.545C67.9378 126.862 67.6703 126.311 67.3994 125.908C66.1535 123.748 64.2135 122.061 61.5794 120.843C62.0737 120.448 62.4665 119.873 62.7542 119.116C62.8016 118.784 62.7102 118.45 62.4732 118.115C61.6437 117.168 60.4215 116.401 58.8065 115.805C57.5233 115.342 56.511 115.18 55.7729 115.322C54.9739 115.474 54.3881 115.843 54.0191 116.434L53.5688 117.398L53.3352 118.453C53.3487 118.703 53.3758 118.889 53.4198 119.014C53.6196 119.68 54.8147 121.418 57.0087 124.228C57.0358 124.258 57.0696 124.296 57.1035 124.329C56.687 124.39 56.274 124.502 55.8677 124.668L55.2413 124.968C54.8249 125.198 54.4186 125.486 54.0123 125.831L53.4097 126.392C53.0101 126.794 52.6174 127.254 52.2314 127.771C51.8285 128.36 51.5137 128.958 51.2801 129.57C51.0464 130.182 50.8975 130.808 50.8331 131.443C50.7553 131.981 50.7925 132.792 50.9482 133.885L51.043 134.304C51.1141 134.574 51.2022 134.825 51.3037 135.054C51.4053 135.284 51.5238 135.497 51.6592 135.69C51.9775 136.076 52.3059 136.248 52.6445 136.211C53.1083 136.147 53.4605 135.93 53.6975 135.568C53.8464 135.379 53.9785 134.814 54.0936 133.874C54.1274 133.756 54.1884 133.661 54.2798 133.587C54.4051 133.509 54.4965 133.465 54.5506 133.455C55.6984 133.364 56.3383 133.276 56.467 133.191L57.7806 132.238C57.8822 132.208 58.0041 131.971 58.1429 131.531C58.2817 130.902 58.0921 130.453 57.5775 130.186C57.4658 130.135 57.31 130.098 57.1136 130.071C56.3959 130.206 55.8508 130.243 55.4783 130.175C54.9468 130.047 54.5947 129.895 54.4322 129.712C54.3001 129.591 54.2155 129.452 54.1816 129.3L54.273 129.016C54.3543 128.823 54.4829 128.627 54.6522 128.424C54.9942 128.022 55.5156 127.602 56.2164 127.163C56.5651 126.943 56.9613 126.72 57.398 126.493C57.5301 126.439 57.6621 126.392 57.7976 126.351C58.1835 126.236 58.5729 126.169 58.9656 126.145C59.8865 127.004 61.0952 128.11 62.5951 129.462C63.0928 130.006 63.5126 130.622 63.8478 131.305C64.4471 133.144 64.7417 134.727 64.7315 136.055C64.7484 136.762 64.7078 137.448 64.6096 138.118C64.5114 138.784 64.3591 139.43 64.1525 140.059L63.797 140.982C63.5736 141.462 63.2926 141.922 62.954 142.361L62.4055 143.007C62.0162 143.423 61.5692 143.819 61.0715 144.194C60.5468 144.224 60.1269 144.14 59.8121 143.933C59.2466 143.551 58.9589 143.169 58.9419 142.787C58.9182 142.642 58.9216 142.496 58.9521 142.344C59.1044 141.888 59.1823 141.594 59.1789 141.458L58.8031 140.035C58.7862 139.89 58.8437 139.585 58.9724 139.119C58.9826 139.068 58.9622 138.973 58.9148 138.835C58.6 138.524 58.2919 138.382 57.9973 138.412L57.8754 138.419C57.5436 138.446 57.1644 138.581 56.7412 138.828C56.4433 139.024 56.1419 139.332 55.8338 139.744C55.6781 139.95 55.5224 140.184 55.3632 140.444C54.9637 141.144 54.7233 141.594 54.6421 141.8C54.4389 142.334 54.3746 142.794 54.4491 143.183C54.5371 143.491 54.6082 143.666 54.6624 143.71L55.133 144.214C55.4479 144.529 55.7593 144.806 56.0742 145.042L56.5448 145.367C56.8597 145.563 57.1746 145.722 57.4861 145.84L57.9533 145.986C57.7502 146.077 57.5436 146.165 57.3303 146.253C54.7741 147.054 52.0655 147.041 49.2046 146.206C46.2827 144.961 44.2581 142.422 43.1306 138.591C43.0765 138.226 43.1882 137.996 43.4726 137.908C45.0605 138.091 46.1473 137.939 46.7398 137.459C46.9091 137.34 47.1359 137.083 47.4203 136.691C47.5016 136.546 47.5354 136.414 47.5219 136.302C47.4948 136.076 47.2815 135.913 46.8786 135.815C45.5954 135.859 44.3833 136.37 43.239 137.347C42.2266 138.314 41.6748 139.866 41.5867 141.999C41.5834 142.094 41.5867 142.196 41.5935 142.294C41.2753 141.678 40.8046 140.647 40.1783 139.196C39.9955 138.835 39.7111 138.547 39.3251 138.327C38.3365 138.084 37.7609 138.395 37.6051 139.261C37.6492 139.504 37.8218 139.842 38.1232 140.278C38.7631 140.262 39.1389 140.333 39.254 140.495C39.4842 140.917 39.5418 141.252 39.4233 141.499C39.3928 141.77 38.7021 142.321 37.3478 143.149C36.6097 143.511 35.8818 143.551 35.164 143.271C35.0388 143.234 34.7781 143.051 34.3853 142.723C34.2397 142.581 34.1145 142.429 34.0061 142.263C33.7928 141.932 33.654 141.553 33.5897 141.124C33.4915 139.974 33.6676 139.068 34.1212 138.398C34.453 137.79 35.3198 136.86 36.7147 135.609C36.8738 135.389 37.0397 134.906 37.2158 134.158L37.6356 133.459C37.6898 133.229 37.534 132.897 37.165 132.465C37.1718 132.41 37.2056 132.343 37.2598 132.262C37.5984 132.042 37.8151 131.836 37.9099 131.643C37.9776 131.531 38.0419 131.318 38.0961 131.011C38.1198 130.835 38.1164 130.642 38.0859 130.439C37.7778 129.726 37.6492 129.266 37.6966 129.063C37.7033 128.979 37.8049 128.897 38.0114 128.823C38.8443 128.847 39.4639 128.772 39.8668 128.596C40.2731 128.36 40.4288 128.177 40.3408 128.049C40.3306 127.984 40.1986 127.924 39.9514 127.859L38.8409 127.984C38.113 128.103 37.4155 128.296 36.7452 128.556C35.4044 129.08 34.1754 129.888 33.0615 130.984C31.8697 132.218 30.9421 133.459 30.2785 134.71C29.5844 135.934 29.0901 137.12 28.7955 138.267C28.4637 139.981 28.765 141.621 29.6961 143.183C30.9184 145.33 32.8719 146.693 35.5568 147.267C38.6547 148.028 41.0112 147.72 42.6363 146.344L42.7819 146.199C42.9376 146.513 43.1035 146.835 43.2931 147.169C44.1328 148.535 45.1756 149.58 46.4215 150.31C46.5468 150.405 46.6924 150.496 46.8583 150.581L8.57262 150.3V112.066C8.65727 112.232 8.74868 112.38 8.84348 112.505C9.56464 113.756 10.6041 114.805 11.9651 115.653C12.2969 115.843 12.6186 116.012 12.9334 116.171L12.7878 116.316C11.3963 117.925 11.0713 120.279 11.8094 123.379C12.368 126.064 13.7155 128.025 15.8587 129.263C17.4161 130.202 19.0582 130.514 20.7747 130.196C21.9225 129.912 23.1143 129.428 24.3467 128.742C25.6028 128.089 26.8521 127.17 28.098 125.99C29.2018 124.884 30.0211 123.663 30.5561 122.328C30.8236 121.662 31.0199 120.965 31.1452 120.238L31.2772 119.129C31.2163 118.879 31.1554 118.75 31.091 118.737C30.9624 118.646 30.7762 118.801 30.5392 119.204C30.3597 119.606 30.2818 120.221 30.2988 121.056C30.2243 121.259 30.143 121.364 30.0584 121.367C29.8552 121.415 29.3948 121.283 28.6838 120.968C28.4806 120.935 28.291 120.931 28.1116 120.955C27.8035 121.006 27.5902 121.067 27.4751 121.138C27.2821 121.229 27.0722 121.442 26.8521 121.78C26.7708 121.834 26.7031 121.865 26.649 121.875C26.2156 121.503 25.8872 121.344 25.6569 121.395L24.9527 121.807C24.2045 121.976 23.7203 122.138 23.4969 122.297C22.2374 123.684 21.2995 124.539 20.6867 124.867C20.0163 125.313 19.1056 125.482 17.9544 125.378C17.5245 125.31 17.1453 125.171 16.8168 124.955C16.6509 124.847 16.4986 124.718 16.3598 124.573C16.0347 124.174 15.8519 123.913 15.8181 123.788C15.5404 123.068 15.5878 122.345 15.9535 121.608C16.7965 120.262 17.3518 119.575 17.6226 119.545C17.8698 119.43 18.205 119.488 18.6248 119.721C18.7839 119.836 18.855 120.214 18.8313 120.854C19.2647 121.158 19.6033 121.334 19.8437 121.378C20.7104 121.225 21.0253 120.657 20.7883 119.667C20.5716 119.278 20.2872 118.994 19.9249 118.808C18.4758 118.172 17.4466 117.696 16.8338 117.374C16.932 117.374 17.0335 117.384 17.1283 117.381C19.2681 117.31 20.8255 116.772 21.8006 115.768C22.7892 114.632 23.3106 113.425 23.3614 112.144C23.2666 111.741 23.1075 111.525 22.8807 111.498C22.7655 111.484 22.6369 111.518 22.4913 111.596C22.0952 111.876 21.8379 112.1 21.716 112.269C21.2284 112.854 21.0727 113.939 21.242 115.528C21.1506 115.812 20.9203 115.924 20.5547 115.866C16.7254 114.71 14.1997 112.671 12.9741 109.743C12.1615 106.879 12.1649 104.174 12.9876 101.628C13.0756 101.415 13.167 101.212 13.2585 101.009L13.4007 101.476C13.5158 101.79 13.6715 102.105 13.8679 102.419L14.1895 102.893C14.4231 103.207 14.6974 103.522 15.0123 103.839L15.5133 104.313C15.554 104.367 15.73 104.441 16.0415 104.529C16.4309 104.607 16.8913 104.546 17.4263 104.347C17.6328 104.265 18.0865 104.029 18.7873 103.637C19.048 103.481 19.285 103.325 19.4916 103.173C19.908 102.869 20.2161 102.568 20.4159 102.274C20.6664 101.851 20.8052 101.476 20.8323 101.145L20.8391 101.023C20.8695 100.725 20.7307 100.421 20.4226 100.103C20.2838 100.056 20.189 100.036 20.1382 100.042C19.671 100.167 19.3663 100.222 19.2207 100.205L17.7987 99.8192C17.6633 99.8192 17.3653 99.8902 16.9083 100.039C16.7593 100.066 16.6103 100.069 16.4647 100.046C16.0821 100.029 15.6996 99.7347 15.3237 99.17C15.1206 98.8556 15.0393 98.4329 15.0732 97.9122C15.4524 97.4152 15.8519 96.9723 16.2717 96.5868L16.9218 96.0424C17.3653 95.7077 17.8292 95.4304 18.3099 95.2107L19.2376 94.8624C19.8674 94.6595 20.514 94.5108 21.1844 94.4195C21.8548 94.3282 22.5421 94.291 23.2497 94.3146C24.5803 94.3146 26.1614 94.6223 27.9999 95.2343C28.6804 95.5724 29.2932 95.9951 29.8349 96.4989C31.1791 98.0103 32.2726 99.2241 33.1292 100.151C33.1021 100.543 33.0344 100.932 32.9159 101.314C32.8753 101.446 32.8245 101.581 32.7703 101.713C32.5401 102.149 32.3133 102.541 32.0898 102.889C31.6463 103.586 31.2231 104.103 30.8168 104.441C30.6136 104.61 30.4173 104.735 30.2243 104.817L29.9365 104.905C29.7841 104.871 29.6487 104.786 29.5268 104.651C29.3474 104.485 29.195 104.137 29.0698 103.603C29.0054 103.227 29.0427 102.683 29.1849 101.97C29.1612 101.774 29.1239 101.618 29.0731 101.506C28.8091 100.992 28.3621 100.8 27.729 100.932C27.2889 101.067 27.0519 101.185 27.018 101.29L26.0565 102.595C25.9718 102.727 25.8804 103.363 25.7788 104.509C25.7687 104.563 25.7247 104.651 25.6468 104.776C25.5757 104.864 25.4775 104.928 25.359 104.959C24.4178 105.067 23.8524 105.195 23.6594 105.341C23.2937 105.574 23.077 105.922 23.0059 106.385C22.9653 106.727 23.1346 107.055 23.5172 107.376C23.7102 107.511 23.9201 107.63 24.1503 107.735C24.3805 107.839 24.6311 107.927 24.9019 108.002L25.3218 108.1C26.412 108.262 27.2279 108.306 27.7663 108.232C28.4028 108.171 29.0291 108.029 29.6453 107.799C30.2615 107.569 30.8642 107.258 31.4533 106.862C31.9747 106.48 32.4385 106.091 32.8448 105.696L33.4102 105.101C33.759 104.698 34.0501 104.293 34.2838 103.88L34.5919 103.258C34.7611 102.852 34.8763 102.443 34.9406 102.024C34.9744 102.058 35.0117 102.091 35.0422 102.118C37.8388 104.33 39.5689 105.54 40.2358 105.743C40.3577 105.787 40.5473 105.817 40.7979 105.831L41.8576 105.608L42.8259 105.165C43.4218 104.8 43.7942 104.218 43.9534 103.42C44.1023 102.683 43.9466 101.672 43.4895 100.387C42.9072 98.7677 42.1454 97.5403 41.2042 96.7085C40.869 96.4718 40.5372 96.3772 40.202 96.4211C39.4436 96.7051 38.8646 97.0906 38.4651 97.5809C37.2632 94.9435 35.5873 92.9926 33.4339 91.7314C33.031 91.4575 32.4826 91.1871 31.7986 90.9166L35.7464 86.5413C36.6808 86.2843 37.6661 86.0544 38.7258 85.8583C40.6049 85.6656 42.2639 85.4796 43.7164 85.297L43.9195 85.341C44.4748 85.4796 44.9826 85.6554 45.4431 85.8651C46.3674 86.2843 47.1088 86.8456 47.6641 87.5421C48.155 88.242 48.3751 88.8405 48.3209 89.3342C48.392 89.8853 47.9553 90.9639 47.0005 92.57C46.9396 92.8574 47.0581 93.0399 47.356 93.1211C47.5964 93.1955 47.8368 93.2056 48.0805 93.1549C48.2871 93.1109 48.6189 92.9317 49.0793 92.6241C49.2622 92.57 49.3807 92.5497 49.4314 92.5564L50.3659 92.8743C50.9923 92.9351 51.3816 92.9892 51.5306 93.0366C52.6208 93.4592 53.3284 93.6925 53.6568 93.7432C54.3712 93.8988 54.9705 93.9393 55.4546 93.8616C55.7932 93.8041 56.1081 93.6857 56.406 93.5065C56.7683 93.2563 56.9782 93.0907 57.0392 93.0061C57.4184 92.4922 57.6317 91.8261 57.6791 91.0045L57.6892 90.69C57.6791 89.7771 57.5606 88.9859 57.3371 88.3164C56.9444 87.4644 56.5753 86.8963 56.2367 86.6157C55.8508 86.1897 54.8723 85.4965 53.3047 84.5295C52.6919 84.1779 52.0858 83.8837 51.4933 83.6436C57.2152 81.5236 60.6212 80.1103 61.6945 79.407C65.5136 76.79 67.6161 74.3927 68.0021 72.2153C68.2019 70.9236 67.9276 69.774 67.1861 68.7631L65.8894 67.3362C65.2732 67.0251 64.6739 66.8696 64.0916 66.8662L63.7327 66.8865C62.8186 66.9406 61.874 67.5188 60.9023 68.6211C60.4215 69.1113 60.3436 70.3387 60.6754 72.3099C58.3799 72.8712 57.4184 73.7199 57.7942 74.8627C57.6486 74.4164 57.2457 74.0783 56.5855 73.8416C56.1826 73.7706 55.7187 73.8585 55.1905 74.1053C54.6184 74.5449 54.08 75.3902 53.5789 76.6345C53.2336 77.0064 52.5294 77.4459 51.473 77.9464C49.814 78.5719 47.9722 78.9742 45.9374 79.1534C44.1159 79.3394 41.1805 79.407 37.1345 79.3597C36.7282 79.3766 36.2136 79.4341 35.594 79.5287C34.3582 79.7992 33.329 80.1238 32.5164 80.5059L32.5875 80.3876L33.0818 79.2819L33.4678 78.085L33.7454 76.7968L33.9181 75.4172L33.9824 73.9464C33.9689 73.2127 33.935 72.7055 33.8741 72.4249C33.8165 72.0428 33.7353 71.6878 33.6303 71.3564C33.5254 71.0251 33.4001 70.7242 33.2511 70.4469C33.1021 70.1696 32.9295 69.9194 32.7331 69.6929L32.425 69.3751C31.6429 68.709 30.9014 68.4317 30.204 68.5433C30.0821 68.5095 29.7435 68.6616 29.1849 69.0065C29.0156 69.1282 28.826 69.3446 28.6161 69.6489C28.484 69.862 28.4095 70.004 28.396 70.0716C28.3283 70.2643 28.2504 70.5855 28.1624 71.0454L28.0811 71.2212L27.9829 71.397C27.5699 71.8873 27.2652 72.2829 27.0722 72.5838C27.0011 72.6751 26.8623 72.9422 26.6557 73.3851C26.3544 74.0174 26.2664 74.413 26.3883 74.5787C26.4898 74.839 26.7065 74.9675 27.0383 74.9642C29.002 74.315 30.1498 74.0884 30.4816 74.2812C31.1012 74.6768 31.2942 75.4544 31.0606 76.6142C31.0538 76.6615 31.0199 76.8272 30.9522 77.1044C30.3089 78.9032 29.9297 79.9277 29.818 80.1745C29.5167 80.9928 29.0901 81.9463 28.545 83.0316L27.8509 83.4272L26.6388 84.33L25.3624 85.4762L24.0183 86.8693L22.6064 88.5092L21.7566 89.5911H21.6821C20.5716 89.6993 19.7015 89.7974 19.0717 89.8819L19.6101 87.9715C20.0163 86.2742 20.4159 84.1001 20.8086 81.4526C21.2013 78.8052 21.5873 75.681 21.9631 72.0834L22.5252 66.3286C22.5522 66.0581 22.5759 65.7944 22.603 65.5273C22.7791 65.3244 22.9518 65.1182 23.138 64.9153C25.0881 62.9035 26.6557 61.4834 27.8441 60.6482C28.6194 60.0971 29.4557 59.6745 30.3529 59.3837C30.7999 59.2383 31.2637 59.1267 31.7411 59.0456C32.9599 58.9035 33.7082 58.8562 33.9892 58.9035C35.1234 59.0253 36.1594 59.1909 37.1007 59.4006C39.2878 59.9923 40.4864 60.398 40.6929 60.6178C42.0032 61.2839 42.9309 62.119 43.4726 63.1233C44.2208 64.753 44.3224 65.8045 43.7705 66.2813C43.5708 66.4402 43.222 66.5213 42.7243 66.5281C41.2211 66.2407 40.2629 66.1427 39.8499 66.2306C39.2032 66.3793 38.868 66.7005 38.8375 67.201C38.8816 68.5805 39.0238 69.4833 39.2641 69.9127C39.5858 70.4638 39.8499 70.785 40.0564 70.8797C41.3464 71.2449 42.0032 71.5492 42.0235 71.7926C42.2503 72.1206 42.3248 72.976 42.2537 74.3589C42.4738 74.7816 42.7311 75.0757 43.0189 75.238C43.1239 75.309 43.2356 75.3733 43.3609 75.4375C43.8789 75.6302 44.3901 75.7621 44.8946 75.8365C45.3991 75.9109 45.8968 75.9278 46.3843 75.8872C47.3628 75.8027 48.3108 75.4849 49.2317 74.9337C50.1052 74.413 50.7011 73.8551 51.0261 73.2668C51.6322 72.0462 51.9267 71.0251 51.9064 70.2035L51.9369 69.4325L51.9301 68.8611L51.4087 66.6228L50.6164 64.4994C50.0002 63.1233 49.2046 61.8215 48.2329 60.5975C47.2578 59.3735 46.1067 58.2273 44.7761 57.1589L42.6465 55.6103C41.3057 54.7278 39.8194 53.9095 38.1976 53.1488C38.7732 53.3077 39.3657 53.4362 39.9751 53.5308C41.2109 53.727 42.5178 53.798 43.8958 53.7405L46.9396 53.1217C50.8162 52.1885 53.9751 50.8293 56.4128 49.0406L58.1057 47.6205C59.1451 46.6197 60.0017 45.5141 60.6822 44.3002C62.2464 41.3924 63.0962 38.6232 63.2316 35.9927L63.2587 35.1643C63.2282 30.8567 61.9451 27.2388 59.4092 24.3107C58.3731 23.3775 57.3134 22.7756 56.2401 22.5051C55.2109 22.14 54.2527 21.9168 53.369 21.839C51.5983 21.6801 50.1221 22.096 48.9304 23.0799C46.7432 24.9869 46.4385 27.2489 48.0162 29.8727C48.5749 30.6031 49.3807 30.9818 50.4302 31.0156C51.1717 31.117 52.3669 30.6673 54.0157 29.6665C54.4897 29.5684 54.8892 29.6225 55.2075 29.8288C55.7627 30.1872 56.1995 30.7282 56.5245 31.4551C57.0087 32.8482 57.2287 34.0417 57.1847 35.029C57.0188 36.6689 56.7344 38.1431 56.3248 39.4482C55.9151 40.7534 55.3869 41.8894 54.7335 42.8598L53.6636 44.1886C52.8883 44.99 51.991 45.6223 50.9719 46.0889L49.3536 46.6603C48.0568 46.968 46.9497 47.0863 46.0356 47.0255C43.7976 46.7482 41.3734 45.5344 38.7664 43.3805C36.8501 41.646 35.4688 39.5497 34.6156 37.0915C34.04 35.0392 33.8572 33.3114 34.0637 31.9082C34.0738 31.6918 34.1145 31.472 34.172 31.2522C34.3549 31.1914 34.5411 31.1407 34.7341 31.1102C34.8085 31.0832 35.0591 31.0663 35.4823 31.0561C35.6584 31.1102 35.7599 31.1576 35.787 31.1948C35.9665 31.3131 36.129 31.5768 36.2712 31.9893L36.305 32.3376C36.2339 32.9226 36.2102 33.4128 36.2339 33.805C36.261 34.2615 36.3389 34.559 36.4675 34.6943C36.6064 34.9141 36.8941 35.0324 37.3275 35.0459C37.2632 35.2116 37.27 35.3671 37.3546 35.5092C37.3783 35.5599 37.4731 35.6038 37.6458 35.6343L37.9268 35.5869C37.9471 35.8743 38.1502 36.1516 38.5362 36.4153C38.5701 36.4525 38.719 36.5167 38.9764 36.6148C39.3691 36.6689 39.5959 36.6824 39.6535 36.6554C40.2088 36.5641 40.6117 36.2801 40.8554 35.7999C41.0416 35.4449 41.0721 34.8735 40.9468 34.0924C41.0247 33.9538 41.3497 33.636 41.9219 33.1356C41.9558 33.1119 42.0167 33.0172 42.098 32.8549C42.2876 32.4729 42.4129 31.8541 42.4772 31.0054V30.8296C42.484 30.363 42.423 29.8998 42.2977 29.4433C42.2707 26.8364 40.9739 24.5237 38.394 22.5085C37.9336 22.2042 37.446 21.9608 36.9314 21.7782C35.6008 21.4299 34.7713 21.2947 34.4429 21.3724C34.1179 21.3724 33.7827 21.3961 33.4407 21.4333L33.4475 21.2507C33.4339 16.8078 33.1258 13.8797 32.5198 12.463C32.0153 10.8063 30.7321 8.81135 28.6736 6.47834C27.3329 5.00076 26.4932 4.17914 26.1546 4.01684C24.9392 3.29665 23.9573 2.91796 23.2125 2.87738C22.664 2.8199 22.1561 2.87062 21.6821 3.03292C21.4925 3.07687 21.1167 3.29327 20.5614 3.68887C19.9622 4.19266 19.6608 4.82832 19.6541 5.59585C19.6981 6.17741 19.8674 6.56625 20.1619 6.76236C20.5276 7.114 21.1878 7.2763 22.1493 7.24925C22.1934 7.25939 22.2475 7.32364 22.3119 7.44536L22.0952 9.54845C22.1358 10.884 22.1121 11.824 22.0241 12.3684C22.0579 13.0277 22.173 13.447 22.3762 13.6262C22.4541 13.7208 22.6233 13.7817 22.8773 13.8054C24.2417 13.5078 25.1322 13.3759 25.5486 13.4131C26.1648 13.403 26.6997 13.4706 27.1568 13.6126C27.6918 13.7918 28.159 14.0522 28.5551 14.3937C28.7549 14.5627 28.9343 14.7555 29.0968 14.9651C29.476 15.5264 29.6792 15.8882 29.713 16.0505C30.5155 18.4342 30.0042 20.5576 28.1895 22.4274C27.878 22.1467 27.5326 21.8762 27.1501 21.6193C26.3104 21.0648 25.5655 20.6928 24.9189 20.5035C21.2454 19.6852 19.2072 19.1645 18.8009 18.938C17.5143 18.2246 16.6002 17.4672 16.0618 16.6692C15.6894 16.1756 15.5709 15.7056 15.7097 15.2559C15.8418 14.7927 16.2413 14.2449 16.9083 13.6126C17.0064 13.447 17.0572 13.2779 17.0572 13.1055C17.0843 12.9127 16.9692 12.4191 16.7187 11.6211L16.8033 10.2112C16.7491 10.0286 16.5358 9.76823 16.1668 9.43011C16.0855 9.25767 16.0584 9.13595 16.0855 9.06832C16.0855 8.98718 16.1295 8.87222 16.2142 8.72006L17.2705 7.13767C17.3247 6.98552 17.3518 6.84013 17.3586 6.69812C17.3586 6.0726 17.0403 5.65333 16.4004 5.43694C15.5303 4.99738 14.6635 4.89595 13.8002 5.13263C13.123 5.19349 12.0802 5.94749 10.665 7.39802C9.70007 8.40561 9.00599 9.56874 8.57601 10.884V4.0777C8.57601 2.10647 6.97456 0.507175 5.00069 0.507175C3.02682 0.507175 1.39829 2.10647 1.39829 4.0777V151.467C0.849804 152.089 0.514618 152.9 0.507847 153.793C0.49769 155.01 1.10373 156.089 2.03142 156.741C2.67471 157.675 3.75136 158.283 4.97361 158.283C5.86744 158.283 6.68339 157.952 7.30975 157.411L154.893 158.493C156.867 158.506 158.479 156.921 158.492 154.949C158.506 152.978 156.918 151.369 154.944 151.355ZM130.347 124.022C130.303 124.099 130.259 124.181 130.204 124.255C129.808 124.624 129.416 124.918 129.026 125.148L130.347 124.025V124.022ZM105.726 135.105C106.02 134.459 106.278 133.77 106.498 133.033L106.796 131.896C107.165 130.375 107.341 128.88 107.32 127.41C107.378 127.034 107.249 125.949 106.941 124.154C106.894 123.947 106.836 123.741 106.782 123.535C107.195 124.478 107.7 125.371 108.306 126.206L109.44 127.582C110.259 128.465 111.204 129.276 112.277 130.02C116.191 132.238 118.828 133.459 120.183 133.685C121.476 134.05 123.809 134.226 127.181 134.209C128.122 134.182 128.975 134.111 129.741 134C130.323 134.466 130.922 135.115 131.535 135.95C131.979 136.549 132.466 137.431 133.001 138.595C134.118 141.776 135.08 144.278 135.882 146.104C136.499 147.267 137.193 148.244 137.968 149.039C139.018 150.067 140.142 150.804 141.34 151.26L111.41 151.041L113.303 148.241C113.946 147.592 114.583 147.179 115.213 147.007C115.666 146.868 116.32 146.906 117.166 147.112C120.054 148.37 122.282 149.053 123.843 149.161C124.462 149.218 124.923 149.161 125.217 148.975C125.647 148.826 125.844 148.501 125.806 148.001C125.38 146.273 124.374 144.109 122.783 141.509C121.7 139.957 120.423 138.733 118.95 137.837C117.332 136.742 113.564 136.194 107.645 136.194H106.816C106.271 136.201 105.712 136.211 105.147 136.224C105.353 135.866 105.55 135.501 105.729 135.109L105.726 135.105ZM98.2433 149.763L100.478 150.784C100.718 150.845 100.949 150.845 101.169 150.784L103.664 148.576C103.935 148.383 104.317 148.268 104.808 148.231C105.096 148.211 105.448 148.315 105.871 148.552C107.659 150.047 108.675 150.868 108.922 151.02L95.2266 150.919C96.2322 150.165 96.9872 149.732 97.4917 149.621C97.837 149.641 98.0876 149.688 98.2399 149.763H98.2433ZM63.4619 149.269C64.2541 148.948 65.1242 148.282 66.0689 147.264C67.0812 146.057 67.8023 144.823 68.2391 143.558C68.3407 143.288 68.4321 143 68.5235 142.713L71.3777 144.393C72.8064 144.167 74.8548 144.285 77.5227 144.742C79.5677 145.103 82.8722 146.081 87.4361 147.673C88.98 148.275 89.8569 148.66 90.06 148.836C90.9132 149.32 91.9323 150.009 93.1106 150.902L60.0863 150.659C61.207 150.287 62.331 149.823 63.4585 149.266L63.4619 149.269ZM11.9922 92.854C10.9663 93.7906 10.2926 94.6528 9.96415 95.444C9.39535 96.5631 8.92474 97.6823 8.54554 98.8015V65.8214C9.42921 67.0049 10.1131 68.026 10.5905 68.8814C10.7632 69.0877 11.1458 69.9634 11.7349 71.512C13.2957 76.0833 14.2505 79.3901 14.5958 81.4323C15.036 84.1035 15.1375 86.1491 14.9005 87.5726L16.5629 90.4364C16.2751 90.5243 15.9873 90.6123 15.7165 90.7137C14.4468 91.1397 13.2077 91.8531 11.9922 92.854ZM8.71821 58.4707L9.72377 60.7091C9.79825 60.8646 9.84565 61.1115 9.86258 61.4597C9.74747 61.9635 9.30732 62.7141 8.54554 63.715V50.0381C8.69451 50.2849 9.50708 51.3027 10.9934 53.1014C11.227 53.5241 11.332 53.8791 11.3083 54.1665C11.2677 54.6568 11.1492 55.0355 10.9528 55.306L8.72159 57.7844C8.65727 58.0008 8.65388 58.2307 8.71482 58.4741L8.71821 58.4707ZM35.7362 28.8415L34.602 30.1534C34.8322 29.7645 35.1336 29.3757 35.5026 28.9801C35.5771 28.926 35.6584 28.8854 35.7362 28.8415ZM10.7463 21.0478C11.5351 21.8255 12.5068 22.5254 13.6681 23.1509C15.4896 23.9692 17.9917 24.9463 21.1675 26.0824C22.3288 26.6268 23.2057 27.1204 23.8016 27.5668C24.6345 28.1821 25.2777 28.784 25.7416 29.3723C25.6231 30.1365 25.5486 30.9851 25.5114 31.9251C25.4707 35.2928 25.6265 37.6224 25.982 38.9174C26.1987 40.2732 27.4006 42.9139 29.5945 46.8395C30.3292 47.9147 31.135 48.8648 32.0119 49.6898L33.3832 50.8327C34.216 51.4447 35.1065 51.9552 36.0477 52.3745C35.8412 52.3204 35.6347 52.2595 35.4281 52.2122C33.6303 51.891 32.5469 51.7591 32.1677 51.8098C30.6983 51.7794 29.1984 51.9417 27.6715 52.3001L26.5305 52.5909C25.7924 52.8039 25.0983 53.0541 24.4516 53.3449C24.0589 53.5207 23.6898 53.7134 23.331 53.9163C23.3479 53.3483 23.3614 52.7937 23.3682 52.2494L23.3784 51.421C23.4224 45.5107 22.901 41.7441 21.8175 40.1211C20.9305 38.6435 19.715 37.3587 18.1677 36.2665C15.5743 34.6605 13.4142 33.6394 11.6875 33.1998C11.1898 33.1592 10.8614 33.352 10.709 33.7814C10.5228 34.0755 10.4585 34.532 10.5126 35.1541C10.6108 36.7162 11.2778 38.9444 12.517 41.8387C12.7167 42.6874 12.7472 43.3366 12.6084 43.7897C12.429 44.4186 12.0125 45.0508 11.3591 45.6865L8.54215 47.5563V17.6633C8.98907 18.8636 9.72038 19.9929 10.7429 21.0478H10.7463Z" stroke="#FEC955" stroke-width="2" stroke-miterlimit="10"/>
</g>
<defs>
<clipPath id="clip0_75_578">
<rect width="159" height="159" fill="white"/>
</clipPath>
</defs>
</svg>
