<svg width="44" height="24" viewBox="0 0 44 24" fill="none" xmlns="http://www.w3.org/2000/svg">
<path id="Vector" d="M29.2879 2.43028C30.8208 2.43028 25.6498 4.39857 26.9374 5.9568C29.5536 4.13203 32.0676 3.55795 34.1932 3.55795C36.8094 3.55795 38.792 4.41908 39.5278 4.80863C41.0811 5.64926 42.1031 6.01831 40.7132 6.01831C40.5701 6.01831 40.4066 6.01831 40.2022 6.01831C40.1614 6.01831 40.1 6.01831 40.0592 6.01831C37.259 6.01831 34.5407 9.3808 32.8238 12.7843C31.5566 15.2857 29.0426 16.5364 25.9768 16.5364C24.8322 16.5364 23.6059 16.3723 22.3386 16.0238C21.8481 15.8803 21.4393 15.7982 21.2349 15.7982C20.8875 15.7982 21.1532 16.0443 22.543 16.6594C25.1797 17.828 25.7111 20.9855 25.1592 20.9855C25.0979 20.9855 25.0161 20.9445 24.9344 20.8625C20.8875 16.8234 17.1676 15.4907 14.0404 15.4907C12.3645 15.4907 10.8724 15.8598 9.58477 16.3928C16.2274 9.93438 26.7535 13.871 30.1463 9.29879C26.6104 12.4563 15.4099 10.5085 10.5045 14.2605C12.6506 9.3808 21.6233 2.65582 29.2674 2.43028C29.2879 2.43028 29.3083 2.43028 29.3287 2.43028M29.3287 0.379983H29.2061C20.8875 0.626019 11.1586 7.72006 8.64458 13.4404L7.84746 15.2447L0.530334 22.3592L5.64006 20.2474L5.41523 20.7395L6.55982 19.8578L10.3615 18.2996C11.5673 17.8075 12.8141 17.541 14.0404 17.541C17.1472 17.541 20.3356 19.1402 23.4832 22.2977C24.0964 22.8923 24.73 23.0358 25.1592 23.0358C26.222 23.0358 27.1009 22.2977 27.3257 21.1905C27.4688 20.4729 27.3462 19.5298 26.9578 18.5456C30.4529 18.2791 33.2326 16.5364 34.6633 13.7069C36.3393 10.3855 38.5671 8.06861 40.0796 8.06861C40.3658 8.06861 40.5701 8.06861 40.7337 8.06861C42.5732 8.06861 43.1863 7.16648 43.3703 6.38736C43.779 4.70612 42.3279 3.94751 41.2651 3.39393C41.0402 3.27091 40.7745 3.14789 40.5088 3.00437C39.8548 2.65582 37.4839 1.48715 34.1932 1.48715C33.2735 1.48715 32.3741 1.56916 31.4748 1.75368C31.2091 1.05658 30.5142 0.359482 29.2879 0.359482L29.3287 0.379983Z" fill="#FEC955"/>
</svg>
