<?xml version="1.0" encoding="UTF-8"?><svg id="Layer_1" xmlns="http://www.w3.org/2000/svg" viewBox="0 0 40 40"><defs><style>.cls-1{fill:#fff;}.cls-1,.cls-2{stroke:#000;stroke-miterlimit:10;}.cls-2{fill:none;}</style></defs><polygon class="cls-1" points="14.75 36.75 12.75 36.75 4.75 6.75 6.75 6.75 14.75 36.75"/><path class="cls-1" d="m4.75,10.75h9s4,1,4,4h6s3,0,3,3,8,2,8,2l-4,3,6,2-5,3s-2.5,1.5-5-1h-8s-1.25-3.25-4.25-3.25h-6l-.75-2.75h5l-2-7h-5l-1-3Z"/><line class="cls-2" x1="17.75" y1="16.75" x2="19.75" y2="24.75"/><line class="cls-2" x1="25.75" y1="19.42" x2="26.75" y2="25.42"/><circle class="cls-1" cx="5.25" cy="5.25" r="2"/></svg>