<?xml version="1.0" encoding="UTF-8"?><svg id="Layer_1" xmlns="http://www.w3.org/2000/svg" viewBox="0 0 40 40"><defs><style>.cls-1{fill:#fff;}.cls-1,.cls-2{stroke:#000;stroke-miterlimit:10;}.cls-2{fill:none;}</style></defs><polyline class="cls-2" points="3 21.12 12 12.12 16 16.12 27.5 4.62 37 14.12"/><path class="cls-2" d="m9,15.12l2,3s1-4,3-2"/><path class="cls-2" d="m22.89,9.37s3.11-.25,3.11,1.75,2,4,2,4c0,0-2-3,0-3s1-3,1-3c0,0,3,1,3,3s1-2,1-2"/><path class="cls-2" d="m4,32.12s6-5,16-5,16,5,16,5"/><path class="cls-1" d="m10.5,21.88c-.63-1.26-1,2-2,6-.79,3.18,2,3.5,2,3.5,0,0,3-1.5,2-4.5-.71-2.12-1-3-2-5Z"/><line class="cls-2" x1="10.5" y1="33.38" x2="10.5" y2="31.38"/><path class="cls-1" d="m14.5,18.38c-1.18-.78,0,5-2,8-1.82,2.72,2,4,2,4,0,0,3.65-1.91,2-4-1.39-1.75,1-6-2-8Z"/><line class="cls-2" x1="14.5" y1="35.38" x2="14.5" y2="30.38"/><path class="cls-1" d="m20.5,31.88s.22-2.43,0-4.37"/><path class="cls-1" d="m19.5,20.88c-1.26.63-1,1.39-1,5,0,3,.61.03,1.31,1.52.69,1.48.39,1.46.69,1.48.66.05,1.48-1.61,1-4-.44-2.19,0-5-2-4Z"/><polygon class="cls-1" points="25.39 17.88 25.39 21.88 27.39 21.88 25.39 32.88 32.39 32.88 30.39 21.88 32.39 21.88 32.39 17.88 30.08 19.88 27.35 19.88 25.39 17.88"/><rect class="cls-2" x="28.39" y="30.88" width="1" height="1"/><line class="cls-2" x1="24.89" y1="17.88" x2="32.89" y2="17.88"/><line class="cls-2" x1="28.5" y1="23.38" x2="28.5" y2="25.38"/><line class="cls-2" x1="28.5" y1="26.38" x2="28.5" y2="28.38"/></svg>