<?xml version="1.0" encoding="UTF-8"?><svg id="Layer_1" xmlns="http://www.w3.org/2000/svg" viewBox="0 0 40 40"><defs><style>.cls-1{fill:#fff;}.cls-1,.cls-2,.cls-3{stroke:#000;stroke-miterlimit:10;}.cls-2{stroke-width:1.01px;}.cls-2,.cls-3{fill:none;}.cls-4{stroke-width:0px;}</style></defs><circle class="cls-3" cx="11" cy="5" r="3.5"/><path class="cls-1" d="m7.5,9.5h24.5s0-2.55-5.82-2.55c0,0-.41-4.45-3.68-4.45s-3,3-3,3c0,0-3-1-5,1-1.41,1.41-7-1.29-7,3Z"/><rect class="cls-2" x="1" y="16.02" width="38" height="14.5"/><polygon class="cls-1" points="29 30.52 11 30.52 11 17.94 20 14.52 29 17.94 29 30.52"/><line class="cls-3" x1="10.75" y1="18.52" x2="28.75" y2="18.52"/><line class="cls-3" x1="11" y1="26.02" x2="29" y2="26.02"/><circle class="cls-3" cx="20" cy="16" r="1"/><path class="cls-4" d="m13.37,20v4.88h-1.27v-4.88h1.27m1.03-1.03h-3.33v6.93h3.33v-6.93h0Z"/><path class="cls-4" d="m15.5,20v4.88h-1.27v-4.88h1.27m1.03-1.03h-3.33v6.93h3.33v-6.93h0Z"/><path class="cls-4" d="m20.63,20v4.88h-1.27v-4.88h1.27m1.03-1.03h-3.33v6.93h3.33v-6.93h0Z"/><path class="cls-4" d="m25.77,20v4.88h-1.27v-4.88h1.27m1.03-1.03h-3.33v6.93h3.33v-6.93h0Z"/><path class="cls-4" d="m27.9,20v4.88h-1.27v-4.88h1.27m1.03-1.03h-3.33v6.93h3.33v-6.93h0Z"/><path class="cls-3" d="m19.22,30.52v-1.41c0-1.8,1.56-1.8,1.56,0v1.41"/><path class="cls-3" d="m16.45,30.52v-1.41c0-1.8,1.56-1.8,1.56,0v1.41"/><path class="cls-3" d="m21.99,30.54v-1.41c0-1.8,1.56-1.8,1.56,0v1.41"/><polyline class="cls-3" points="1.5 16.51 1.5 11.26 6 11.26 8.5 15.76 8.5 30.76"/><polyline class="cls-3" points="38.5 16.51 38.5 11.26 34 11.26 31.5 15.76 31.5 30.76"/><line class="cls-3" x1="10.75" y1="30.52" x2="2.78" y2="38.48"/><line class="cls-3" x1="28.75" y1="30.52" x2="36.73" y2="38.5"/><rect class="cls-3" x="3.5" y="17.52" width="3" height="5"/><rect class="cls-3" x="3.5" y="24.02" width="3" height="5"/><rect class="cls-3" x="33.5" y="17.52" width="3" height="5"/><rect class="cls-3" x="33.5" y="24.02" width="3" height="5"/><line class="cls-1" x1="3.5" y1="12.8" x2="3.5" y2="15.52"/><line class="cls-1" x1="37.03" y1="12.79" x2="37.03" y2="15.5"/><line class="cls-1" x1="11.95" y1="13.12" x2="11.95" y2="15.83"/><line class="cls-1" x1="28.49" y1="13.1" x2="28.49" y2="15.82"/></svg>